<svg width="32" height="32" viewBox="0 0 32 32" fill="none" xmlns="http://www.w3.org/2000/svg">
<path d="M28.1696 13.6728C27.7332 13.9152 27.1999 13.7697 27.0059 13.3334L25.0181 9.50307L26.1817 8.82428L28.4605 12.4606C28.7029 12.897 28.5575 13.4303 28.1696 13.6728Z" fill="#F9A846"/>
<path d="M21.1878 5.43037C21.4787 5.28492 21.7696 5.13947 22.0605 5.13947C22.3514 5.13947 22.7393 5.28492 22.8363 5.57583C22.9332 5.86674 22.7878 6.15765 22.5938 6.35159C22.3514 6.54553 22.109 6.6425 21.8181 6.73946C22.9332 6.59401 24.1454 6.78795 25.1635 7.22431C25.5514 7.36977 25.9393 7.61219 26.1817 7.9031C26.4726 8.2425 26.6181 8.67886 26.5211 9.06674C26.3757 9.60007 25.8423 9.89098 25.309 10.0849C24.0969 10.5213 22.6423 10.4728 21.5757 9.74553C20.509 9.01825 19.9272 7.56371 20.3635 6.35159L21.1878 5.43037Z" fill="#FFB95C"/>
<path d="M24.4362 18.3273C24.6786 17.9394 24.9211 17.5516 25.115 17.1152C25.6483 16.0001 25.8423 14.8849 25.6968 13.7698C25.5514 12.8001 25.115 11.8788 24.4847 11.1516C24.3392 11.0061 24.1453 10.8607 23.9998 10.7152C23.0301 9.93945 21.7695 9.74551 20.7998 10.1819C19.6847 10.6667 18.9089 11.8788 18.9089 13.091C18.9089 13.7698 19.1998 14.3516 19.6847 14.7394C19.9756 14.9334 20.2665 15.0788 20.6059 15.1758C20.9453 15.2243 21.2847 15.2728 21.6726 15.1758C22.1089 15.0788 22.4483 14.6425 22.3514 14.2061C22.2544 13.7698 21.818 13.4304 21.3817 13.5273C21.1392 13.5758 20.8968 13.5273 20.7998 13.4304C20.7514 13.3819 20.6544 13.2849 20.6544 13.0425C20.6544 12.5091 21.0423 11.9273 21.5271 11.7334C22.012 11.5394 22.6423 11.7334 23.0301 12.0243C23.1271 12.1213 23.2241 12.1698 23.3211 12.3152C23.7574 12.7516 23.9998 13.3334 24.0968 14.0122C24.1938 14.7879 24.0483 15.6122 23.6605 16.3879C23.515 16.7273 23.2726 17.1152 23.0301 17.4546C22.7877 17.891 22.4968 18.3273 22.3029 18.7637C21.7211 20.0243 21.7211 21.2364 22.2544 22.1576C22.3998 22.3516 22.5938 22.497 22.7877 22.5455C22.9817 22.594 23.1756 22.5455 23.3695 22.4485C23.7574 22.2061 23.9029 21.7213 23.6605 21.2849C23.418 20.8485 23.4665 20.1698 23.7574 19.4425C23.9514 19.1031 24.1938 18.7152 24.4362 18.3273Z" fill="#F9A846"/>
<path d="M18.4727 2.47276C18.4727 3.6364 17.7454 5.13943 16.8727 5.13943C16 5.13943 15.2727 3.68489 15.2727 2.47276C15.2727 1.30913 16 0.82428 16.8727 0.82428C17.7454 0.872765 18.4727 1.30913 18.4727 2.47276Z" fill="#FFB95C"/>
<path d="M6.49672 12.8C6.5452 12.6546 6.5452 12.5576 6.49672 12.4122C6.35126 11.6849 5.52702 10.9576 4.65429 11.1031C3.78156 11.2485 3.24823 12.2182 3.39368 12.994C3.44217 13.1394 3.49065 13.2849 3.53914 13.3819H3.49065L4.16944 14.2546C4.3149 14.3031 4.36338 14.4485 4.41187 14.5455L4.55732 15.5152C4.65429 16 5.13914 16.3394 5.62399 16.2425C6.10884 16.1455 6.44823 15.6606 6.35126 15.1758L6.20581 14.2061C6.15732 14.0606 6.20581 13.9152 6.20581 13.7697L6.49672 12.8Z" fill="#FFB95C"/>
<path d="M10.4726 24.6788C8.72712 25.4546 6.2544 25.6001 5.18773 23.7091C4.55743 22.594 4.50894 21.2364 5.04227 20.0243C5.23621 19.5879 5.81803 19.1516 6.06046 18.9091C6.49682 18.4243 6.20591 17.3576 5.62409 17.1152C5.47864 17.0667 5.2847 17.0182 5.04227 16.9697C4.16955 16.8243 4.26652 15.5152 5.18773 15.5152C7.515 15.3213 9.01803 18.2304 7.8544 20.1213C7.75743 20.3152 7.61197 20.4607 7.515 20.5576C7.27258 20.897 7.12712 21.3819 7.27258 21.8182C7.32106 21.9637 7.36955 22.0607 7.46652 22.1576C7.61197 22.3031 7.61197 22.2546 7.75743 22.2546C8.19379 22.2546 8.72712 22.0607 9.115 21.8667C11.0059 21.0425 12.315 23.7576 10.4726 24.6788Z" fill="#F9A846"/>
<path d="M14.6907 7.9516L9.11499 7.03038L15.2726 4.26675C15.9029 3.97584 16.6301 3.83038 17.3574 3.83038C18.6665 3.83038 19.9271 4.36372 20.8968 5.23644L21.1877 5.52735L18.9574 7.9516H14.6907Z" fill="#FFB95C"/>
<path d="M21.1394 5.52735L20.8485 5.23644C19.9273 4.31523 18.6182 3.83038 17.3091 3.83038C16.5819 3.83038 15.9031 3.97584 15.2243 4.26675L9.21216 6.93341C14.594 5.67281 19.1031 4.84856 21.1394 5.52735Z" fill="#F9A846"/>
<path d="M24.0967 22.594C24.0967 20.1697 22.6422 18.0364 20.4604 16.8728C19.7331 16.4849 19.1998 15.7576 19.1028 14.9334L18.5695 8.82428H15.0785L14.5452 14.9334C14.4967 15.7576 13.9634 16.4849 13.1876 16.8728C11.0058 17.9879 9.55127 20.1212 9.55127 22.594C9.55127 25.2606 11.2967 27.5394 13.7695 28.6061C14.2543 28.8 14.6422 29.2364 14.7391 29.8182C14.8846 30.594 15.5634 31.2243 16.3876 31.2243H17.2119C18.0361 31.2243 18.7149 30.6425 18.8604 29.8182C18.9573 29.2849 19.3452 28.8485 19.8301 28.6061C22.3513 27.5394 24.0967 25.2606 24.0967 22.594Z" fill="#FFB95C"/>
<g opacity="0.4">
<path d="M12.9449 19.1516C12.8479 19.1516 12.751 19.1031 12.654 19.0061C12.5085 18.8607 12.557 18.6182 12.7025 18.4728C12.9449 18.2788 13.2358 18.0849 13.5267 17.9394C13.8176 17.794 14.06 17.6485 14.254 17.4546C14.6904 17.1152 15.0782 16.6304 15.3207 16.1455C15.4176 15.9516 15.6116 15.9031 15.8055 15.9516C15.9994 16.0485 16.0479 16.2425 15.9994 16.4364C15.7085 17.0667 15.2722 17.6001 14.7388 18.0364C14.4964 18.2304 14.2055 18.4243 13.8661 18.5698C13.6237 18.7152 13.3813 18.8607 13.1388 19.0546C13.1388 19.1031 13.0419 19.1516 12.9449 19.1516Z" fill="white"/>
<path d="M11.4421 21.1395C11.3936 21.1395 11.3452 21.1395 11.2967 21.091C11.1027 20.994 11.0058 20.8001 11.1027 20.6061C11.1997 20.3637 11.2967 20.1698 11.4906 19.9273C11.5876 19.7334 11.83 19.6849 11.9755 19.8304C12.1694 19.9273 12.2179 20.1698 12.0724 20.3152C11.927 20.5576 11.83 20.7516 11.733 20.897C11.6846 21.0425 11.5876 21.1395 11.4421 21.1395Z" fill="white"/>
</g>
<path d="M19.0544 14.4485L18.5695 8.82428H15.0786L14.5938 14.4485C16.0968 13.3819 17.5513 13.3819 19.0544 14.4485Z" fill="#F9A846"/>
<path d="M19.2484 8.82429C19.1514 9.21217 18.7151 9.40611 18.3757 9.26065C17.9878 9.1152 17.4545 9.01823 16.8726 9.01823C16.2908 9.01823 15.7575 9.1152 15.3696 9.26065C14.9817 9.40611 14.5939 9.21217 14.4969 8.82429L14.4484 8.72732C14.3999 8.48489 14.4484 8.24247 14.6423 8.09702C15.0302 7.75762 15.9029 7.5152 16.8726 7.5152C17.8908 7.5152 18.7635 7.75762 19.1514 8.1455C19.2969 8.29096 19.3454 8.53338 19.2969 8.72732L19.2484 8.82429Z" fill="#F9A846"/>
<path d="M14.6421 24.5334C14.5451 24.7273 14.4482 24.9213 14.4966 25.1637C14.4966 25.3576 14.5936 25.5031 14.7391 25.6485C15.1269 26.0364 15.4179 26.0364 15.6603 25.9879C15.6603 26.0849 15.6603 26.1334 15.6603 26.2304C15.6603 26.6182 16.0966 27.2001 16.436 27.5879C16.6785 27.8788 17.1148 27.8788 17.3573 27.5879C17.6966 27.2001 18.133 26.6182 18.133 26.2304C18.133 26.1334 18.133 26.0849 18.133 25.9879C18.3754 26.0364 18.5694 26.0364 18.8603 25.794C19.1512 25.5516 19.3451 25.1637 19.1997 24.7758C19.1512 24.6788 19.1512 24.6304 19.1027 24.5334C18.8603 24.194 19.1027 23.7576 19.5391 23.7091C19.9269 23.6607 20.4118 23.7576 20.9451 24.0001V23.3213L21.9633 22.594L20.8482 21.8182V21.1394C20.3633 21.3819 19.9269 21.4788 19.5391 21.4788C19.1027 21.4788 18.8118 20.9455 19.0542 20.5576C19.1512 20.4607 19.1997 20.3152 19.1997 20.1213C19.1997 19.5879 18.7633 19.2001 18.2785 19.2001C18.1815 19.2001 18.133 19.2001 18.036 19.2485C18.036 19.1516 18.036 19.1031 18.036 19.0061C18.036 18.6182 17.5997 18.0364 17.2603 17.6485C17.0179 17.3576 16.5815 17.3576 16.3391 17.6485C15.9997 18.0364 15.5633 18.6182 15.5633 19.0061C15.5633 19.1031 15.5633 19.1516 15.5633 19.2485C15.3209 19.2001 15.1269 19.2001 14.836 19.4425C14.5451 19.6849 14.3512 20.0728 14.4966 20.4607C14.4966 20.5091 14.5451 20.5576 14.5451 20.6061C14.7876 20.994 14.4966 21.4788 14.0603 21.4788C13.6724 21.4788 13.236 21.4304 12.7997 21.1394V21.8182L11.7815 22.5455L12.7997 23.2728V23.9516C13.2845 23.6607 13.7694 23.6122 14.2057 23.6607C14.5936 23.7091 14.836 24.194 14.6421 24.5334Z" fill="#F9A846"/>
<path d="M18.2785 22.2546C18.2785 23.2728 17.5997 24.3879 16.8239 24.3879C15.9997 24.3879 15.3694 23.2243 15.3694 22.2546C15.3694 21.2364 16.0482 20.8 16.8239 20.8C17.6482 20.8 18.2785 21.2364 18.2785 22.2546Z" fill="#FFCA8A"/>
<path d="M18.812 11.5394C18.7635 11.5394 18.7635 11.5394 18.715 11.5394C18.6665 11.5394 18.6665 11.5394 18.6181 11.5394L15.0787 10.6667C15.0302 10.6667 14.9817 10.6667 14.9817 10.6182L15.0302 9.9879C15.0787 9.93942 15.1756 9.93942 15.2726 9.9879L18.7635 10.8121L18.812 11.5394Z" fill="#FFB95C"/>
<path d="M18.9088 12.994L18.8603 13.0425C18.8118 13.0425 18.7634 13.0425 18.7149 13.0425C18.6664 13.0425 18.6664 13.0425 18.6179 13.0425L14.8361 12.1213H14.7876L14.8361 11.4425C14.8846 11.4425 14.9331 11.4425 14.9815 11.4425L18.7634 12.3637H18.8118L18.8603 12.4122L18.9088 12.994Z" fill="#FFB95C"/>
</svg>
