<svg width="32" height="32" viewBox="0 0 32 32" fill="none" xmlns="http://www.w3.org/2000/svg">
<path d="M14.0055 2.0715C16.6156 1.95931 25.4366 3.42007 24.4684 10.6383C24.1724 12.8482 22.7812 14.3856 20.5935 14.9039C17.5533 15.6244 15.1945 16.6479 15.7246 20.5809C16.2547 24.5138 11.5419 26.9223 7.93423 25.7585C6.69566 25.3407 5.55159 24.683 4.56744 23.8227C3.58328 22.9625 2.77835 21.9167 2.19867 20.7452C0.481877 17.1535 0.537229 12.2683 2.83329 8.38485C5.13675 4.48892 8.53807 2.30652 14.0055 2.0715Z" fill="#F7E5D0"/>
<path d="M13.6266 8.71224C14.7139 8.71224 15.5953 7.83083 15.5953 6.74356C15.5953 5.65628 14.7139 4.77487 13.6266 4.77487C12.5394 4.77487 11.658 5.65628 11.658 6.74356C11.658 7.83083 12.5394 8.71224 13.6266 8.71224Z" fill="#FFC639"/>
<path d="M19.3806 11.3345C20.4678 11.3345 21.3492 10.4531 21.3492 9.36578C21.3492 8.27851 20.4678 7.39709 19.3806 7.39709C18.2933 7.39709 17.4119 8.27851 17.4119 9.36578C17.4119 10.4531 18.2933 11.3345 19.3806 11.3345Z" fill="#61D6A0"/>
<path d="M8.05975 11.3345C9.14703 11.3345 10.0284 10.4531 10.0284 9.36578C10.0284 8.27851 9.14703 7.39709 8.05975 7.39709C6.97248 7.39709 6.09106 8.27851 6.09106 9.36578C6.09106 10.4531 6.97248 11.3345 8.05975 11.3345Z" fill="#584360"/>
<path d="M5.9223 17.7617C7.00958 17.7617 7.89099 16.8803 7.89099 15.7931C7.89099 14.7058 7.00958 13.8244 5.9223 13.8244C4.83502 13.8244 3.95361 14.7058 3.95361 15.7931C3.95361 16.8803 4.83502 17.7617 5.9223 17.7617Z" fill="#FF736C"/>
<path d="M9.9083 23.2691C11.1177 23.2691 12.0981 22.2887 12.0981 21.0793C12.0981 19.8699 11.1177 18.8895 9.9083 18.8895C8.69891 18.8895 7.71851 19.8699 7.71851 21.0793C7.71851 22.2887 8.69891 23.2691 9.9083 23.2691Z" fill="white"/>
<path d="M30.7033 6.38981C32.7753 7.26981 23.3188 23.2694 23.3188 23.2694L21.8296 22.5484C21.8296 22.5484 28.5582 5.47902 30.7033 6.38981Z" fill="#3CB7DD"/>
<path d="M25.3697 19.6722C24.2005 21.7738 23.3185 23.2686 23.3185 23.2686L21.8296 22.5493C21.8296 22.5493 22.466 20.9331 23.4102 18.725L25.3697 19.6722Z" fill="#F7F0DF"/>
<path d="M23.3185 23.2694L21.8293 22.5484C19.7064 23.2481 19.202 24.1485 18.2773 26.0551C17.8079 27.0248 16.8397 27.5265 16.0014 27.7852C15.9211 27.8101 15.8515 27.8611 15.8035 27.93C15.7555 27.999 15.7319 28.082 15.7364 28.1659C15.7409 28.2498 15.7733 28.3298 15.8284 28.3932C15.8836 28.4567 15.9583 28.4999 16.0408 28.516C17.4312 28.9153 18.9144 28.8458 20.2614 28.3183C22.3133 27.5555 23.4694 24.6432 23.3185 23.2694Z" fill="#584360"/>
<path d="M20.2624 28.3183C18.9152 28.8454 17.4321 28.9151 16.0414 28.5166C15.9591 28.5004 15.8845 28.4573 15.8294 28.394C15.7743 28.3307 15.7418 28.2509 15.7371 28.1671C15.7323 28.0834 15.7556 28.0004 15.8032 27.9313C15.8508 27.8622 15.92 27.8109 16 27.7855C16.8406 27.525 17.8085 27.0248 18.2762 26.0539C18.4301 25.7372 18.5693 25.4501 18.7113 25.1866C18.4509 26.051 18.9748 26.9212 19.8805 26.8768C20.7283 26.8336 21.0539 27.7944 20.2624 28.3183ZM5.24311 27.9063C5.19457 28.2674 4.87193 28.8126 4.55195 28.7694C4.42511 28.7482 4.3043 28.7 4.19772 28.6281C4.09115 28.5561 4.00129 28.4621 3.93425 28.3523C3.86721 28.2426 3.82455 28.1197 3.80917 27.992C3.79379 27.8644 3.80605 27.7349 3.84511 27.6124C3.93568 27.2595 4.11151 27.0881 4.43148 27.1314C4.75146 27.1746 5.29165 27.544 5.24311 27.9063ZM13.04 28.2926C11.0752 28.1238 7.84198 27.734 7.58357 28.6019C7.1668 30.0011 10.4462 30.2083 12.009 29.6402C13.5719 29.0722 13.9461 28.3704 13.04 28.2926Z" fill="#FF736C"/>
<path d="M25.3694 19.9679C25.3248 19.9677 25.2808 19.9576 25.2406 19.9383L23.2811 18.9911C23.245 18.9748 23.2125 18.9516 23.1856 18.9226C23.1587 18.8936 23.1378 18.8595 23.1243 18.8223C23.1108 18.7851 23.1048 18.7456 23.1068 18.7061C23.1088 18.6666 23.1187 18.6279 23.1359 18.5923C23.1532 18.5566 23.1773 18.5248 23.2071 18.4987C23.2368 18.4726 23.2714 18.4527 23.309 18.4402C23.3465 18.4277 23.3862 18.4229 23.4256 18.426C23.4651 18.4291 23.5035 18.4401 23.5386 18.4583L25.4981 19.4055C25.5584 19.4347 25.607 19.4834 25.636 19.5438C25.665 19.6042 25.6726 19.6726 25.6576 19.7379C25.6427 19.8032 25.606 19.8615 25.5537 19.9033C25.5013 19.945 25.4363 19.9678 25.3694 19.9679Z" fill="#584360"/>
</svg>
