<svg width="32" height="32" viewBox="0 0 32 32" fill="none" xmlns="http://www.w3.org/2000/svg">
<g clip-path="url(#clip0_44_2443)">
<path d="M16 32C24.8366 32 32 24.8366 32 16C32 7.16344 24.8366 0 16 0C7.16344 0 0 7.16344 0 16C0 24.8366 7.16344 32 16 32Z" fill="#F26635"/>
<path opacity="0.15" d="M32.0001 16C32.0003 18.9546 31.1825 21.8516 29.6372 24.3699C28.0919 26.8882 25.8794 28.9294 23.2451 30.2672C20.6107 31.6051 17.6573 32.1874 14.7123 31.9496C11.7673 31.7118 8.94562 30.6632 6.56006 28.92C10.1208 30.8849 14.2962 31.4201 18.2374 30.4168C22.1786 29.4135 25.5898 26.9471 27.7777 23.5188C29.9656 20.0905 30.7659 15.9578 30.0159 11.9607C29.2659 7.9635 27.0219 4.40196 23.7401 2C26.242 3.38288 28.3277 5.41083 29.7804 7.87292C31.233 10.335 31.9995 13.1413 32.0001 16Z" fill="#020202"/>
<path opacity="0.2" d="M19.75 10.155C19.7496 12.3737 19.1587 14.5523 18.038 16.4671C16.9173 18.3819 15.3071 19.9639 13.3728 21.0507C11.4385 22.1374 9.24984 22.6898 7.0315 22.651C4.81316 22.6122 2.64512 21.9837 0.750001 20.83C0.252469 19.2683 -0.000521195 17.639 8.06138e-07 16C-2.50497e-05 15.2405 0.0534406 14.482 0.160001 13.73C0.67273 10.1535 2.38088 6.85579 5.00643 4.37368C7.63198 1.89158 11.0203 0.371191 14.62 0.0599976C16.2111 1.21845 17.5053 2.73706 18.3969 4.49162C19.2886 6.24619 19.7522 8.18688 19.75 10.155Z" fill="white"/>
<path opacity="0.15" d="M15.1902 10.155C15.1903 11.9414 14.588 13.6757 13.4806 15.0776C12.3732 16.4794 10.8255 17.4668 9.08749 17.8802C7.34952 18.2936 5.52292 18.1088 3.90296 17.3557C2.283 16.6026 0.96435 15.3252 0.160156 13.73C0.498703 11.3608 1.36444 9.09768 2.69359 7.10742C4.02273 5.11716 5.78144 3.45042 7.84016 2.22998C9.8395 2.37896 11.7085 3.27878 13.0718 4.74877C14.4351 6.21876 15.1919 8.15009 15.1902 10.155Z" fill="#F1F2F2"/>
<path d="M7.945 10.905C7.32855 12.2013 6.84443 13.5565 6.5 14.95C7.72278 15.6268 8.78927 16.5536 9.63 17.67C11.6339 20.067 13.4162 22.6409 14.955 25.36C16.1938 27.6621 18.1151 29.5241 20.455 30.69C20.7475 30.8351 21.048 30.9637 21.355 31.075C20.794 31.2761 20.2212 31.4431 19.64 31.575C17.2233 30.2919 15.2401 28.3226 13.94 25.915C12.4274 23.2689 10.6876 20.7595 8.74 18.415C8.04862 17.5126 7.20207 16.7406 6.24 16.135C5.55 19.68 5.56 23.94 6.74 29.06C6.24501 28.7132 5.77086 28.3375 5.32 27.935C4.44513 23.8923 4.406 19.7134 5.205 15.655C4.69424 15.4638 4.15519 15.359 3.61 15.345C2.32224 15.357 1.06657 15.7483 0 16.47C0 16.315 0 16.155 0 16C0 15.7 0 15.395 0.03 15.105C1.13434 14.4922 2.37705 14.1721 3.64 14.175C4.26365 14.1914 4.88098 14.3044 5.47 14.51C5.82492 13.1559 6.30706 11.8383 6.91 10.575C4.225 9.75499 2.285 9.31999 1.53 9.16999C1.7 8.80499 1.885 8.44999 2.085 8.09999C3.055 8.30999 4.945 8.75999 7.435 9.52999C7.99552 8.50463 8.63583 7.52494 9.35 6.59999C8.90053 6.50443 8.47742 6.3117 8.11033 6.0353C7.74324 5.7589 7.44106 5.40554 7.225 4.99999C6.92085 4.32162 6.81177 3.57191 6.91 2.83499C7.33846 2.53105 7.78421 2.25225 8.245 1.99999C7.9566 2.80837 7.9566 3.69161 8.245 4.49999C8.55 5.09499 9.145 5.44999 10.08 5.60499H10.14C12.13 3.32005 14.5381 1.43628 17.235 0.0549927C17.9498 0.105067 18.66 0.207002 19.36 0.359993C16.3044 1.55098 13.5662 3.4335 11.36 5.85999C12.93 6.08999 16.23 6.35999 22.14 5.94999C24.3378 5.81107 26.5443 5.92853 28.715 6.29999C29.0566 6.74577 29.3738 7.20979 29.665 7.68999C27.225 7.14508 24.72 6.9498 22.225 7.10999C15.225 7.60999 11.795 7.14999 10.48 6.88499C9.72726 7.82486 9.05805 8.82867 8.48 9.88499C14.38 11.81 23.07 15.41 30.98 21.67C30.8392 22.0415 30.679 22.4053 30.5 22.76C22.58 16.4 13.815 12.8 7.945 10.905Z" fill="#3A3A3A"/>
</g>
<defs>
<clipPath id="clip0_44_2443">
<rect width="32" height="32" fill="white"/>
</clipPath>
</defs>
</svg>
