<svg width="24" height="25" viewBox="0 0 24 25" fill="none" xmlns="http://www.w3.org/2000/svg">
<g clip-path="url(#clip0_52_11084)">
<path d="M19.6 20.5001V23.3001C19.5993 23.512 19.5149 23.7152 19.365 23.865C19.2151 24.0149 19.012 24.0994 18.8 24.1001H5.19998C4.77563 24.1001 4.36866 23.9315 4.0686 23.6314C3.76855 23.3314 3.59998 22.9244 3.59998 22.5001V20.5001H19.6Z" fill="#D8D8D8"/>
<path d="M5.19998 0.899994H5.99998V20.9H5.19998C4.98979 20.8997 4.78161 20.9409 4.58737 21.0213C4.39313 21.1016 4.21665 21.2194 4.06802 21.368C3.91939 21.5167 3.80155 21.6931 3.72123 21.8874C3.64092 22.0816 3.59971 22.2898 3.59998 22.5V2.49999C3.59998 2.07565 3.76855 1.66868 4.06861 1.36862C4.36866 1.06856 4.77563 0.899994 5.19998 0.899994Z" fill="#4481AA"/>
<path d="M20.4 1.69999V20.1C20.3993 20.312 20.3148 20.5151 20.1649 20.665C20.015 20.8149 19.8119 20.8994 19.6 20.9H5.19995V0.899994H19.6C19.8119 0.900627 20.015 0.985116 20.1649 1.13501C20.3148 1.2849 20.3993 1.48802 20.4 1.69999Z" fill="#6AB3EF"/>
<path d="M15.3799 12.66L15.4879 12.832C15.5183 12.8808 15.5599 12.9215 15.6094 12.9508C15.6588 12.98 15.7146 12.9969 15.7719 13L16.5039 13.036C16.5926 13.0395 16.6767 13.0765 16.7391 13.1396C16.8015 13.2028 16.8376 13.2873 16.8399 13.376L16.8599 14.12C16.8598 14.167 16.8697 14.2134 16.889 14.2562C16.9083 14.299 16.9366 14.3371 16.9719 14.368L17.4879 14.844C17.523 14.8768 17.5509 14.9165 17.57 14.9605C17.589 15.0046 17.5989 15.052 17.5989 15.1C17.5989 15.148 17.589 15.1955 17.57 15.2395C17.5509 15.2836 17.523 15.3232 17.4879 15.356L16.9719 15.832C16.9368 15.8633 16.9083 15.9014 16.8884 15.9441C16.8684 15.9867 16.8574 16.033 16.8559 16.08L16.8399 16.824C16.837 16.913 16.8009 16.9976 16.7387 17.0612C16.6765 17.1249 16.5928 17.163 16.5039 17.168L15.7719 17.2C15.7148 17.204 15.6593 17.2212 15.61 17.2504C15.5607 17.2795 15.5189 17.3198 15.4879 17.368L15.0919 18.012C15.0488 18.0825 14.9825 18.1358 14.9045 18.1628C14.8264 18.1897 14.7414 18.1888 14.6639 18.16L13.9599 17.896C13.9021 17.8742 13.8395 17.8679 13.7785 17.8778C13.7174 17.8876 13.66 17.9132 13.6119 17.952L13.0239 18.424C12.9594 18.4727 12.8808 18.499 12.7999 18.499C12.7191 18.499 12.6405 18.4727 12.5759 18.424L11.9879 17.952C11.9398 17.9132 11.8824 17.8876 11.8214 17.8778C11.7603 17.8679 11.6978 17.8742 11.6399 17.896L10.9359 18.16C10.8585 18.1888 10.7735 18.1897 10.6954 18.1628C10.6173 18.1358 10.5511 18.0825 10.5079 18.012L10.1119 17.368C10.0816 17.3193 10.0399 17.2785 9.9905 17.2493C9.94106 17.22 9.88529 17.2031 9.82793 17.2L9.09593 17.164C9.00723 17.1606 8.92314 17.1236 8.86075 17.0604C8.79835 16.9973 8.76231 16.9128 8.75993 16.824L8.73993 16.08C8.7401 16.0331 8.73019 15.9867 8.71087 15.9439C8.69154 15.9011 8.66326 15.8629 8.62793 15.832L8.11193 15.356C8.07691 15.3232 8.04899 15.2836 8.02991 15.2395C8.01082 15.1955 8.00098 15.148 8.00098 15.1C8.00098 15.052 8.01082 15.0046 8.02991 14.9605C8.04899 14.9165 8.07691 14.8768 8.11193 14.844L8.62793 14.368C8.66311 14.3367 8.69153 14.2986 8.71148 14.256C8.73142 14.2133 8.74246 14.1671 8.74393 14.12L8.75993 13.376C8.76289 13.2871 8.799 13.2025 8.86118 13.1388C8.92335 13.0752 9.00709 13.0371 9.09593 13.032L9.82793 13C9.88509 12.9961 9.94053 12.9789 9.98984 12.9497C10.0392 12.9205 10.081 12.8802 10.1119 12.832L10.2199 12.66H15.3799Z" fill="#3778C6"/>
<path d="M8.81201 9.66407C8.98001 11.9241 10.704 13.7001 12.8 13.7001C14.896 13.7001 16.62 11.9241 16.788 9.66407L12.8 8.10007L8.81201 9.66407Z" fill="#F9D2B6"/>
<path d="M8.85181 5.71605C9.15426 4.90664 9.69172 4.20609 10.3952 3.70433C11.0987 3.20257 11.936 2.92249 12.7998 2.90005C13.6637 2.9219 14.5014 3.20175 15.205 3.70359C15.9085 4.20543 16.4459 4.90631 16.7478 5.71605L12.7998 8.10005L8.85181 5.71605Z" fill="#3778C6"/>
<path d="M7.19995 5.24001V7.70001C7.19995 7.96265 7.25168 8.22272 7.35219 8.46537C7.4527 8.70803 7.60002 8.9285 7.78574 9.11422C8.16081 9.48929 8.66952 9.70001 9.19995 9.70001H11C11.4773 9.70001 11.9352 9.51037 12.2727 9.1728C12.6103 8.83523 12.8 8.3774 12.8 7.90001C12.8 7.42262 12.6103 6.96478 12.2727 6.62722C11.9352 6.28965 11.4773 6.10001 11 6.10001H10.4628C9.64534 6.1 8.85226 5.82182 8.21395 5.31121L7.77795 4.96241C7.72565 4.92049 7.66258 4.89421 7.59599 4.88658C7.5294 4.87896 7.46202 4.89031 7.4016 4.91933C7.34118 4.94835 7.2902 4.99385 7.25452 5.05058C7.21884 5.10732 7.19993 5.17299 7.19995 5.24001ZM18.4 5.24001V7.70001C18.4 7.96265 18.3482 8.22272 18.2477 8.46537C18.1472 8.70803 17.9999 8.9285 17.8142 9.11422C17.6284 9.29994 17.408 9.44726 17.1653 9.54777C16.9227 9.64828 16.6626 9.70001 16.4 9.70001H14.6C14.1226 9.70001 13.6647 9.51037 13.3272 9.1728C12.9896 8.83523 12.8 8.3774 12.8 7.90001C12.8 7.42262 12.9896 6.96478 13.3272 6.62722C13.6647 6.28965 14.1226 6.10001 14.6 6.10001H15.1372C15.9546 6.1 16.7476 5.82182 17.386 5.31121L17.822 4.96241C17.8742 4.92049 17.9373 4.89421 18.0039 4.88658C18.0705 4.87896 18.1379 4.89031 18.1983 4.91933C18.2587 4.94835 18.3097 4.99385 18.3454 5.05058C18.3811 5.10732 18.4 5.17299 18.4 5.24001Z" fill="#2D629B"/>
<path d="M16.7999 22.9H14.7999C14.6938 22.9 14.5921 22.8579 14.5171 22.7829C14.442 22.7079 14.3999 22.6061 14.3999 22.5C14.3999 22.394 14.442 22.2922 14.5171 22.2172C14.5921 22.1422 14.6938 22.1 14.7999 22.1H16.7999C16.906 22.1 17.0077 22.1422 17.0827 22.2172C17.1578 22.2922 17.1999 22.394 17.1999 22.5C17.1999 22.6061 17.1578 22.7079 17.0827 22.7829C17.0077 22.8579 16.906 22.9 16.7999 22.9ZM13.1999 22.9H6.7999C6.69382 22.9 6.59207 22.8579 6.51706 22.7829C6.44204 22.7079 6.3999 22.6061 6.3999 22.5C6.3999 22.394 6.44204 22.2922 6.51706 22.2172C6.59207 22.1422 6.69382 22.1 6.7999 22.1H13.1999C13.306 22.1 13.4077 22.1422 13.4827 22.2172C13.5578 22.2922 13.5999 22.394 13.5999 22.5C13.5999 22.6061 13.5578 22.7079 13.4827 22.7829C13.4077 22.8579 13.306 22.9 13.1999 22.9Z" fill="#B7B7B7"/>
<path d="M13.5999 11.7H11.9999C11.8938 11.7 11.792 11.6579 11.717 11.5829C11.642 11.5079 11.5999 11.4061 11.5999 11.3C11.5999 11.1939 11.642 11.0922 11.717 11.0172C11.792 10.9422 11.8938 10.9 11.9999 10.9H13.5999C13.7059 10.9 13.8077 10.9422 13.8827 11.0172C13.9577 11.0922 13.9999 11.1939 13.9999 11.3C13.9999 11.4061 13.9577 11.5079 13.8827 11.5829C13.8077 11.6579 13.7059 11.7 13.5999 11.7Z" fill="#C19D85"/>
<path d="M10.7999 8.49999C10.6938 8.49999 10.5921 8.45785 10.5171 8.38283C10.442 8.30782 10.3999 8.20607 10.3999 8.09999V7.69999C10.3999 7.5939 10.442 7.49216 10.5171 7.41714C10.5921 7.34213 10.6938 7.29999 10.7999 7.29999C10.906 7.29999 11.0077 7.34213 11.0827 7.41714C11.1578 7.49216 11.1999 7.5939 11.1999 7.69999V8.09999C11.1999 8.20607 11.1578 8.30782 11.0827 8.38283C11.0077 8.45785 10.906 8.49999 10.7999 8.49999ZM14.7999 8.49999C14.6938 8.49999 14.5921 8.45785 14.5171 8.38283C14.442 8.30782 14.3999 8.20607 14.3999 8.09999V7.69999C14.3999 7.5939 14.442 7.49216 14.5171 7.41714C14.5921 7.34213 14.6938 7.29999 14.7999 7.29999C14.906 7.29999 15.0077 7.34213 15.0827 7.41714C15.1578 7.49216 15.1999 7.5939 15.1999 7.69999V8.09999C15.1999 8.20607 15.1578 8.30782 15.0827 8.38283C15.0077 8.45785 14.906 8.49999 14.7999 8.49999Z" fill="white"/>
</g>
<defs>
<clipPath id="clip0_52_11084">
<rect width="24" height="24" fill="white" transform="translate(0 0.5)"/>
</clipPath>
</defs>
</svg>
