<svg width="32" height="32" viewBox="0 0 32 32" fill="none" xmlns="http://www.w3.org/2000/svg">
<path d="M19.4836 27.5472H4.99911C2.87383 27.5472 1.15308 25.8264 1.15308 23.7011V23.6951C1.15308 21.5698 2.87383 19.8491 4.99911 19.8491H19.4836C17.3584 19.8491 15.6376 21.5698 15.6376 23.6951V23.7011C15.6376 25.8264 17.3584 27.5472 19.4836 27.5472Z" fill="#F05543"/>
<path d="M19.4836 27.5472H4.99911C2.87383 27.5472 1.15308 25.8264 1.15308 23.7011V23.6951C1.15308 22.5359 1.66025 21.5034 2.4693 20.797C2.29421 21.2317 2.1976 21.7087 2.1976 22.2038V22.2098C2.1976 24.3351 3.91836 26.0559 6.04364 26.0559H16.4527C16.8083 26.5218 17.2671 26.8989 17.793 27.1576C18.3188 27.4164 18.8975 27.5497 19.4836 27.5472Z" fill="#E24B40"/>
<path d="M16.8573 23.9559C16.9853 25.3295 18.2158 26.3396 19.5954 26.3396H30.243C30.4031 26.3396 30.5567 26.4032 30.6699 26.5165C30.7831 26.6297 30.8468 26.7833 30.8468 26.9434C30.8468 27.1035 30.7831 27.2571 30.6699 27.3703C30.5567 27.4836 30.4031 27.5472 30.243 27.5472H19.4837C18.4637 27.5472 17.4854 27.142 16.7642 26.4207C16.0429 25.6994 15.6377 24.7212 15.6377 23.7011V23.6951C15.6377 22.6751 16.0429 21.6968 16.7642 20.9755C17.4854 20.2543 18.4637 19.8491 19.4837 19.8491H30.243C30.4031 19.8491 30.5567 19.9127 30.6699 20.0259C30.7831 20.1391 30.8468 20.2927 30.8468 20.4528C30.8468 20.613 30.7831 20.7665 30.6699 20.8798C30.5567 20.993 30.4031 21.0566 30.243 21.0566H19.4837C19.1154 21.0572 18.7513 21.1348 18.4147 21.2844C18.0781 21.434 17.7765 21.6523 17.5292 21.9253C17.2819 22.1983 17.0944 22.5199 16.9787 22.8696C16.863 23.2193 16.8216 23.5893 16.8573 23.9559Z" fill="#FC6559"/>
<path d="M29.7697 21.0566V26.3396H19.4838C18.7832 26.3396 18.1113 26.0613 17.616 25.5659C17.1206 25.0706 16.8423 24.3987 16.8423 23.6981C16.8423 22.9975 17.1206 22.3257 17.616 21.8303C18.1113 21.3349 18.7832 21.0566 19.4838 21.0566H29.7697Z" fill="#E4E3FF"/>
<path d="M29.772 21.0566V21.8355H20.1237C18.6686 21.8355 17.4852 23.0189 17.4852 24.48C17.4852 24.9389 17.5999 25.3676 17.8052 25.7359C17.3864 25.3895 17.0846 24.9225 16.9408 24.3984C16.7971 23.8743 16.8184 23.3186 17.0019 22.807C17.1854 22.2955 17.5221 21.8529 17.9662 21.5397C18.4104 21.2265 18.9402 21.0578 19.4837 21.0566H29.772Z" fill="#D0D0F7"/>
<path d="M27.7688 24.151H20.5253C20.4052 24.151 20.2901 24.1033 20.2051 24.0183C20.1202 23.9334 20.0725 23.8182 20.0725 23.6981C20.0725 23.578 20.1202 23.4629 20.2051 23.3779C20.2901 23.293 20.4052 23.2453 20.5253 23.2453H27.7688C27.8889 23.2453 28.0041 23.293 28.089 23.3779C28.1739 23.4629 28.2216 23.578 28.2216 23.6981C28.2216 23.8182 28.1739 23.9334 28.089 24.0183C28.0041 24.1033 27.8889 24.151 27.7688 24.151Z" fill="#D0D0F7"/>
<path d="M14.1765 19.8491H25.3403C27.4656 19.8491 29.1863 18.1283 29.1863 16.003V15.997C29.1863 13.8717 27.4656 12.151 25.3403 12.151H14.1765C16.3018 12.151 18.0226 13.8717 18.0226 15.997V16.003C18.0226 18.1283 16.3018 19.8491 14.1765 19.8491Z" fill="#7979F7"/>
<path d="M14.1765 19.849H25.3403C27.4656 19.849 29.1863 18.1283 29.1863 16.003V15.997C29.1863 14.8377 28.6792 13.8053 27.8701 13.0988C28.0452 13.5336 28.1418 14.0105 28.1418 14.5056V14.5117C28.1418 16.637 26.421 18.3577 24.2958 18.3577H17.2075C16.8518 18.8236 16.3931 19.2007 15.8672 19.4595C15.3413 19.7182 14.7626 19.8516 14.1765 19.849Z" fill="#5E5EEF"/>
<path d="M16.8029 16.2578C16.6749 17.6314 15.4444 18.6415 14.0648 18.6415H3.41725C3.25712 18.6415 3.10355 18.7051 2.99032 18.8184C2.87709 18.9316 2.81348 19.0852 2.81348 19.2453C2.81348 19.4054 2.87709 19.559 2.99032 19.6722C3.10355 19.7855 3.25712 19.8491 3.41725 19.8491H14.1765C14.6816 19.8491 15.1817 19.7496 15.6483 19.5563C16.1149 19.363 16.5389 19.0797 16.8961 18.7226C17.2532 18.3655 17.5365 17.9415 17.7298 17.4748C17.9231 17.0082 18.0225 16.5081 18.0225 16.003V15.997C18.0225 15.4919 17.9231 14.9918 17.7298 14.5252C17.5365 14.0586 17.2532 13.6346 16.8961 13.2774C16.5389 12.9203 16.1149 12.637 15.6483 12.4437C15.1817 12.2504 14.6816 12.151 14.1765 12.151H3.41725C3.25712 12.151 3.10355 12.2146 2.99032 12.3278C2.87709 12.441 2.81348 12.5946 2.81348 12.7547C2.81348 12.9149 2.87709 13.0684 2.99032 13.1817C3.10355 13.2949 3.25712 13.3585 3.41725 13.3585H14.1765C14.5448 13.3591 14.909 13.4367 15.2456 13.5863C15.5822 13.7359 15.8838 13.9542 16.1311 14.2272C16.3783 14.5002 16.5658 14.8218 16.6815 15.1715C16.7972 15.5212 16.8386 15.8912 16.8029 16.2578Z" fill="#A2A2F9"/>
<path d="M3.89087 13.3585V18.6415H14.1768C14.8773 18.6415 15.5492 18.3632 16.0446 17.8678C16.54 17.3725 16.8183 16.7006 16.8183 16C16.8183 15.2994 16.54 14.6276 16.0446 14.1322C15.5492 13.6368 14.8773 13.3585 14.1768 13.3585H3.89087Z" fill="#E4E3FF"/>
<path d="M3.88818 13.3585V14.1374H13.5365C14.9916 14.1374 16.175 15.3208 16.175 16.7819C16.175 17.2408 16.0603 17.6694 15.855 18.0378C16.2738 17.6914 16.5756 17.2244 16.7194 16.7003C16.8631 16.1761 16.8418 15.6205 16.6583 15.1089C16.4748 14.5974 16.1381 14.1548 15.694 13.8416C15.2498 13.5284 14.7199 13.3597 14.1765 13.3585H3.88818Z" fill="#D0D0F7"/>
<path d="M13.1347 16.4528H5.8918C5.7717 16.4528 5.65652 16.4051 5.5716 16.3202C5.48667 16.2353 5.43896 16.1201 5.43896 16C5.43896 15.8799 5.48667 15.7647 5.5716 15.6798C5.65652 15.5949 5.7717 15.5472 5.8918 15.5472H13.1347C13.2548 15.5472 13.3699 15.5949 13.4549 15.6798C13.5398 15.7647 13.5875 15.8799 13.5875 16C13.5875 16.1201 13.5398 16.2353 13.4549 16.3202C13.3699 16.4051 13.2548 16.4528 13.1347 16.4528Z" fill="#D0D0F7"/>
<path d="M17.0173 12.1509H7.66489C5.5396 12.1509 3.81885 10.4302 3.81885 8.30491V8.29887C3.81885 6.17359 5.5396 4.45284 7.66489 4.45284H17.0173C14.8921 4.45284 13.1713 6.17359 13.1713 8.29887V8.30491C13.1713 10.4302 14.8921 12.1509 17.0173 12.1509Z" fill="#F9B938"/>
<path d="M17.0173 12.1509H7.66489C5.5396 12.1509 3.81885 10.4302 3.81885 8.30488V8.29884C3.81885 7.13959 4.32602 6.10714 5.13507 5.40073C4.95998 5.83544 4.86338 6.31242 4.86338 6.80752V6.81356C4.86338 8.93884 6.58413 10.6596 8.70941 10.6596H13.9864C14.342 11.1255 14.8008 11.5026 15.3267 11.7614C15.8525 12.0201 16.4312 12.1535 17.0173 12.1509Z" fill="#E5A320"/>
<path d="M14.2914 8.5597C14.4194 9.93329 15.6499 10.9434 17.0295 10.9434H27.6771C27.8372 10.9434 27.9908 11.007 28.104 11.1202C28.2172 11.2335 28.2808 11.387 28.2808 11.5472C28.2808 11.7073 28.2172 11.8609 28.104 11.9741C27.9908 12.0873 27.8372 12.1509 27.6771 12.1509H16.9178C15.8978 12.1509 14.9195 11.7457 14.1983 11.0245C13.477 10.3032 13.0718 9.32494 13.0718 8.30491V8.29887C13.0718 7.27884 13.477 6.30059 14.1983 5.57931C14.9195 4.85804 15.8978 4.45284 16.9178 4.45284H27.6771C27.8372 4.45284 27.9908 4.51645 28.104 4.62968C28.2172 4.74291 28.2808 4.89648 28.2808 5.05661C28.2808 5.21674 28.2172 5.37031 28.104 5.48354C27.9908 5.59677 27.8372 5.66038 27.6771 5.66038H16.9178C16.5495 5.66101 16.1853 5.7386 15.8488 5.8882C15.5122 6.03779 15.2105 6.25608 14.9633 6.52906C14.716 6.80205 14.5285 7.1237 14.4128 7.47339C14.2971 7.82309 14.2557 8.1931 14.2914 8.5597Z" fill="#ECB021"/>
<path d="M27.2038 5.66039V10.9434H16.9179C16.2173 10.9434 15.5454 10.6651 15.05 10.1697C14.5547 9.67434 14.2764 9.00247 14.2764 8.30189C14.2764 7.60132 14.5547 6.92944 15.05 6.43407C15.5454 5.93869 16.2173 5.66039 16.9179 5.66039H27.2038Z" fill="#E4E3FF"/>
<path d="M27.2061 5.66039V6.43925H17.5578C16.1027 6.43925 14.9193 7.62265 14.9193 9.08378C14.9193 9.54265 15.034 9.97133 15.2393 10.3396C14.8205 9.99328 14.5186 9.52624 14.3749 9.00214C14.2311 8.47803 14.2525 7.92235 14.436 7.4108C14.6195 6.89925 14.9562 6.45671 15.4003 6.14348C15.8444 5.83025 16.3743 5.66156 16.9178 5.66039H27.2061Z" fill="#D0D0F7"/>
<path d="M25.2029 8.75472H17.9594C17.8393 8.75472 17.7241 8.70701 17.6392 8.62209C17.5543 8.53717 17.5066 8.42199 17.5066 8.30189C17.5066 8.18179 17.5543 8.06661 17.6392 7.98169C17.7241 7.89677 17.8393 7.84906 17.9594 7.84906H25.2029C25.323 7.84906 25.4382 7.89677 25.5231 7.98169C25.608 8.06661 25.6557 8.18179 25.6557 8.30189C25.6557 8.42199 25.608 8.53717 25.5231 8.62209C25.4382 8.70701 25.323 8.75472 25.2029 8.75472Z" fill="#D0D0F7"/>
</svg>
