<svg width="32" height="32" viewBox="0 0 32 32" fill="none" xmlns="http://www.w3.org/2000/svg">
<path d="M22.6665 24V28C22.6665 28.3536 22.807 28.6928 23.057 28.9428C23.3071 29.1929 23.6462 29.3333 23.9998 29.3333H29.3332C29.6868 29.3333 30.0259 29.1929 30.276 28.9428C30.526 28.6928 30.6665 28.3536 30.6665 28V24H22.6665Z" fill="#333333"/>
<path d="M27.2094 4.61996C27.0534 4.05831 26.7178 3.56322 26.2538 3.21045C25.7898 2.85768 25.2229 2.66666 24.64 2.66663H7.23204C6.66359 2.66629 6.10992 2.84761 5.65179 3.18413C5.19366 3.52065 4.85505 3.99476 4.68537 4.53729L1.52271 14.6666H30L27.2094 4.61996Z" fill="#E83628"/>
<path opacity="0.2" d="M7.13214 2.99996H24.7441C25.8735 2.99996 26.8481 3.70929 27.2428 4.73729L27.2095 4.61996C27.0535 4.05831 26.7179 3.56322 26.2539 3.21045C25.7899 2.85768 25.223 2.66666 24.6401 2.66663H7.23214C6.66369 2.66629 6.11001 2.84761 5.65189 3.18413C5.19376 3.52065 4.85515 3.99476 4.68547 4.53729L4.6228 4.73863C4.81497 4.22798 5.1582 3.78803 5.60675 3.47741C6.0553 3.16678 6.58653 3.00023 7.13214 2.99996Z" fill="white"/>
<path d="M1.3335 24V28C1.3335 28.3536 1.47397 28.6928 1.72402 28.9428C1.97407 29.1929 2.31321 29.3333 2.66683 29.3333H8.00016C8.35379 29.3333 8.69292 29.1929 8.94297 28.9428C9.19302 28.6928 9.3335 28.3536 9.3335 28V24H1.3335Z" fill="#333333"/>
<path opacity="0.2" d="M8.00016 29H2.66683C2.31321 29 1.97407 28.8595 1.72402 28.6094C1.47397 28.3594 1.3335 28.0202 1.3335 27.6666V28C1.3335 28.3536 1.47397 28.6927 1.72402 28.9428C1.97407 29.1928 2.31321 29.3333 2.66683 29.3333H8.00016C8.35378 29.3333 8.69292 29.1928 8.94297 28.9428C9.19302 28.6927 9.3335 28.3536 9.3335 28V27.6666C9.3335 28.0202 9.19302 28.3594 8.94297 28.6094C8.69292 28.8595 8.35378 29 8.00016 29ZM29.3335 29H24.0002C23.6465 29 23.3074 28.8595 23.0574 28.6094C22.8073 28.3594 22.6668 28.0202 22.6668 27.6666V28C22.6668 28.3536 22.8073 28.6927 23.0574 28.9428C23.3074 29.1928 23.6465 29.3333 24.0002 29.3333H29.3335C29.6871 29.3333 30.0263 29.1928 30.2763 28.9428C30.5264 28.6927 30.6668 28.3536 30.6668 28V27.6666C30.6668 28.0202 30.5264 28.3594 30.2763 28.6094C30.0263 28.8595 29.6871 29 29.3335 29Z" fill="black"/>
<path d="M0 16V22.6667C0 23.374 0.280952 24.0522 0.781049 24.5523C1.28115 25.0524 1.95942 25.3334 2.66667 25.3334H29.3333C30.0406 25.3334 30.7189 25.0524 31.219 24.5523C31.719 24.0522 32 23.374 32 22.6667V16C32 15.2928 31.719 14.6145 31.219 14.1144C30.7189 13.6143 30.0406 13.3334 29.3333 13.3334H2.66667C1.95942 13.3334 1.28115 13.6143 0.781049 14.1144C0.280952 14.6145 0 15.2928 0 16Z" fill="#E83628"/>
<path opacity="0.1" d="M29.3333 25H2.66667C1.95942 25 1.28115 24.7191 0.781049 24.219C0.280952 23.7189 0 23.0406 0 22.3334V22.6667C0 23.374 0.280952 24.0522 0.781049 24.5523C1.28115 25.0524 1.95942 25.3334 2.66667 25.3334H29.3333C30.0406 25.3334 30.7189 25.0524 31.219 24.5523C31.719 24.0522 32 23.374 32 22.6667V22.3334C32 23.0406 31.719 23.7189 31.219 24.219C30.7189 24.7191 30.0406 25 29.3333 25Z" fill="black"/>
<path opacity="0.2" d="M29.3333 13.3334H2.66667C1.95942 13.3334 1.28115 13.6143 0.781049 14.1144C0.280952 14.6145 0 15.2928 0 16L0 16.3334C0 15.6261 0.280952 14.9479 0.781049 14.4478C1.28115 13.9477 1.95942 13.6667 2.66667 13.6667H29.3333C30.0406 13.6667 30.7189 13.9477 31.219 14.4478C31.719 14.9479 32 15.6261 32 16.3334V16C32 15.2928 31.719 14.6145 31.219 14.1144C30.7189 13.6143 30.0406 13.3334 29.3333 13.3334Z" fill="white"/>
<path d="M10.6665 17.3334H21.3332V18.6667H10.6665V17.3334Z" fill="#4D4D4D"/>
<path opacity="0.1" d="M10.6665 17.3334H21.3332V17.6667H10.6665V17.3334Z" fill="black"/>
<path d="M10.6665 20H21.3332V21.3333H10.6665V20Z" fill="#4D4D4D"/>
<path d="M24.6642 4H7.23083C6.94652 3.99988 6.66962 4.09063 6.44055 4.25902C6.21147 4.42741 6.04222 4.66461 5.9575 4.936L3.3335 13.3333H28.1868L25.9522 4.988C25.8761 4.70452 25.7087 4.45404 25.4758 4.2754C25.243 4.09677 24.9577 3.99996 24.6642 4Z" fill="#97C6D5"/>
<path opacity="0.1" d="M5.9575 5.26933C6.04222 4.99794 6.21147 4.76074 6.44055 4.59235C6.66962 4.42397 6.94652 4.33321 7.23083 4.33333H24.6642C24.9577 4.3333 25.243 4.4301 25.4758 4.60874C25.7087 4.78737 25.8761 5.03785 25.9522 5.32133L28.0988 13.3333H28.1882L25.9522 4.988C25.8761 4.70452 25.7087 4.45404 25.4758 4.2754C25.243 4.09677 24.9577 3.99996 24.6642 4H7.23083C6.94652 3.99988 6.66962 4.09063 6.44055 4.25902C6.21147 4.42741 6.04222 4.66461 5.9575 4.936L3.3335 13.3333H3.4375L5.9575 5.26933Z" fill="black"/>
<path d="M24.6642 4H7.23083C6.94652 3.99988 6.66962 4.09063 6.44055 4.25902C6.21147 4.42741 6.04222 4.66461 5.9575 4.936L3.3335 13.3333H28.1868L25.9522 4.988C25.8761 4.70452 25.7087 4.45404 25.4758 4.2754C25.243 4.09677 24.9577 3.99996 24.6642 4Z" fill="url(#paint0_linear_34_2362)"/>
<path d="M5.99984 22.6667C7.84079 22.6667 9.33317 21.1743 9.33317 19.3333C9.33317 17.4924 7.84079 16 5.99984 16C4.15889 16 2.6665 17.4924 2.6665 19.3333C2.6665 21.1743 4.15889 22.6667 5.99984 22.6667Z" fill="#F2F2F2"/>
<path d="M25.9998 22.6667C27.8408 22.6667 29.3332 21.1743 29.3332 19.3333C29.3332 17.4924 27.8408 16 25.9998 16C24.1589 16 22.6665 17.4924 22.6665 19.3333C22.6665 21.1743 24.1589 22.6667 25.9998 22.6667Z" fill="#F2F2F2"/>
<path d="M26 21.3334C27.1046 21.3334 28 20.4379 28 19.3334C28 18.2288 27.1046 17.3334 26 17.3334C24.8954 17.3334 24 18.2288 24 19.3334C24 20.4379 24.8954 21.3334 26 21.3334Z" fill="white"/>
<path d="M6 21.3334C7.10457 21.3334 8 20.4379 8 19.3334C8 18.2288 7.10457 17.3334 6 17.3334C4.89543 17.3334 4 18.2288 4 19.3334C4 20.4379 4.89543 21.3334 6 21.3334Z" fill="white"/>
<path opacity="0.1" d="M10.6665 20H21.3332V20.3333H10.6665V20Z" fill="black"/>
<path d="M1.35483 24.9746H1.3335L5.69083 29.3333H8.00016C8.35379 29.3333 8.69292 29.1928 8.94297 28.9428C9.19302 28.6927 9.3335 28.3536 9.3335 27.9999V25.3333H2.66683C2.18683 25.3333 1.74283 25.1959 1.35483 24.9746Z" fill="url(#paint1_linear_34_2362)"/>
<path d="M29.3332 25.3333H22.6665L26.6665 29.3333H29.3332C29.6868 29.3333 30.0259 29.1928 30.276 28.9428C30.526 28.6928 30.6665 28.3536 30.6665 28V24.964C30.2628 25.2034 29.8025 25.3309 29.3332 25.3333Z" fill="url(#paint2_linear_34_2362)"/>
<path d="M8.35604 16.9773C8.96004 17.5813 9.33338 18.4146 9.33338 19.3333C9.33338 21.172 7.83738 22.6666 6.00004 22.6666C5.08004 22.6666 4.24804 22.2933 3.64404 21.6893L7.28404 25.3333H16.7134L8.35604 16.9773Z" fill="url(#paint3_linear_34_2362)"/>
<path d="M31.9999 22.6666V20.62L28.3572 16.976L28.3559 16.9773C28.9586 17.5813 29.3332 18.4146 29.3332 19.3333C29.3332 21.172 27.8372 22.6666 25.9999 22.6666C25.0799 22.6666 24.2479 22.2933 23.6439 21.6893L27.2852 25.3333H29.3332C30.0405 25.3333 30.7188 25.0523 31.2189 24.5522C31.719 24.0521 31.9999 23.3739 31.9999 22.6666Z" fill="url(#paint4_linear_34_2362)"/>
<path d="M29.6387 13.364L27.2093 4.61996C27.0534 4.05831 26.7178 3.56322 26.2537 3.21045C25.7897 2.85768 25.2229 2.66666 24.64 2.66663H7.232C6.66356 2.66629 6.10988 2.84761 5.65175 3.18413C5.19362 3.52065 4.85501 3.99476 4.68533 4.53729L1.89867 13.4586C1.35101 13.6218 0.870534 13.9571 0.528516 14.4149C0.186499 14.8727 0.00116136 15.4285 0 16L0 22.6666C0 23.6506 0.54 24.5013 1.33333 24.964V28C1.33333 28.3536 1.47381 28.6927 1.72386 28.9428C1.97391 29.1928 2.31304 29.3333 2.66667 29.3333H8C8.35362 29.3333 8.69276 29.1928 8.94281 28.9428C9.19286 28.6927 9.33333 28.3536 9.33333 28V25.3333H22.6667V28C22.6667 28.3536 22.8071 28.6927 23.0572 28.9428C23.3072 29.1928 23.6464 29.3333 24 29.3333H29.3333C29.687 29.3333 30.0261 29.1928 30.2761 28.9428C30.5262 28.6927 30.6667 28.3536 30.6667 28V24.964C31.46 24.5013 32 23.6506 32 22.6666V16C31.9988 15.3473 31.7575 14.7178 31.322 14.2317C30.8865 13.7455 30.2873 13.4367 29.6387 13.364Z" fill="url(#paint5_linear_34_2362)"/>
<defs>
<linearGradient id="paint0_linear_34_2362" x1="5.98016" y1="4.85867" x2="27.4668" y2="14.8787" gradientUnits="userSpaceOnUse">
<stop stop-color="white" stop-opacity="0.4"/>
<stop offset="1" stop-color="white" stop-opacity="0"/>
</linearGradient>
<linearGradient id="paint1_linear_34_2362" x1="3.5495" y1="23.3706" x2="8.13216" y2="27.9533" gradientUnits="userSpaceOnUse">
<stop stop-opacity="0.1"/>
<stop offset="1" stop-opacity="0"/>
</linearGradient>
<linearGradient id="paint2_linear_34_2362" x1="25.0558" y1="23.5373" x2="29.4958" y2="27.9773" gradientUnits="userSpaceOnUse">
<stop stop-opacity="0.1"/>
<stop offset="1" stop-opacity="0"/>
</linearGradient>
<linearGradient id="paint3_linear_34_2362" x1="6.44138" y1="19.7746" x2="13.0574" y2="26.3906" gradientUnits="userSpaceOnUse">
<stop stop-opacity="0.1"/>
<stop offset="1" stop-opacity="0"/>
</linearGradient>
<linearGradient id="paint4_linear_34_2362" x1="26.2746" y1="19.6093" x2="30.4066" y2="23.7413" gradientUnits="userSpaceOnUse">
<stop stop-opacity="0.1"/>
<stop offset="1" stop-opacity="0"/>
</linearGradient>
<linearGradient id="paint5_linear_34_2362" x1="1.90267" y1="10.452" x2="32.364" y2="24.656" gradientUnits="userSpaceOnUse">
<stop stop-color="white" stop-opacity="0.2"/>
<stop offset="1" stop-color="white" stop-opacity="0"/>
</linearGradient>
</defs>
</svg>
