<svg width="40" height="36" viewBox="0 0 40 36" fill="none" xmlns="http://www.w3.org/2000/svg">
<g filter="url(#filter0_dd_44_2690)">
<path d="M4.05509 9.7975C4.00019 9.59453 3.98614 9.38282 4.01376 9.17447C4.04137 8.96611 4.11011 8.76519 4.21604 8.58318C4.32197 8.40117 4.46301 8.24164 4.63112 8.11369C4.79923 7.98575 4.99111 7.8919 5.1958 7.8375L17.6638 4.52549C17.8684 4.47104 18.0819 4.45711 18.292 4.4845C18.5022 4.51188 18.7048 4.58005 18.8883 4.68509C19.0718 4.79014 19.2327 4.93001 19.3617 5.09672C19.4908 5.26343 19.5854 5.45371 19.6403 5.65669L24.65 24.2023C24.7609 24.6122 24.7032 25.0489 24.4894 25.4164C24.2756 25.784 23.9234 26.0523 23.5101 26.1624L11.0422 29.4744C10.8375 29.5288 10.624 29.5427 10.4139 29.5154C10.2038 29.488 10.0012 29.4198 9.81763 29.3148C9.63409 29.2097 9.47321 29.0698 9.34419 28.9031C9.21517 28.7364 9.12053 28.5461 9.06567 28.3432L4.05509 9.7975Z" fill="white" fill-opacity="0.8"/>
</g>
<g filter="url(#filter1_dd_44_2690)">
<path d="M20.3607 5.65584C20.4716 5.24622 20.7421 4.89705 21.1125 4.68508C21.483 4.47311 21.9232 4.41569 22.3363 4.52544L34.8043 7.83745C35.009 7.89185 35.2009 7.9857 35.369 8.11364C35.5371 8.24159 35.6781 8.40112 35.7841 8.58313C35.89 8.76514 35.9587 8.96606 35.9864 9.17442C36.014 9.38277 35.9999 9.59448 35.945 9.79745L30.9336 28.3439C30.8788 28.5469 30.7841 28.7372 30.6551 28.9039C30.5261 29.0706 30.3652 29.2105 30.1817 29.3155C29.9981 29.4206 29.7955 29.4887 29.5854 29.5161C29.3753 29.5435 29.1618 29.5296 28.9572 29.4751L16.49 26.1631C16.2853 26.1087 16.0934 26.0149 15.9253 25.8869C15.7572 25.759 15.6162 25.5994 15.5102 25.4174C15.4043 25.2354 15.3356 25.0345 15.3079 24.8261C15.2803 24.6178 15.2944 24.4061 15.3493 24.2031L20.3599 5.65744L20.3607 5.65584Z" fill="white" fill-opacity="0.8"/>
</g>
<g filter="url(#filter2_dd_44_2690)">
<path d="M14.2863 3.91994C14.3249 3.60706 14.4253 3.3048 14.5818 3.03041C14.7382 2.75603 14.9476 2.51489 15.1981 2.32077C15.4485 2.12665 15.7351 1.98336 16.0413 1.89907C16.3476 1.81478 16.6677 1.79115 16.9832 1.82953L31.3961 3.58474C32.0332 3.66232 32.6131 3.98766 33.0082 4.4892C33.4034 4.99074 33.5815 5.6274 33.5033 6.25914L30.5539 30.0808C30.4757 30.7126 30.1476 31.2876 29.6419 31.6795C29.1361 32.0713 28.4941 32.2479 27.857 32.1704L13.444 30.4152C12.807 30.3376 12.2271 30.0123 11.832 29.5108C11.4368 29.0092 11.2587 28.3726 11.3369 27.7408L14.2863 3.91994Z" fill="#E9E9E9"/>
</g>
<g filter="url(#filter3_dd_44_2690)">
<path d="M6.4963 6.25916C6.41813 5.62742 6.59621 4.99076 6.99138 4.48922C7.38654 3.98768 7.96642 3.66234 8.60347 3.58476L23.0165 1.82955C23.6535 1.75203 24.2955 1.92863 24.8013 2.32051C25.307 2.71238 25.6351 3.28742 25.7133 3.91916L28.6627 27.7408C28.7409 28.3726 28.5628 29.0092 28.1677 29.5108C27.7725 30.0123 27.1926 30.3377 26.5556 30.4152L12.1434 32.1704C11.8278 32.2089 11.5077 32.1854 11.2013 32.1012C10.895 32.0169 10.6083 31.8736 10.3578 31.6795C10.1073 31.4854 9.89777 31.2442 9.74127 30.9698C9.58476 30.6953 9.48433 30.393 9.44569 30.08L6.4963 6.25916Z" fill="#E9E9E9"/>
</g>
<g filter="url(#filter4_dd_44_2690)">
<path d="M9.5127 4.19992C9.5127 3.35122 9.85267 2.53729 10.4578 1.93717C11.063 1.33705 11.8838 0.999908 12.7396 0.999908H27.2607C28.1165 0.999908 28.9373 1.33705 29.5425 1.93717C30.1476 2.53729 30.4876 3.35122 30.4876 4.19992V29.8C30.4876 30.6487 30.1476 31.4626 29.5425 32.0627C28.9373 32.6629 28.1165 33 27.2607 33H12.7396C11.8838 33 11.063 32.6629 10.4578 32.0627C9.85267 31.4626 9.5127 30.6487 9.5127 29.8V4.19992Z" fill="white"/>
</g>
<path d="M12.5112 19.8001C12.5112 19.5879 12.5962 19.3844 12.7475 19.2344C12.8988 19.0843 13.104 19.0001 13.318 19.0001H26.2256C26.4395 19.0001 26.6447 19.0843 26.796 19.2344C26.9473 19.3844 27.0323 19.5879 27.0323 19.8001C27.0323 20.0122 26.9473 20.2157 26.796 20.3658C26.6447 20.5158 26.4395 20.6001 26.2256 20.6001H13.318C13.104 20.6001 12.8988 20.5158 12.7475 20.3658C12.5962 20.2157 12.5112 20.0122 12.5112 19.8001Z" fill="#E0E0E0" fill-opacity="0.8"/>
<path d="M12.5112 29C12.5112 28.7878 12.5962 28.5843 12.7475 28.4343C12.8988 28.2842 13.104 28.2 13.318 28.2H26.2256C26.4395 28.2 26.6447 28.2842 26.796 28.4343C26.9473 28.5843 27.0323 28.7878 27.0323 29C27.0323 29.2121 26.9473 29.4156 26.796 29.5656C26.6447 29.7157 26.4395 29.8 26.2256 29.8H13.318C13.104 29.8 12.8988 29.7157 12.7475 29.5656C12.5962 29.4156 12.5112 29.2121 12.5112 29Z" fill="#E0E0E0" fill-opacity="0.8"/>
<path d="M12.5112 24.4C12.5112 24.1878 12.5962 23.9844 12.7475 23.8343C12.8988 23.6843 13.104 23.6 13.318 23.6H26.2256C26.4395 23.6 26.6447 23.6843 26.796 23.8343C26.9473 23.9844 27.0323 24.1878 27.0323 24.4C27.0323 24.6122 26.9473 24.8157 26.796 24.9657C26.6447 25.1157 26.4395 25.2 26.2256 25.2H13.318C13.104 25.2 12.8988 25.1157 12.7475 24.9657C12.5962 24.8157 12.5112 24.6122 12.5112 24.4Z" fill="#E0E0E0" fill-opacity="0.8"/>
<defs>
<filter id="filter0_dd_44_2690" x="0.8" y="3.67086" width="27.1051" height="31.4581" filterUnits="userSpaceOnUse" color-interpolation-filters="sRGB">
<feFlood flood-opacity="0" result="BackgroundImageFix"/>
<feColorMatrix in="SourceAlpha" type="matrix" values="0 0 0 0 0 0 0 0 0 0 0 0 0 0 0 0 0 0 127 0" result="hardAlpha"/>
<feOffset dy="2.4"/>
<feGaussianBlur stdDeviation="1.6"/>
<feColorMatrix type="matrix" values="0 0 0 0 0 0 0 0 0 0 0 0 0 0 0 0 0 0 0.2 0"/>
<feBlend mode="normal" in2="BackgroundImageFix" result="effect1_dropShadow_44_2690"/>
<feColorMatrix in="SourceAlpha" type="matrix" values="0 0 0 0 0 0 0 0 0 0 0 0 0 0 0 0 0 0 127 0" result="hardAlpha"/>
<feOffset dy="0.8"/>
<feGaussianBlur stdDeviation="0.8"/>
<feColorMatrix type="matrix" values="0 0 0 0 0 0 0 0 0 0 0 0 0 0 0 0 0 0 0.1 0"/>
<feBlend mode="normal" in2="effect1_dropShadow_44_2690" result="effect2_dropShadow_44_2690"/>
<feBlend mode="normal" in="SourceGraphic" in2="effect2_dropShadow_44_2690" result="shape"/>
</filter>
<filter id="filter1_dd_44_2690" x="12.0942" y="3.67095" width="27.1058" height="31.4588" filterUnits="userSpaceOnUse" color-interpolation-filters="sRGB">
<feFlood flood-opacity="0" result="BackgroundImageFix"/>
<feColorMatrix in="SourceAlpha" type="matrix" values="0 0 0 0 0 0 0 0 0 0 0 0 0 0 0 0 0 0 127 0" result="hardAlpha"/>
<feOffset dy="2.4"/>
<feGaussianBlur stdDeviation="1.6"/>
<feColorMatrix type="matrix" values="0 0 0 0 0 0 0 0 0 0 0 0 0 0 0 0 0 0 0.2 0"/>
<feBlend mode="normal" in2="BackgroundImageFix" result="effect1_dropShadow_44_2690"/>
<feColorMatrix in="SourceAlpha" type="matrix" values="0 0 0 0 0 0 0 0 0 0 0 0 0 0 0 0 0 0 127 0" result="hardAlpha"/>
<feOffset dy="0.8"/>
<feGaussianBlur stdDeviation="0.8"/>
<feColorMatrix type="matrix" values="0 0 0 0 0 0 0 0 0 0 0 0 0 0 0 0 0 0 0.1 0"/>
<feBlend mode="normal" in2="effect1_dropShadow_44_2690" result="effect2_dropShadow_44_2690"/>
<feBlend mode="normal" in="SourceGraphic" in2="effect2_dropShadow_44_2690" result="shape"/>
</filter>
<filter id="filter2_dd_44_2690" x="9.71885" y="1.01168" width="25.4024" height="33.5766" filterUnits="userSpaceOnUse" color-interpolation-filters="sRGB">
<feFlood flood-opacity="0" result="BackgroundImageFix"/>
<feColorMatrix in="SourceAlpha" type="matrix" values="0 0 0 0 0 0 0 0 0 0 0 0 0 0 0 0 0 0 127 0" result="hardAlpha"/>
<feOffset dy="0.8"/>
<feGaussianBlur stdDeviation="0.8"/>
<feColorMatrix type="matrix" values="0 0 0 0 0 0 0 0 0 0 0 0 0 0 0 0 0 0 0.2 0"/>
<feBlend mode="normal" in2="BackgroundImageFix" result="effect1_dropShadow_44_2690"/>
<feColorMatrix in="SourceAlpha" type="matrix" values="0 0 0 0 0 0 0 0 0 0 0 0 0 0 0 0 0 0 127 0" result="hardAlpha"/>
<feOffset dy="0.8"/>
<feGaussianBlur stdDeviation="0.4"/>
<feColorMatrix type="matrix" values="0 0 0 0 0 0 0 0 0 0 0 0 0 0 0 0 0 0 0.1 0"/>
<feBlend mode="normal" in2="effect1_dropShadow_44_2690" result="effect2_dropShadow_44_2690"/>
<feBlend mode="normal" in="SourceGraphic" in2="effect2_dropShadow_44_2690" result="shape"/>
</filter>
<filter id="filter3_dd_44_2690" x="4.87827" y="1.01168" width="25.4024" height="33.5767" filterUnits="userSpaceOnUse" color-interpolation-filters="sRGB">
<feFlood flood-opacity="0" result="BackgroundImageFix"/>
<feColorMatrix in="SourceAlpha" type="matrix" values="0 0 0 0 0 0 0 0 0 0 0 0 0 0 0 0 0 0 127 0" result="hardAlpha"/>
<feOffset dy="0.8"/>
<feGaussianBlur stdDeviation="0.8"/>
<feColorMatrix type="matrix" values="0 0 0 0 0 0 0 0 0 0 0 0 0 0 0 0 0 0 0.2 0"/>
<feBlend mode="normal" in2="BackgroundImageFix" result="effect1_dropShadow_44_2690"/>
<feColorMatrix in="SourceAlpha" type="matrix" values="0 0 0 0 0 0 0 0 0 0 0 0 0 0 0 0 0 0 127 0" result="hardAlpha"/>
<feOffset dy="0.8"/>
<feGaussianBlur stdDeviation="0.4"/>
<feColorMatrix type="matrix" values="0 0 0 0 0 0 0 0 0 0 0 0 0 0 0 0 0 0 0.1 0"/>
<feBlend mode="normal" in2="effect1_dropShadow_44_2690" result="effect2_dropShadow_44_2690"/>
<feBlend mode="normal" in="SourceGraphic" in2="effect2_dropShadow_44_2690" result="shape"/>
</filter>
<filter id="filter4_dd_44_2690" x="7.9127" y="0.199908" width="24.1749" height="35.2001" filterUnits="userSpaceOnUse" color-interpolation-filters="sRGB">
<feFlood flood-opacity="0" result="BackgroundImageFix"/>
<feColorMatrix in="SourceAlpha" type="matrix" values="0 0 0 0 0 0 0 0 0 0 0 0 0 0 0 0 0 0 127 0" result="hardAlpha"/>
<feOffset dy="0.8"/>
<feGaussianBlur stdDeviation="0.8"/>
<feColorMatrix type="matrix" values="0 0 0 0 0 0 0 0 0 0 0 0 0 0 0 0 0 0 0.2 0"/>
<feBlend mode="normal" in2="BackgroundImageFix" result="effect1_dropShadow_44_2690"/>
<feColorMatrix in="SourceAlpha" type="matrix" values="0 0 0 0 0 0 0 0 0 0 0 0 0 0 0 0 0 0 127 0" result="hardAlpha"/>
<feOffset dy="0.8"/>
<feGaussianBlur stdDeviation="0.4"/>
<feColorMatrix type="matrix" values="0 0 0 0 0 0 0 0 0 0 0 0 0 0 0 0 0 0 0.1 0"/>
<feBlend mode="normal" in2="effect1_dropShadow_44_2690" result="effect2_dropShadow_44_2690"/>
<feBlend mode="normal" in="SourceGraphic" in2="effect2_dropShadow_44_2690" result="shape"/>
</filter>
</defs>
</svg>
