<svg width="32" height="32" viewBox="0 0 32 32" fill="none" xmlns="http://www.w3.org/2000/svg">
<g clip-path="url(#clip0_17_2466)">
<path d="M12.8933 18.6667C12.7467 19.0933 12.6667 19.5333 12.6667 20V26.4267C11.6 26.5867 10.4667 26.6667 9.33333 26.6667C4.69333 26.6667 0 25.2933 0 22.6667V18.6667H12.8933Z" fill="#FFC107"/>
<path d="M13.68 17.3333C13.4 17.6533 13.1867 18 13.0267 18.36C12.9733 18.4533 12.9333 18.56 12.9067 18.6667H12.8933C12.7467 19.0933 12.6667 19.5333 12.6667 20V23.76C11.6 23.92 10.4667 24 9.33333 24C4.69333 24 0 22.6267 0 20V17.3333H13.68Z" fill="#FFD54F"/>
<path d="M18.6667 13.3333V14.5467C16.4267 15.1067 14.6933 16.08 13.68 17.3333C13.4 17.6533 13.1867 18 13.0267 18.36C12.9733 18.4533 12.9333 18.56 12.9067 18.6667H12.8933C12.7467 19.0933 12.6667 19.5333 12.6667 20V21.0933C11.6 21.2533 10.4667 21.3333 9.33333 21.3333C5.56 21.3333 1.73333 20.4267 0.453333 18.6667C0.16 18.2667 0 17.8267 0 17.3333V13.3333H18.6667Z" fill="#FFC107"/>
<path d="M18.6667 12V14.5467C16.4267 15.1067 14.6933 16.08 13.68 17.3333C13.4 17.6533 13.1867 18 13.0267 18.36C11.8667 18.56 10.6 18.6667 9.33333 18.6667C6.66667 18.6667 3.98667 18.2133 2.2 17.3333C0.853333 16.68 0 15.7867 0 14.6667V12H18.6667Z" fill="#FFD54F"/>
<path d="M0 8V12C0 14.6267 4.69467 16 9.33333 16C13.972 16 18.6667 14.6267 18.6667 12V8H0Z" fill="#FFC107"/>
<path d="M0 6.66666V9.33332C0 11.96 4.69467 13.3333 9.33333 13.3333C13.972 13.3333 18.6667 11.96 18.6667 9.33332V6.66666H0Z" fill="#FFD54F"/>
<path d="M0 4V6.66667C0 9.29333 4.69467 10.6667 9.33333 10.6667C13.972 10.6667 18.6667 9.29333 18.6667 6.66667V4H0Z" fill="#FFC107"/>
<path d="M18.6667 4C18.6667 6.20933 14.488 8 9.33333 8C4.17867 8 0 6.20933 0 4C0 1.79067 4.17867 0 9.33333 0C14.488 0 18.6667 1.79067 18.6667 4Z" fill="#FFD54F"/>
<path d="M14.6667 24V28C14.6667 30.6267 19.0267 32 23.3334 32C27.6401 32 32.0001 30.6267 32.0001 28V24H14.6667Z" fill="#FFC107"/>
<path d="M14.6667 22.6667V25.3333C14.6667 27.96 19.0267 29.3333 23.3334 29.3333C27.6401 29.3333 32.0001 27.96 32.0001 25.3333V22.6667H14.6667Z" fill="#FFD54F"/>
<path d="M14.6667 20V22.6667C14.6667 25.2933 19.0267 26.6667 23.3334 26.6667C27.6401 26.6667 32.0001 25.2933 32.0001 22.6667V20H14.6667Z" fill="#FFC107"/>
<path d="M32.0001 20C32.0001 22.2093 28.1201 24 23.3334 24C18.5467 24 14.6667 22.2093 14.6667 20C14.6667 17.7907 18.5467 16 23.3334 16C28.1201 16 32.0001 17.7907 32.0001 20Z" fill="#FFD54F"/>
</g>
<defs>
<clipPath id="clip0_17_2466">
<rect width="32" height="32" fill="white"/>
</clipPath>
</defs>
</svg>
