<svg width="24" height="24" viewBox="0 0 24 24" fill="none" xmlns="http://www.w3.org/2000/svg">
<g clip-path="url(#clip0_17_1149)">
<path d="M21.0525 11.0213H2.94376C1.75497 11.0213 0.79126 11.985 0.79126 13.1738V21.0975C0.79126 22.2863 1.75497 23.25 2.94376 23.25H21.0525C22.2413 23.25 23.205 22.2863 23.205 21.0975V13.1738C23.205 11.985 22.2413 11.0213 21.0525 11.0213Z" fill="#03C373"/>
<path d="M3.62622 9.07125H20.3737C20.5726 9.07125 20.7634 8.99223 20.904 8.85158C21.0447 8.71093 21.1237 8.52016 21.1237 8.32125C21.1237 8.12234 21.0447 7.93157 20.904 7.79092C20.7634 7.65027 20.5726 7.57125 20.3737 7.57125H3.62622C3.42731 7.57125 3.23654 7.65027 3.09589 7.79092C2.95524 7.93157 2.87622 8.12234 2.87622 8.32125C2.87622 8.52016 2.95524 8.71093 3.09589 8.85158C3.23654 8.99223 3.42731 9.07125 3.62622 9.07125ZM6.29622 5.5725H17.7037C17.9026 5.5725 18.0934 5.49348 18.2341 5.35283C18.3747 5.21218 18.4537 5.02141 18.4537 4.8225C18.4537 4.62359 18.3747 4.43282 18.2341 4.29217C18.0934 4.15152 17.9026 4.0725 17.7037 4.0725H6.29622C6.09731 4.0725 5.90654 4.15152 5.76589 4.29217C5.62524 4.43282 5.54622 4.62359 5.54622 4.8225C5.54622 5.02141 5.62524 5.21218 5.76589 5.35283C5.90654 5.49348 6.09731 5.5725 6.29622 5.5725ZM9.62247 2.25H14.3775C14.5764 2.25 14.7671 2.17098 14.9078 2.03033C15.0485 1.88968 15.1275 1.69891 15.1275 1.5C15.1275 1.30109 15.0485 1.11032 14.9078 0.96967C14.7671 0.829018 14.5764 0.75 14.3775 0.75H9.62247C9.42356 0.75 9.23279 0.829018 9.09214 0.96967C8.95149 1.11032 8.87247 1.30109 8.87247 1.5C8.87247 1.69891 8.95149 1.88968 9.09214 2.03033C9.23279 2.17098 9.42356 2.25 9.62247 2.25Z" fill="#03C373"/>
</g>
<defs>
<clipPath id="clip0_17_1149">
<rect width="24" height="24" fill="white"/>
</clipPath>
</defs>
</svg>
