<svg width="32" height="32" viewBox="0 0 32 32" fill="none" xmlns="http://www.w3.org/2000/svg">
<path d="M26.1334 26.6667V30.4001C26.1325 30.6827 26.0199 30.9535 25.82 31.1534C25.6202 31.3532 25.3494 31.4659 25.0667 31.4667H6.93338C6.36759 31.4667 5.82497 31.242 5.42489 30.8419C5.02481 30.4418 4.80005 29.8992 4.80005 29.3334V26.6667H26.1334Z" fill="#D8D8D8"/>
<path d="M6.93338 0.533356H8.00005V27.2H6.93338C6.65313 27.1997 6.37556 27.2546 6.11658 27.3617C5.85759 27.4688 5.62227 27.6259 5.42411 27.8241C5.22594 28.0222 5.06881 28.2576 4.96173 28.5166C4.85464 28.7755 4.7997 29.0531 4.80005 29.3334V2.66669C4.80005 2.10089 5.02481 1.55827 5.42489 1.15819C5.82497 0.758117 6.36759 0.533356 6.93338 0.533356Z" fill="#4481AA"/>
<path d="M27.2 1.60002V26.1334C27.1992 26.416 27.0865 26.6868 26.8867 26.8867C26.6868 27.0865 26.416 27.1992 26.1333 27.2H6.93335V0.533356H26.1333C26.416 0.5342 26.6868 0.646852 26.8867 0.846708C27.0865 1.04656 27.1992 1.31738 27.2 1.60002Z" fill="#6AB3EF"/>
<path d="M20.5066 16.2133L20.6506 16.4427C20.691 16.5077 20.7466 16.562 20.8125 16.601C20.8784 16.64 20.9528 16.6625 21.0292 16.6667L22.0052 16.7147C22.1235 16.7192 22.2356 16.7686 22.3188 16.8528C22.402 16.937 22.4501 17.0497 22.4532 17.168L22.4799 18.16C22.4797 18.2226 22.4929 18.2845 22.5187 18.3416C22.5444 18.3986 22.5821 18.4494 22.6292 18.4907L23.3172 19.1253C23.3639 19.1691 23.4012 19.2219 23.4266 19.2807C23.4521 19.3394 23.4652 19.4027 23.4652 19.4667C23.4652 19.5307 23.4521 19.594 23.4266 19.6527C23.4012 19.7114 23.3639 19.7643 23.3172 19.808L22.6292 20.4427C22.5824 20.4844 22.5444 20.5352 22.5179 20.5921C22.4913 20.6489 22.4765 20.7106 22.4746 20.7733L22.4532 21.7653C22.4493 21.8839 22.4012 21.9967 22.3183 22.0816C22.2354 22.1665 22.1237 22.2173 22.0052 22.224L21.0292 22.2667C20.953 22.2719 20.8791 22.2949 20.8134 22.3338C20.7476 22.3727 20.6919 22.4264 20.6506 22.4907L20.1226 23.3493C20.0651 23.4433 19.9767 23.5143 19.8726 23.5503C19.7685 23.5863 19.6552 23.585 19.5519 23.5467L18.6132 23.1947C18.5361 23.1656 18.4527 23.1572 18.3713 23.1703C18.2899 23.1834 18.2134 23.2175 18.1492 23.2693L17.3652 23.8987C17.2792 23.9636 17.1744 23.9987 17.0666 23.9987C16.9588 23.9987 16.854 23.9636 16.7679 23.8987L15.9839 23.2693C15.9198 23.2175 15.8432 23.1834 15.7618 23.1703C15.6805 23.1572 15.5971 23.1656 15.5199 23.1947L14.5812 23.5467C14.478 23.585 14.3646 23.5863 14.2605 23.5503C14.1564 23.5143 14.0681 23.4433 14.0106 23.3493L13.4826 22.4907C13.4421 22.4256 13.3866 22.3713 13.3207 22.3323C13.2547 22.2933 13.1804 22.2708 13.1039 22.2667L12.1279 22.2187C12.0096 22.2141 11.8975 22.1647 11.8143 22.0805C11.7311 21.9963 11.6831 21.8837 11.6799 21.7653L11.6532 20.7733C11.6535 20.7107 11.6402 20.6488 11.6145 20.5918C11.5887 20.5347 11.551 20.4839 11.5039 20.4427L10.8159 19.808C10.7692 19.7643 10.732 19.7114 10.7065 19.6527C10.6811 19.594 10.668 19.5307 10.668 19.4667C10.668 19.4027 10.6811 19.3394 10.7065 19.2807C10.732 19.2219 10.7692 19.1691 10.8159 19.1253L11.5039 18.4907C11.5508 18.4489 11.5887 18.3981 11.6153 18.3413C11.6419 18.2844 11.6566 18.2227 11.6586 18.16L11.6799 17.168C11.6838 17.0494 11.732 16.9366 11.8149 16.8517C11.8978 16.7669 12.0095 16.7161 12.1279 16.7093L13.1039 16.6667C13.1801 16.6614 13.254 16.6384 13.3198 16.5995C13.3855 16.5606 13.4413 16.5069 13.4826 16.4427L13.6266 16.2133H20.5066Z" fill="#3778C6"/>
<path d="M11.7495 12.2187C11.9735 15.2321 14.2722 17.6001 17.0668 17.6001C19.8615 17.6001 22.1602 15.2321 22.3842 12.2187L17.0668 10.1334L11.7495 12.2187Z" fill="#F9D2B6"/>
<path d="M11.8025 6.95474C12.2058 5.87552 12.9224 4.94146 13.8603 4.27244C14.7983 3.60342 15.9148 3.22999 17.0665 3.20007C18.2184 3.22921 19.3353 3.60233 20.2734 4.27145C21.2115 4.94058 21.9279 5.87508 22.3305 6.95474L17.0665 10.1334L11.8025 6.95474Z" fill="#3778C6"/>
<path d="M9.59985 6.32003V9.60003C9.59985 9.95022 9.66883 10.297 9.80284 10.6205C9.93685 10.944 10.1333 11.238 10.3809 11.4856C10.881 11.9857 11.5593 12.2667 12.2665 12.2667H14.6665C15.303 12.2667 15.9135 12.0138 16.3636 11.5637C16.8137 11.1137 17.0665 10.5032 17.0665 9.86669C17.0665 9.23017 16.8137 8.61972 16.3636 8.16964C15.9135 7.71955 15.303 7.46669 14.6665 7.46669H13.9503C12.8604 7.46669 11.8029 7.09578 10.9519 6.41496L10.3705 5.94989C10.3008 5.894 10.2167 5.85896 10.1279 5.84879C10.0391 5.83863 9.94927 5.85377 9.86872 5.89246C9.78816 5.93114 9.72018 5.99181 9.67261 6.06746C9.62504 6.14311 9.59982 6.23066 9.59985 6.32003ZM24.5332 6.32003V9.60003C24.5332 9.95022 24.4642 10.297 24.3302 10.6205C24.1962 10.944 23.9998 11.238 23.7521 11.4856C23.5045 11.7333 23.2105 11.9297 22.887 12.0637C22.5635 12.1977 22.2167 12.2667 21.8665 12.2667H19.4665C18.83 12.2667 18.2196 12.0138 17.7695 11.5637C17.3194 11.1137 17.0665 10.5032 17.0665 9.86669C17.0665 9.23017 17.3194 8.61972 17.7695 8.16964C18.2196 7.71955 18.83 7.46669 19.4665 7.46669H20.1828C21.2727 7.46669 22.3301 7.09578 23.1812 6.41496L23.7625 5.94989C23.8322 5.894 23.9164 5.85896 24.0051 5.84879C24.0939 5.83863 24.1838 5.85377 24.2643 5.89246C24.3449 5.93114 24.4129 5.99181 24.4604 6.06746C24.508 6.14311 24.5332 6.23066 24.5332 6.32003Z" fill="#2D629B"/>
<path d="M22.3999 29.8668H19.7332C19.5918 29.8668 19.4561 29.8106 19.3561 29.7106C19.2561 29.6105 19.1999 29.4749 19.1999 29.3334C19.1999 29.192 19.2561 29.0563 19.3561 28.9563C19.4561 28.8563 19.5918 28.8001 19.7332 28.8001H22.3999C22.5413 28.8001 22.677 28.8563 22.777 28.9563C22.877 29.0563 22.9332 29.192 22.9332 29.3334C22.9332 29.4749 22.877 29.6105 22.777 29.7106C22.677 29.8106 22.5413 29.8668 22.3999 29.8668ZM17.5999 29.8668H9.06654C8.92509 29.8668 8.78943 29.8106 8.68941 29.7106C8.58939 29.6105 8.5332 29.4749 8.5332 29.3334C8.5332 29.192 8.58939 29.0563 8.68941 28.9563C8.78943 28.8563 8.92509 28.8001 9.06654 28.8001H17.5999C17.7413 28.8001 17.877 28.8563 17.977 28.9563C18.077 29.0563 18.1332 29.192 18.1332 29.3334C18.1332 29.4749 18.077 29.6105 17.977 29.7106C17.877 29.8106 17.7413 29.8668 17.5999 29.8668Z" fill="#B7B7B7"/>
<path d="M18.1332 14.9333H15.9999C15.8584 14.9333 15.7228 14.8771 15.6228 14.7771C15.5227 14.6771 15.4666 14.5414 15.4666 14.4C15.4666 14.2585 15.5227 14.1229 15.6228 14.0229C15.7228 13.9228 15.8584 13.8667 15.9999 13.8667H18.1332C18.2747 13.8667 18.4103 13.9228 18.5103 14.0229C18.6104 14.1229 18.6666 14.2585 18.6666 14.4C18.6666 14.5414 18.6104 14.6771 18.5103 14.7771C18.4103 14.8771 18.2747 14.9333 18.1332 14.9333Z" fill="#C19D85"/>
<path d="M14.4 10.6667C14.2586 10.6667 14.1229 10.6105 14.0229 10.5105C13.9229 10.4105 13.8667 10.2748 13.8667 10.1334V9.60003C13.8667 9.45858 13.9229 9.32292 14.0229 9.22291C14.1229 9.12289 14.2586 9.0667 14.4 9.0667C14.5415 9.0667 14.6771 9.12289 14.7772 9.22291C14.8772 9.32292 14.9334 9.45858 14.9334 9.60003V10.1334C14.9334 10.2748 14.8772 10.4105 14.7772 10.5105C14.6771 10.6105 14.5415 10.6667 14.4 10.6667ZM19.7334 10.6667C19.5919 10.6667 19.4563 10.6105 19.3562 10.5105C19.2562 10.4105 19.2 10.2748 19.2 10.1334V9.60003C19.2 9.45858 19.2562 9.32292 19.3562 9.22291C19.4563 9.12289 19.5919 9.0667 19.7334 9.0667C19.8748 9.0667 20.0105 9.12289 20.1105 9.22291C20.2105 9.32292 20.2667 9.45858 20.2667 9.60003V10.1334C20.2667 10.2748 20.2105 10.4105 20.1105 10.5105C20.0105 10.6105 19.8748 10.6667 19.7334 10.6667Z" fill="white"/>
</svg>
