<svg width="32" height="32" viewBox="0 0 32 32" fill="none" xmlns="http://www.w3.org/2000/svg">
<path d="M0 2.57501H32V20.795H0V2.57501Z" fill="#687D87"/>
<path d="M30.34 16.94V6.43499C29.7566 6.43499 29.197 6.2032 28.7844 5.79062C28.3718 5.37804 28.14 4.81846 28.14 4.23499H3.85503C3.85503 4.52389 3.79812 4.80997 3.68756 5.07689C3.577 5.3438 3.41495 5.58633 3.21066 5.79062C3.00638 5.99491 2.76385 6.15696 2.49693 6.26752C2.23002 6.37808 1.94394 6.43499 1.65503 6.43499V16.94C2.23851 16.94 2.79808 17.1718 3.21066 17.5844C3.62324 17.9969 3.85503 18.5565 3.85503 19.14H28.14C28.145 17.92 29.13 16.94 30.34 16.94Z" fill="#EFF3F5"/>
<path d="M21.75 11.685C21.75 14.86 19.175 17.435 16 17.435C12.825 17.435 10.25 14.86 10.25 11.685C10.25 8.51 12.825 5.935 16 5.935C19.175 5.935 21.75 8.51 21.75 11.685Z" fill="#687D87"/>
<path d="M15.7 13.72V11.915C15.135 11.755 14.725 11.51 14.46 11.185C14.195 10.86 14.065 10.465 14.065 10C14.065 9.53002 14.215 9.13502 14.51 8.81502C14.805 8.49502 15.2 8.31002 15.695 8.26002V7.83502H16.32V8.26002C16.775 8.31502 17.14 8.47002 17.41 8.72502C17.68 8.98002 17.85 9.32502 17.925 9.75502L16.835 9.89502C16.77 9.55502 16.595 9.32502 16.32 9.20502V10.89C17.01 11.075 17.48 11.32 17.73 11.615C17.98 11.91 18.105 12.295 18.105 12.76C18.105 13.28 17.95 13.715 17.635 14.075C17.32 14.43 16.885 14.65 16.325 14.73V15.535H15.7V14.75C15.205 14.69 14.8 14.505 14.49 14.195C14.18 13.885 13.98 13.45 13.895 12.88L15.02 12.76C15.065 12.99 15.15 13.19 15.28 13.355C15.405 13.525 15.545 13.645 15.7 13.72ZM15.7 9.20002C15.53 9.25502 15.395 9.35502 15.295 9.49502C15.195 9.63502 15.145 9.78502 15.145 9.95002C15.145 10.1 15.19 10.245 15.285 10.375C15.375 10.505 15.515 10.61 15.705 10.69L15.7 9.20002ZM16.325 13.78C16.54 13.74 16.715 13.64 16.85 13.48C16.985 13.32 17.05 13.135 17.05 12.92C17.05 12.73 16.995 12.56 16.88 12.425C16.765 12.285 16.58 12.18 16.32 12.105L16.325 13.78Z" fill="#E5E5E5"/>
<path d="M28.0649 11.685C28.0549 12.0735 27.8935 12.4427 27.6151 12.7139C27.3368 12.9851 26.9636 13.1369 26.5749 13.1369C26.1863 13.1369 25.8131 12.9851 25.5347 12.7139C25.2564 12.4427 25.095 12.0735 25.0849 11.685C25.095 11.2965 25.2564 10.9273 25.5347 10.6561C25.8131 10.3849 26.1863 10.2331 26.5749 10.2331C26.9636 10.2331 27.3368 10.3849 27.6151 10.6561C27.8935 10.9273 28.0549 11.2965 28.0649 11.685ZM6.91994 11.685C6.90988 12.0735 6.74848 12.4427 6.47015 12.7139C6.19181 12.9851 5.81856 13.1369 5.42994 13.1369C5.04132 13.1369 4.66807 12.9851 4.38974 12.7139C4.1114 12.4427 3.95001 12.0735 3.93994 11.685C3.93994 10.86 4.60994 10.195 5.42994 10.195C6.24994 10.195 6.91994 10.865 6.91994 11.685Z" fill="#687D87"/>
<path d="M21.1839 22.3744C21.7789 17.9267 18.6557 13.8387 14.208 13.2437C9.76035 12.6487 5.67242 15.7719 5.07739 20.2196C4.48237 24.6673 7.60556 28.7552 12.0532 29.3502C16.5009 29.9452 20.5889 26.8221 21.1839 22.3744Z" fill="#F1B974"/>
<path d="M13.1341 27.6899C16.6632 27.6899 19.5241 24.829 19.5241 21.2999C19.5241 17.7708 16.6632 14.9099 13.1341 14.9099C9.60504 14.9099 6.74414 17.7708 6.74414 21.2999C6.74414 24.829 9.60504 27.6899 13.1341 27.6899Z" fill="#D08230"/>
<path d="M12.7744 23.705V21.575C12.1094 21.385 11.6194 21.1 11.3094 20.71C10.9994 20.325 10.8444 19.86 10.8444 19.31C10.8444 18.755 11.0194 18.285 11.3694 17.91C11.7194 17.53 12.1894 17.315 12.7694 17.255V16.75H13.5044V17.255C14.0444 17.32 14.4744 17.505 14.7944 17.805C15.1144 18.11 15.3144 18.515 15.4044 19.025L14.1194 19.195C14.0394 18.795 13.8394 18.525 13.5094 18.38V20.37C14.3244 20.59 14.8794 20.875 15.1744 21.225C15.4694 21.575 15.6194 22.025 15.6194 22.575C15.6194 23.19 15.4344 23.705 15.0644 24.125C14.6944 24.545 14.1744 24.805 13.5144 24.9V25.85H12.7794V24.925C12.1944 24.855 11.7144 24.635 11.3494 24.27C10.9844 23.905 10.7494 23.385 10.6494 22.72L11.9794 22.58C12.0344 22.85 12.1344 23.085 12.2844 23.28C12.4244 23.475 12.5944 23.62 12.7744 23.705ZM12.7744 18.365C12.5744 18.435 12.4144 18.55 12.2944 18.71C12.1744 18.875 12.1144 19.055 12.1144 19.25C12.1144 19.43 12.1694 19.595 12.2744 19.75C12.3844 19.905 12.5494 20.03 12.7694 20.125V18.365H12.7744ZM13.5144 23.775C13.7694 23.725 13.9744 23.61 14.1344 23.42C14.2944 23.23 14.3744 23.01 14.3744 22.755C14.3744 22.53 14.3094 22.33 14.1744 22.165C14.0394 22 13.8194 21.875 13.5144 21.785V23.775Z" fill="#EFF3F5"/>
</svg>
