<svg width="24" height="24" viewBox="0 0 24 24" fill="none" xmlns="http://www.w3.org/2000/svg">
<g clip-path="url(#clip0_17_1178)">
<path fill-rule="evenodd" clip-rule="evenodd" d="M6 0C2.68629 0 0 2.68629 0 6V18C0 21.3137 2.68629 24 6 24H18C21.3137 24 24 21.3137 24 18V6C24 2.68629 21.3137 0 18 0H6ZM8.42857 8.625C8.42857 10.0282 9.38571 11.25 11.2857 11.25V6C9.33643 6 8.42857 7.26825 8.42857 8.625ZM12.7143 18C14.6643 18 15.5714 16.7318 15.5714 15.375C15.5714 13.9718 14.615 12.75 12.7143 12.75V18ZM12.7143 11.25C15.5536 11.25 17 13.299 17 15.375C17 17.4585 15.5414 19.5 12.7143 19.5V21H11.2857V19.5H9.85714C9.09938 19.5 8.37266 19.1839 7.83684 18.6213C7.30102 18.0587 7 17.2956 7 16.5H8.42857C8.42857 16.8978 8.57908 17.2794 8.84699 17.5607C9.1149 17.842 9.47826 18 9.85714 18H11.2857V12.75C8.44643 12.75 7 10.701 7 8.625C7 6.5415 8.45857 4.5 11.2857 4.5V3H12.7143V4.5H14.1429C14.9006 4.5 15.6273 4.81611 16.1632 5.37872C16.699 5.94133 17 6.70435 17 7.5H15.5714C15.5714 7.10218 15.4209 6.72057 15.153 6.43927C14.8851 6.15797 14.5217 6 14.1429 6H12.7143V11.25Z" fill="#65706C"/>
</g>
<defs>
<clipPath id="clip0_17_1178">
<rect width="24" height="24" fill="white"/>
</clipPath>
</defs>
</svg>
