<svg width="32" height="32" viewBox="0 0 32 32" fill="none" xmlns="http://www.w3.org/2000/svg">
<path d="M25 25.8819C19.6612 28.7033 14.3278 28.7088 9 25.8819L11.4244 7H22.5756L25 25.8819Z" fill="#F96178"/>
<path d="M13.6145 13.5148C13.5869 13.9304 13.8009 15.0166 13.8009 15.0166L16.9761 17.5818H17.9941L20.5626 15.0625C20.5626 15.0625 20.3879 13.9427 20.3603 13.5226C18.4664 14.1134 15.5007 14.1111 13.6145 13.5148Z" fill="#F5D250"/>
<path d="M22.8792 6.59669L17 5L11.1208 6.59669C10.8091 7.73228 11.0747 8.77498 12.2227 10.0394L13.2064 10.3039C13.5504 11.3512 13.6832 12.4433 13.6115 13.5291C15.5767 14.1546 18.3892 14.1567 20.362 13.537C20.2911 12.442 20.4288 11.3403 20.7808 10.2859L21.7782 10.0394C22.9253 8.77456 23.1909 7.73186 22.8792 6.59669Z" fill="#047573"/>
<path d="M7.70484 14.4069L6.83057 14.8017L8.07345 17.5537L8.94773 17.1589L7.70484 14.4069Z" fill="#047573"/>
<path d="M12 23.0928C13.0991 23.986 14.1987 24.2194 15.2978 23.7941L15.3059 23.6403L17 17.5997L13.8001 15L12 23.0928Z" fill="#047573"/>
<path d="M11.9993 23L11.9825 23.0862L12.3182 28.9673L11.1943 29.7601C10.745 29.955 11.1522 30.935 11.6322 31H14.6599L15.3008 23.7856C14.3004 24.2286 12.9997 23.9299 11.9993 23Z" fill="#F5D250"/>
<path d="M19.371 23.7912L19.3301 31H22.2392C22.7243 30.9344 23.2866 29.9522 22.8329 29.7568L21.6971 28.9619L22.0434 23.0927L22.0252 23C21.0162 23.9198 20.3791 24.2418 19.371 23.7912Z" fill="#F5D250"/>
<path d="M19.3495 23.6568L19.3549 23.7866C20.2365 24.2195 21.1614 23.9456 22.043 23.0625L20.5515 15L18 17.5838L19.3495 23.6568Z" fill="#047573"/>
<path d="M25.5878 12.7731L22.875 6.60547C23.1748 7.76106 22.8917 8.74809 21.7876 10.0348L23.392 13.5914C24.9968 14.0193 25.4847 13.5399 25.5878 12.7731Z" fill="white"/>
<path d="M25.5879 12.773C25.0616 12.4584 24.1019 12.1718 23.3921 13.5914L23.9414 17.5206C24.0593 18.2163 24.9036 18.5693 25.5304 18.164C25.8233 17.9749 25.9758 17.6453 25.9724 17.3102C25.9575 15.8506 25.894 13.6212 25.6066 12.8109L25.5879 12.773Z" fill="#F5D250"/>
<path d="M11.099 6.6192L8.82524 12.8356C8.44075 13.6024 8.92871 13.6024 10.8797 13.6024L12.2502 10.0364C11.1461 8.74884 10.7993 7.77436 11.099 6.6192Z" fill="white"/>
<path d="M10.2218 12.1866H10.1784C9.31065 12.282 7.23919 13.1902 5.89455 13.808C5.58543 13.9498 5.34954 14.2279 5.3027 14.5689C5.20264 15.2996 5.89114 15.8957 6.58007 15.6994L10.4211 14.4872C11.4162 13.2443 10.7383 12.5171 10.2218 12.1866Z" fill="#F5D250"/>
<path d="M19.1318 3.05093C18.9508 1.95622 18.164 1.13232 17.22 1.13232C16.276 1.13232 15.4892 1.95622 15.3082 3.05093C15.2827 3.20591 15.269 3.36601 15.269 3.53036C15.269 4.85499 16.1423 5.9284 17.22 5.9284C18.2972 5.9284 19.171 4.85499 19.171 3.53036C19.1714 3.36601 19.1578 3.20549 19.1318 3.05093Z" fill="white"/>
<path d="M5.83441 13.8366L2.01978 7.12488L2.49538 4.77283L4.65838 5.8803L7.60547 13.0547L5.83441 13.8366Z" fill="#95ECF9"/>
<path d="M17.2206 9.76516C17.7593 9.76516 18.1961 9.33567 18.1961 8.80586C18.1961 8.27605 17.7593 7.84656 17.2206 7.84656C16.6819 7.84656 16.2451 8.27605 16.2451 8.80586C16.2451 9.33567 16.6819 9.76516 17.2206 9.76516Z" fill="#95ECF9"/>
</svg>
