<svg width="24" height="24" viewBox="0 0 24 24" fill="none" xmlns="http://www.w3.org/2000/svg">
<path d="M19.5 1.5H4.5C3.40659 1.50198 2.35853 1.93722 1.58537 2.71037C0.812216 3.48353 0.376983 4.53159 0.375 5.625V18.375C0.375 20.6475 2.2275 22.5 4.5 22.5H19.5C21.7725 22.5 23.625 20.6475 23.625 18.375V5.625C23.625 3.3525 21.7725 1.5 19.5 1.5ZM21.375 10.74L18.165 7.53C17.7375 7.1025 17.0475 7.0875 16.605 7.5L11.07 12.645L8.265 9.84C7.8375 9.4125 7.1475 9.3975 6.705 9.81L2.625 13.5975V5.625C2.625 5.12772 2.82254 4.65081 3.17417 4.29917C3.52581 3.94754 4.00272 3.75 4.5 3.75H19.5C19.9973 3.75 20.4742 3.94754 20.8258 4.29917C21.1775 4.65081 21.375 5.12772 21.375 5.625V10.74Z" fill="#03C373"/>
</svg>
