<svg width="32" height="32" viewBox="0 0 32 32" fill="none" xmlns="http://www.w3.org/2000/svg">
<path d="M19.8557 3.4711L21.0391 6.39095H10.9585L12.1419 3.4711C12.2442 3.21866 12.4195 3.0025 12.6454 2.8503C12.8713 2.69809 13.1374 2.61678 13.4098 2.61676H18.5872C19.1445 2.61676 19.6456 2.95487 19.8551 3.4711H19.8557Z" fill="#474646"/>
<path d="M11.6569 4.6684L10.959 6.39096H21.039L20.341 4.6684H11.6569Z" fill="#2D2C2C"/>
<path d="M30.4882 25.1127C30.5076 25.6669 30.4151 26.2193 30.2162 26.737C30.0173 27.2546 29.7162 27.7268 29.3307 28.1254C28.9452 28.5241 28.4833 28.8409 27.9726 29.057C27.462 29.2731 26.9129 29.3841 26.3584 29.3832H26.3488C25.5668 29.3829 24.8011 29.1606 24.1405 28.7421C23.48 28.3237 22.9518 27.7263 22.6174 27.0195L20.5024 22.5539L19.828 21.123C19.6304 20.7089 19.3198 20.3592 18.9321 20.114C18.5443 19.8688 18.0951 19.7383 17.6363 19.7373H14.2165C13.7613 19.746 13.3178 19.8833 12.9373 20.1333C12.5567 20.3833 12.2546 20.7358 12.0659 21.1502L11.3999 22.5992L9.3936 26.9784C9.06332 27.6963 8.5341 28.3044 7.86868 28.7307C7.20326 29.1569 6.42956 29.3834 5.63933 29.3832C5.09726 29.3835 4.56044 29.2771 4.05952 29.0699C3.5586 28.8628 3.1034 28.5589 2.7199 28.1758C2.33641 27.7927 2.03213 27.3378 1.82445 26.8371C1.61677 26.3364 1.50976 25.7997 1.50952 25.2576V25.1351L1.91284 11.1782C2.00341 7.99033 4.62077 5.44965 7.81352 5.44965H24.1076C25.6371 5.44953 27.1069 6.04352 28.2068 7.10632C29.3068 8.16912 29.951 9.61762 30.0034 11.1463L30.4882 25.1127Z" fill="#A2A2F9"/>
<path opacity="0.4" d="M3.33156 25.2619H3.31768C3.2582 25.2602 3.19965 25.2467 3.14537 25.2224C3.09108 25.198 3.04213 25.1632 3.00131 25.1199C2.96049 25.0766 2.9286 25.0257 2.90746 24.9701C2.88633 24.9145 2.87636 24.8552 2.87813 24.7958L3.02485 19.7265C3.02829 19.6064 3.0793 19.4926 3.16666 19.4101C3.25401 19.3276 3.37056 19.2832 3.49066 19.2866C3.61076 19.2901 3.72457 19.3411 3.80706 19.4284C3.88954 19.5158 3.93395 19.6323 3.93051 19.7524L3.78379 24.8223C3.78033 24.9401 3.7311 25.0519 3.64655 25.134C3.562 25.216 3.4494 25.2619 3.33156 25.2619ZM3.53866 18.0752H3.52598C3.4665 18.0734 3.40795 18.06 3.35367 18.0357C3.29938 18.0113 3.25043 17.9765 3.20961 17.9332C3.16879 17.8899 3.1369 17.839 3.11577 17.7834C3.09463 17.7278 3.08466 17.6685 3.08643 17.609L3.10455 16.9763C3.10625 16.9168 3.11965 16.8583 3.14398 16.804C3.16831 16.7497 3.2031 16.7007 3.24635 16.6599C3.28961 16.619 3.34049 16.5871 3.39608 16.5659C3.45167 16.5448 3.51089 16.5347 3.57036 16.5364C3.62982 16.5381 3.68837 16.5515 3.74266 16.5759C3.79695 16.6002 3.84591 16.635 3.88675 16.6783C3.9276 16.7215 3.95952 16.7724 3.9807 16.828C4.00189 16.8836 4.01191 16.9428 4.01021 17.0023L3.99209 17.635C3.98879 17.7529 3.93963 17.8648 3.85506 17.947C3.77049 18.0292 3.65659 18.0752 3.53866 18.0752Z" fill="white"/>
<path d="M30.4882 25.1128C30.5076 25.667 30.4151 26.2194 30.2162 26.737C30.0173 27.2546 29.7162 27.7269 29.3307 28.1255C28.9452 28.5241 28.4833 28.8409 27.9726 29.057C27.462 29.2731 26.9129 29.3841 26.3584 29.3833H26.3488C25.5668 29.3829 24.8011 29.1606 24.1405 28.7421C23.48 28.3237 22.9518 27.7263 22.6174 27.0195L20.5024 22.554L19.828 21.123C19.6304 20.709 19.3198 20.3592 18.9321 20.114C18.5443 19.8689 18.0951 19.7383 17.6363 19.7374H14.2165C13.7613 19.7461 13.3178 19.8833 12.9373 20.1333C12.5567 20.3833 12.2546 20.7359 12.0659 21.1502L11.3999 22.5993L9.3936 26.9784C9.06332 27.6963 8.5341 28.3045 7.86868 28.7307C7.20326 29.1569 6.42956 29.3834 5.63933 29.3833C5.09726 29.3836 4.56044 29.2771 4.05952 29.07C3.5586 28.8628 3.1034 28.559 2.7199 28.1759C2.33641 27.7928 2.03213 27.3379 1.82445 26.8372C1.61677 26.3365 1.50976 25.7998 1.50952 25.2577V25.1351L1.53186 24.3291C1.63761 25.3446 2.11602 26.2849 2.87466 26.9683C3.63329 27.6517 4.6183 28.0296 5.63933 28.029C7.25141 28.029 8.71858 27.0919 9.3936 25.6242L11.3999 21.245L12.0659 19.7959C12.2546 19.3816 12.5567 19.0291 12.9373 18.7791C13.3178 18.5291 13.7613 18.3918 14.2165 18.3831H17.6357C18.5734 18.3831 19.4247 18.9265 19.8274 19.7688L20.5024 21.1997L22.6174 25.6652C22.9518 26.3721 23.48 26.9694 24.1405 27.3879C24.8011 27.8063 25.5668 28.0287 26.3488 28.029H26.3578C28.4819 28.029 30.2256 26.435 30.4611 24.3883L30.4882 25.1128Z" fill="#7979F7"/>
<path opacity="0.3" d="M1.95254 12.0175C2.12104 10.5813 2.81094 9.25694 3.89131 8.29577C4.97168 7.3346 6.36733 6.80352 7.81337 6.80331H24.1074C27.1227 6.80331 29.6211 9.07048 29.9628 12.0175H30.0334L30.0033 11.1463C29.9508 9.61762 29.3067 8.16912 28.2067 7.10632C27.1067 6.04352 25.6369 5.44953 24.1074 5.44965H7.81277C4.62001 5.44965 2.00266 7.98972 1.91209 11.1782L1.88794 12.0175H1.95254Z" fill="white"/>
<path d="M12.9388 13.0137C12.9389 13.592 12.8252 14.1645 12.604 14.6988C12.3828 15.233 12.0585 15.7184 11.6496 16.1273C11.2408 16.5361 10.7553 16.8604 10.2211 17.0816C9.68687 17.3028 9.11429 17.4166 8.53607 17.4165C6.10709 17.4165 4.13818 15.4433 4.13818 13.0137C4.1381 12.4362 4.2518 11.8643 4.47279 11.3306C4.69378 10.797 5.01772 10.3122 5.42612 9.90378C5.83452 9.49538 6.31937 9.17144 6.85298 8.95045C7.38659 8.72947 7.95851 8.61577 8.53607 8.61585C9.11402 8.61521 9.68642 8.7285 10.2206 8.94923C10.7547 9.16996 11.2401 9.4938 11.649 9.90225C12.0579 10.3107 12.3822 10.7957 12.6036 11.3296C12.8249 11.8635 12.9388 12.4358 12.9388 13.0137ZM27.8604 13.0137C27.8606 13.592 27.7468 14.1645 27.5256 14.6988C27.3044 15.233 26.9801 15.7184 26.5713 16.1273C26.1624 16.5361 25.677 16.8604 25.1428 17.0816C24.6085 17.3028 24.0359 17.4166 23.4577 17.4165C21.0288 17.4165 19.0598 15.4433 19.0598 13.0137C19.0598 12.4362 19.1735 11.8643 19.3945 11.3306C19.6154 10.797 19.9394 10.3122 20.3478 9.90378C20.7562 9.49538 21.241 9.17144 21.7746 8.95045C22.3083 8.72947 22.8802 8.61577 23.4577 8.61585C24.0357 8.61521 24.6081 8.7285 25.1422 8.94923C25.6763 9.16996 26.1617 9.4938 26.5706 9.90225C26.9795 10.3107 27.3039 10.7957 27.5252 11.3296C27.7465 11.8635 27.8604 12.4358 27.8604 13.0137ZM14.2164 19.7374C13.7611 19.746 13.3176 19.8833 12.9371 20.1333C12.5566 20.3833 12.2545 20.7358 12.0657 21.1502L11.3998 22.5992C11.0522 22.4224 10.7603 22.1528 10.5564 21.8203C10.3526 21.4879 10.2447 21.1055 10.2448 20.7155C10.2456 20.2449 10.4039 19.7882 10.6945 19.418C10.985 19.0479 11.3911 18.7857 11.848 18.6731C12.3049 18.5606 12.7864 18.6043 13.2156 18.7971C13.6448 18.99 13.9971 19.321 14.2164 19.7374ZM21.5758 20.7155C21.5758 21.5034 21.1411 22.1917 20.5023 22.554L19.8278 21.123C19.6303 20.709 19.3197 20.3592 18.9319 20.114C18.5441 19.8688 18.0949 19.7383 17.6361 19.7374H17.6041C17.7822 19.3967 18.0503 19.1114 18.3793 18.9125C18.7082 18.7137 19.0854 18.6089 19.4698 18.6095C20.028 18.6108 20.5629 18.8331 20.9575 19.2277C21.3522 19.6224 21.5745 20.1573 21.5758 20.7155Z" fill="#7979F7"/>
<path d="M12.9388 12.3901C12.9389 12.9683 12.8252 13.5409 12.604 14.0751C12.3828 14.6093 12.0585 15.0948 11.6496 15.5036C11.2408 15.9125 10.7553 16.2368 10.2211 16.458C9.68687 16.6792 9.11429 16.793 8.53607 16.7928C6.10709 16.7928 4.13818 14.8197 4.13818 12.3901C4.1381 11.8125 4.2518 11.2406 4.47279 10.707C4.69378 10.1734 5.01772 9.68852 5.42612 9.28012C5.83452 8.87173 6.31937 8.54778 6.85298 8.3268C7.38659 8.10581 7.95851 7.99211 8.53607 7.99219C9.11402 7.99156 9.68642 8.10484 10.2206 8.32557C10.7547 8.5463 11.2401 8.87015 11.649 9.27859C12.0579 9.68704 12.3822 10.1721 12.6036 10.706C12.8249 11.2399 12.9388 11.8121 12.9388 12.3901Z" fill="white"/>
<path d="M12.9395 12.3919C12.9395 14.8191 10.97 16.7934 8.53798 16.7934C7.68557 16.794 6.85143 16.5464 6.13737 16.0809C5.42331 15.6154 4.86022 14.952 4.51685 14.1718C4.92542 14.5995 5.41666 14.9396 5.96074 15.1716C6.50481 15.4036 7.09036 15.5225 7.68183 15.5213C8.41355 15.5209 9.13366 15.3383 9.77709 14.9899C10.4205 14.6414 10.967 14.1382 11.3671 13.5255C11.7673 12.9129 12.0084 12.2102 12.0689 11.481C12.1293 10.7518 12.0071 10.019 11.7132 9.34888C12.503 10.1647 12.9426 11.2565 12.9395 12.3919Z" fill="#E4E3FF"/>
<path d="M27.8607 12.3901C27.8608 12.9683 27.7471 13.5409 27.5258 14.0751C27.3046 14.6093 26.9804 15.0948 26.5715 15.5036C26.1626 15.9125 25.6772 16.2368 25.143 16.458C24.6087 16.6792 24.0362 16.793 23.4579 16.7928C21.029 16.7928 19.0601 14.8197 19.0601 12.3901C19.06 11.8125 19.1737 11.2406 19.3947 10.707C19.6157 10.1734 19.9396 9.68852 20.348 9.28012C20.7564 8.87173 21.2412 8.54778 21.7749 8.3268C22.3085 8.10581 22.8804 7.99211 23.4579 7.99219C24.0359 7.99156 24.6083 8.10484 25.1424 8.32557C25.6766 8.5463 26.162 8.87015 26.5708 9.27859C26.9797 9.68704 27.3041 10.1721 27.5254 10.706C27.7467 11.2399 27.8607 11.8121 27.8607 12.3901Z" fill="white"/>
<path d="M27.8611 12.3919C27.8611 14.819 25.8916 16.7934 23.4596 16.7934C22.6072 16.794 21.7731 16.5464 21.059 16.0808C20.3449 15.6153 19.7819 14.952 19.4385 14.1718C19.8471 14.5994 20.3383 14.9396 20.8824 15.1716C21.4264 15.4035 22.012 15.5225 22.6035 15.5212C25.0355 15.5212 27.005 13.5469 27.005 11.1197C27.005 10.4857 26.8697 9.88318 26.6246 9.33978C27.4191 10.1569 27.8629 11.2521 27.8611 12.3919Z" fill="#E4E3FF"/>
<path d="M26.3506 11.8551V12.9298C26.3506 13.0451 26.3048 13.1557 26.2233 13.2372C26.1417 13.3187 26.0312 13.3645 25.9159 13.3645H24.433V14.8474C24.4331 14.9045 24.4219 14.9611 24.4001 15.0139C24.3783 15.0668 24.3463 15.1148 24.3059 15.1552C24.2655 15.1956 24.2176 15.2277 24.1648 15.2496C24.112 15.2715 24.0554 15.2827 23.9983 15.2827H22.923C22.8077 15.2827 22.6971 15.2369 22.6156 15.1554C22.5341 15.0739 22.4883 14.9633 22.4883 14.848V13.3651H21.0054C20.9482 13.3652 20.8916 13.354 20.8387 13.3322C20.7859 13.3103 20.7378 13.2783 20.6974 13.2378C20.657 13.1974 20.6249 13.1494 20.603 13.0965C20.5812 13.0437 20.57 12.987 20.5701 12.9298V11.8551C20.57 11.798 20.5812 11.7414 20.603 11.6886C20.6248 11.6357 20.6568 11.5878 20.6972 11.5473C20.7376 11.5069 20.7855 11.4748 20.8383 11.4529C20.8911 11.431 20.9476 11.4198 21.0048 11.4198H22.4877V9.93691C22.4877 9.87978 22.4989 9.8232 22.5208 9.77042C22.5427 9.71763 22.5748 9.66968 22.6152 9.62931C22.6556 9.58893 22.7036 9.55693 22.7564 9.53512C22.8092 9.5133 22.8658 9.50212 22.923 9.5022H23.9977C24.0548 9.50212 24.1114 9.5133 24.1642 9.53512C24.217 9.55693 24.265 9.58893 24.3055 9.62931C24.3459 9.66968 24.378 9.71763 24.3999 9.77042C24.4217 9.8232 24.433 9.87978 24.433 9.93691V11.4198H25.9159C26.0312 11.4198 26.1417 11.4656 26.2233 11.5471C26.3048 11.6286 26.3506 11.7398 26.3506 11.8551Z" fill="#474646"/>
<path d="M26.3486 11.8527V12.9304C26.3486 13.0457 26.3028 13.1563 26.2212 13.2378C26.1397 13.3194 26.0291 13.3652 25.9139 13.3652H24.4334V14.8462C24.4334 14.9615 24.3876 15.0721 24.3061 15.1536C24.2245 15.2351 24.114 15.2809 23.9987 15.2809H22.9203C22.8219 15.2813 22.7263 15.2478 22.6497 15.186C22.5731 15.1242 22.52 15.0379 22.4995 14.9416C22.5303 14.9507 22.5622 14.9552 22.5943 14.9549H23.6678C23.7831 14.9549 23.8937 14.9091 23.9752 14.8276C24.0567 14.746 24.1025 14.6355 24.1025 14.5202V13.2541C24.1025 13.1333 24.2009 13.0349 24.3223 13.0349H25.5878C25.7031 13.0349 25.8137 12.9891 25.8952 12.9076C25.9767 12.826 26.0225 12.7155 26.0225 12.6002V11.5261C26.0229 11.494 26.0184 11.462 26.0092 11.4313C26.1055 11.4518 26.1918 11.5048 26.2536 11.5815C26.3154 11.6581 26.3489 11.7537 26.3486 11.8521V11.8527Z" fill="#2D2C2C"/>
<path d="M13.5651 21.8744C14.64 21.4291 15.1504 20.1969 14.7052 19.122C14.2599 18.0471 13.0277 17.5367 11.9528 17.9819C10.8779 18.4272 10.3675 19.6594 10.8127 20.7343C11.258 21.8092 12.4902 22.3196 13.5651 21.8744Z" fill="#FC6559"/>
<path d="M19.8661 21.8744C20.941 21.4291 21.4514 20.1969 21.0062 19.122C20.561 18.0471 19.3287 17.5367 18.2538 17.9819C17.179 18.4272 16.6685 19.6594 17.1138 20.7343C17.559 21.8092 18.7913 22.3196 19.8661 21.8744Z" fill="#ECB021"/>
<path opacity="0.4" d="M13.7225 19.8328C13.7005 19.5924 13.5895 19.3689 13.4112 19.2061C13.2329 19.0434 13.0003 18.9531 12.7589 18.9531C12.6988 18.9531 12.6412 18.9292 12.5988 18.8868C12.5563 18.8443 12.5325 18.7867 12.5325 18.7267C12.5325 18.6666 12.5563 18.609 12.5988 18.5666C12.6412 18.5241 12.6988 18.5002 12.7589 18.5002C13.4931 18.5002 14.1011 19.0539 14.1735 19.7887C14.1764 19.8183 14.1735 19.8482 14.1648 19.8767C14.1561 19.9051 14.142 19.9316 14.1231 19.9546C14.1042 19.9776 14.0809 19.9966 14.0547 20.0106C14.0284 20.0247 13.9997 20.0334 13.9701 20.0362C13.9404 20.0391 13.9105 20.0362 13.8821 20.0275C13.8536 20.0189 13.8271 20.0047 13.8041 19.9858C13.7812 19.9669 13.7621 19.9436 13.7481 19.9174C13.7341 19.8911 13.7254 19.8624 13.7225 19.8328ZM20.0235 19.8328C20.0015 19.5924 19.8905 19.3689 19.7122 19.2061C19.5339 19.0434 19.3013 18.9531 19.0599 18.9531C18.9998 18.9531 18.9422 18.9292 18.8998 18.8868C18.8573 18.8443 18.8335 18.7867 18.8335 18.7267C18.8335 18.6666 18.8573 18.609 18.8998 18.5666C18.9422 18.5241 18.9998 18.5002 19.0599 18.5002C19.7941 18.5002 20.4021 19.0539 20.4745 19.7887C20.4804 19.8485 20.4622 19.9082 20.424 19.9546C20.3859 20.001 20.3308 20.0304 20.271 20.0362C20.2112 20.0421 20.1515 20.0239 20.1051 19.9858C20.0587 19.9476 20.0293 19.8926 20.0235 19.8328Z" fill="white"/>
<path d="M21.1682 19.9275C21.1684 20.2041 21.114 20.4781 21.0082 20.7336C20.9024 20.9892 20.7473 21.2214 20.5517 21.417C20.3561 21.6126 20.1239 21.7677 19.8683 21.8735C19.6128 21.9793 19.3388 22.0337 19.0622 22.0335C18.2381 22.0335 17.5226 21.5626 17.1785 20.8743C17.546 21.1602 17.9988 21.3147 18.4645 21.3132C18.8241 21.3126 19.1776 21.22 19.4914 21.0443C19.8052 20.8686 20.0688 20.6155 20.2571 20.3091C20.4455 20.0028 20.5524 19.6533 20.5676 19.294C20.5828 18.9347 20.5058 18.5775 20.3441 18.2563C20.5997 18.4537 20.8068 18.7069 20.9496 18.9965C21.0924 19.2861 21.1672 19.6046 21.1682 19.9275Z" fill="#E5A320"/>
<path d="M10.6523 19.9288C10.6522 20.2054 10.7065 20.4793 10.8123 20.7349C10.9181 20.9904 11.0732 21.2227 11.2688 21.4182C11.4644 21.6138 11.6966 21.769 11.9522 21.8747C12.2078 21.9805 12.4817 22.0349 12.7583 22.0347C13.5825 22.0347 14.2979 21.5638 14.6421 20.8755C14.2745 21.1614 13.8217 21.316 13.356 21.3144C12.9964 21.3138 12.6429 21.2213 12.3291 21.0455C12.0154 20.8698 11.7518 20.6167 11.5634 20.3103C11.375 20.004 11.2682 19.6545 11.253 19.2952C11.2378 18.9359 11.3147 18.5787 11.4765 18.2575C11.2209 18.4549 11.0138 18.7081 10.8709 18.9977C10.7281 19.2874 10.6533 19.6058 10.6523 19.9288Z" fill="#E24B40"/>
<path d="M9.65428 10.1524C9.65428 10.2989 9.62543 10.444 9.56937 10.5793C9.51332 10.7147 9.43115 10.8376 9.32757 10.9412C9.22399 11.0448 9.10102 11.127 8.96568 11.183C8.83035 11.2391 8.6853 11.2679 8.53881 11.2679C8.39233 11.2679 8.24727 11.2391 8.11194 11.183C7.9766 11.127 7.85364 11.0448 7.75005 10.9412C7.64647 10.8376 7.56431 10.7147 7.50825 10.5793C7.45219 10.444 7.42334 10.2989 7.42334 10.1524C7.42334 9.54022 7.92206 9.0415 8.53851 9.0415C9.15496 9.0415 9.65428 9.54022 9.65428 10.1524Z" fill="#FC6559"/>
<path d="M9.65428 14.6283C9.65428 14.7748 9.62543 14.9198 9.56937 15.0551C9.51332 15.1905 9.43115 15.3134 9.32757 15.417C9.22399 15.5206 9.10102 15.6028 8.96568 15.6588C8.83035 15.7149 8.6853 15.7437 8.53881 15.7437C8.39233 15.7437 8.24727 15.7149 8.11194 15.6588C7.9766 15.6028 7.85364 15.5206 7.75005 15.417C7.64647 15.3134 7.56431 15.1905 7.50825 15.0551C7.45219 14.9198 7.42334 14.7748 7.42334 14.6283C7.42334 14.0154 7.92206 13.5167 8.53851 13.5167C9.15496 13.5167 9.65368 14.0154 9.65368 14.6277L9.65428 14.6283Z" fill="#ECB021"/>
<path d="M10.7778 13.5076C10.482 13.5076 10.1984 13.3901 9.98922 13.181C9.78009 12.9719 9.6626 12.6882 9.6626 12.3925C9.6626 12.0967 9.78009 11.813 9.98922 11.6039C10.1984 11.3948 10.482 11.2773 10.7778 11.2773C11.3906 11.2773 11.8893 11.776 11.8893 12.3925C11.8893 13.0083 11.39 13.5076 10.7778 13.5076Z" fill="#00D67F"/>
<path d="M6.30267 13.5076C6.00691 13.5076 5.72326 13.3901 5.51413 13.181C5.30499 12.9719 5.1875 12.6882 5.1875 12.3925C5.1875 12.0967 5.30499 11.813 5.51413 11.6039C5.72326 11.3948 6.00691 11.2773 6.30267 11.2773C6.9149 11.2773 7.41422 11.776 7.41422 12.3925C7.41422 13.0083 6.9149 13.5076 6.30267 13.5076Z" fill="#A2A2F9"/>
<path d="M9.65195 10.1549C9.65195 10.7707 9.15384 11.2688 8.53799 11.2688C7.99459 11.2688 7.54176 10.8794 7.44214 10.3632C7.64561 10.5805 7.93542 10.7164 8.2524 10.7164C8.54844 10.7156 8.83204 10.5973 9.04092 10.3875C9.24979 10.1777 9.36685 9.89362 9.36636 9.59758C9.36636 9.52513 9.36214 9.45751 9.34825 9.38928C9.53844 9.58853 9.65195 9.856 9.65195 10.1549Z" fill="#E24B40"/>
<path d="M9.65187 14.6294C9.65105 14.9056 9.54757 15.1717 9.36155 15.3759C9.17553 15.5801 8.92025 15.7078 8.64531 15.7343C8.37036 15.7608 8.09539 15.6841 7.8738 15.5192C7.65222 15.3543 7.49984 15.1129 7.44629 14.8419C7.59959 15.0031 7.79764 15.1146 8.01491 15.1622C8.23218 15.2097 8.45871 15.1911 8.6653 15.1087C8.87189 15.0263 9.04908 14.884 9.17402 14.7C9.29896 14.516 9.36593 14.2988 9.36629 14.0764C9.36629 14.0039 9.35723 13.9315 9.34395 13.8638C9.53836 14.0631 9.65187 14.3354 9.65187 14.6294Z" fill="#E5A320"/>
<path d="M11.8889 12.3919C11.8889 13.0077 11.3908 13.5058 10.7798 13.5058C10.2364 13.5058 9.77875 13.1164 9.68335 12.6044C9.8364 12.7661 10.0345 12.8782 10.252 12.9261C10.4694 12.974 10.6963 12.9556 10.9031 12.8731C11.11 12.7906 11.2873 12.6479 11.4121 12.4635C11.537 12.2791 11.6036 12.0615 11.6033 11.8388C11.6033 11.7664 11.5949 11.6939 11.581 11.6263C11.776 11.8255 11.8889 12.093 11.8889 12.3919Z" fill="#00AF68"/>
<path d="M7.41421 12.3919C7.41265 12.6676 7.30885 12.9329 7.12291 13.1364C6.93697 13.34 6.68212 13.4673 6.40769 13.4938C6.13326 13.5202 5.85877 13.4439 5.63738 13.2796C5.41598 13.1153 5.26342 12.8747 5.20923 12.6044C5.36228 12.7662 5.56036 12.8782 5.77783 12.9261C5.99531 12.974 6.22215 12.9556 6.429 12.8731C6.63585 12.7906 6.81317 12.6479 6.93802 12.4635C7.06286 12.2791 7.12947 12.0615 7.12923 11.8388C7.12923 11.7664 7.12017 11.6939 7.10689 11.6263C7.3013 11.8255 7.41481 12.093 7.41481 12.3919H7.41421ZM17.7001 10.9525H14.2996C14.1795 10.9525 14.0644 10.9048 13.9794 10.8198C13.8945 10.7349 13.8468 10.6197 13.8468 10.4996C13.8468 10.3795 13.8945 10.2644 13.9794 10.1794C14.0644 10.0945 14.1795 10.0468 14.2996 10.0468H17.7001C17.8202 10.0468 17.9354 10.0945 18.0203 10.1794C18.1052 10.2644 18.1529 10.3795 18.1529 10.4996C18.1529 10.6197 18.1052 10.7349 18.0203 10.8198C17.9354 10.9048 17.8202 10.9525 17.7001 10.9525ZM17.7001 12.6346H14.2996C14.1795 12.6346 14.0644 12.5869 13.9794 12.502C13.8945 12.417 13.8468 12.3019 13.8468 12.1818C13.8468 12.0617 13.8945 11.9465 13.9794 11.8616C14.0644 11.7766 14.1795 11.7289 14.2996 11.7289H17.7001C17.8202 11.7289 17.9354 11.7766 18.0203 11.8616C18.1052 11.9465 18.1529 12.0617 18.1529 12.1818C18.1529 12.3019 18.1052 12.417 18.0203 12.502C17.9354 12.5869 17.8202 12.6346 17.7001 12.6346ZM17.7001 14.3167H14.2996C14.1795 14.3167 14.0644 14.269 13.9794 14.1841C13.8945 14.0991 13.8468 13.984 13.8468 13.8639C13.8468 13.7438 13.8945 13.6286 13.9794 13.5437C14.0644 13.4587 14.1795 13.411 14.2996 13.411H17.7001C17.8202 13.411 17.9354 13.4587 18.0203 13.5437C18.1052 13.6286 18.1529 13.7438 18.1529 13.8639C18.1529 13.984 18.1052 14.0991 18.0203 14.1841C17.9354 14.269 17.8202 14.3167 17.7001 14.3167Z" fill="#7979F7"/>
</svg>
