<svg width="24" height="24" viewBox="0 0 24 24" fill="none" xmlns="http://www.w3.org/2000/svg">
<path d="M12.0004 13.65C12.912 13.65 13.6509 12.911 13.6509 11.9995C13.6509 11.0879 12.912 10.3489 12.0004 10.3489C11.0888 10.3489 10.3499 11.0879 10.3499 11.9995C10.3499 12.911 11.0888 13.65 12.0004 13.65Z" fill="#65706C"/>
<path d="M22.883 10.1509L22.0137 7.378C21.9198 7.05753 21.7624 6.75924 21.5507 6.50093C21.3391 6.24262 21.0776 6.02958 20.7819 5.87451C20.4861 5.71945 20.1622 5.62554 19.8293 5.59838C19.4965 5.57123 19.1616 5.61138 18.8446 5.71646L18.4705 5.8375C18.1774 5.93438 17.8653 5.95896 17.5606 5.90914C17.256 5.85933 16.9679 5.73659 16.7209 5.5514L16.5999 5.46337C16.3589 5.27892 16.1646 5.04042 16.0328 4.7671C15.9009 4.49378 15.8351 4.19328 15.8407 3.88986V3.58176C15.846 2.89076 15.5769 2.22588 15.0924 1.73315C14.862 1.50037 14.5878 1.31541 14.2857 1.1889C13.9835 1.06238 13.6594 0.996793 13.3318 0.995911H10.5259C9.85269 1.00461 9.21016 1.27891 8.73821 1.7591C8.26627 2.23929 8.00313 2.88647 8.00609 3.55975V3.82384C8.00503 4.14324 7.93231 4.45834 7.79329 4.7459C7.65427 5.03346 7.45249 5.28617 7.20283 5.48538L7.05978 5.59542C6.78397 5.80407 6.46137 5.9422 6.12002 5.99782C5.77868 6.05343 5.42892 6.02484 5.10114 5.91452C4.8001 5.81035 4.48105 5.76833 4.1633 5.79103C3.84555 5.81373 3.53571 5.90066 3.25253 6.04657C2.95769 6.1929 2.69613 6.39834 2.48411 6.65012C2.27209 6.90189 2.11415 7.1946 2.02013 7.51004L1.11783 10.371C0.90859 11.016 0.962251 11.7175 1.26716 12.3232C1.57207 12.9289 2.10361 13.3899 2.74637 13.606H2.92242C3.21892 13.7172 3.48504 13.8966 3.69918 14.1299C3.91331 14.3631 4.06942 14.6436 4.15483 14.9485L4.22085 15.1245C4.34351 15.4614 4.38453 15.8225 4.34054 16.1783C4.29654 16.5341 4.16879 16.8744 3.96777 17.1712C3.56087 17.7253 3.38924 18.4177 3.49021 19.0977C3.59119 19.7778 3.95659 20.3904 4.50694 20.8024L6.78469 22.53C7.21598 22.8435 7.73698 23.0095 8.27017 23.0031C8.41288 23.0171 8.55661 23.0171 8.69932 23.0031C9.02954 22.9392 9.34327 22.8087 9.62137 22.6195C9.89948 22.4303 10.1361 22.1864 10.3168 21.9028L10.5699 21.5396C10.7475 21.285 10.9824 21.0756 11.2557 20.9284C11.529 20.7813 11.8331 20.7004 12.1434 20.6924C12.4687 20.6844 12.7906 20.7589 13.0792 20.909C13.3679 21.059 13.6138 21.2798 13.794 21.5506L13.926 21.7377C14.1136 22.0169 14.3564 22.2548 14.6394 22.4366C14.9224 22.6185 15.2396 22.7405 15.5716 22.7951C15.9035 22.8497 16.2431 22.8358 16.5694 22.7543C16.8958 22.6727 17.202 22.5252 17.4692 22.3209L19.7029 20.6483C20.2311 20.2382 20.5823 19.6415 20.6846 18.9806C20.7869 18.3198 20.6325 17.6448 20.2531 17.0942L19.967 16.676C19.795 16.4102 19.6823 16.1104 19.6367 15.7971C19.5912 15.4837 19.6137 15.1643 19.7029 14.8605C19.7938 14.5352 19.9626 14.237 20.1945 13.9916C20.4265 13.7462 20.7148 13.561 21.0344 13.452L21.2544 13.375C21.8912 13.154 22.4171 12.6941 22.721 12.0925C23.0249 11.4908 23.083 10.7946 22.883 10.1509ZM12.0004 15.8508C11.2387 15.8508 10.4941 15.6249 9.86075 15.2017C9.22741 14.7785 8.73379 14.1771 8.44229 13.4733C8.1508 12.7696 8.07453 11.9952 8.22314 11.2482C8.37174 10.5011 8.73854 9.81487 9.27714 9.27626C9.81575 8.73765 10.502 8.37086 11.2491 8.22225C11.9961 8.07365 12.7705 8.14992 13.4742 8.44141C14.1779 8.73291 14.7794 9.22653 15.2026 9.85987C15.6258 10.4932 15.8517 11.2378 15.8517 11.9995C15.8517 13.0209 15.4459 14.0005 14.7236 14.7228C14.0014 15.445 13.0218 15.8508 12.0004 15.8508Z" fill="#65706C"/>
</svg>
