<svg width="32" height="32" viewBox="0 0 32 32" fill="none" xmlns="http://www.w3.org/2000/svg">
<g clip-path="url(#clip0_48_3472)">
<path fill-rule="evenodd" clip-rule="evenodd" d="M25.8138 31.4189H6.16766C2.83081 31.4189 -0.543533 28.6257 0.0750966 25.2513L2.49337 12.0164C2.75582 10.6292 3.67439 9.72937 4.83667 9.72937H27.1448C28.3258 9.72937 29.2444 10.6292 29.4881 12.0164L31.9251 25.2513C32.5438 28.6257 29.1694 31.4189 25.8138 31.4189Z" fill="#E26677"/>
<path fill-rule="evenodd" clip-rule="evenodd" d="M1.12476 19.5525L2.49324 12.0164C2.75569 10.6292 3.67426 9.72937 4.83653 9.72937H27.1447C28.3257 9.72937 29.2443 10.6292 29.488 12.0164L30.8377 19.3462C30.744 19.4025 30.6502 19.4587 30.5565 19.4962C27.0884 20.771 22.9642 21.5771 18.6338 21.8395C18.5963 21.8395 14.8096 21.8208 13.6848 21.5958C13.6473 21.7645 13.5348 21.877 13.3661 21.8583C9.05446 21.6708 4.93026 20.9209 1.40595 19.7212C1.36846 19.7024 1.25598 19.6274 1.12476 19.5525Z" fill="#D85364"/>
<path fill-rule="evenodd" clip-rule="evenodd" d="M8.77334 13.7411C8.51089 13.7411 8.24844 13.7036 8.02349 13.4974C7.85477 13.3287 7.77979 13.1225 7.77979 12.8788V8.15468C7.77979 3.63682 11.4728 -0.0562134 15.9907 -0.0562134C20.5273 -0.0562134 24.2203 3.63682 24.2203 8.15468V12.8788C24.2203 13.4411 23.7704 13.8536 23.208 13.8536C22.6644 13.8536 22.2145 13.4411 22.2145 12.8788V8.15468C22.2145 4.74285 19.4213 1.94964 15.9907 1.94964C12.5601 1.94964 9.78564 4.74285 9.78564 8.15468V12.8788C9.78564 13.1225 9.69191 13.3287 9.52319 13.4974C9.31698 13.7036 9.05454 13.7411 8.77334 13.7411Z" fill="#4A5A5A"/>
<path fill-rule="evenodd" clip-rule="evenodd" d="M10.4981 16.6842H7.06755C6.86134 16.6842 6.69263 16.5155 6.69263 16.3093V12.8787C6.69263 12.6725 6.86134 12.5038 7.06755 12.5038H10.4981C10.7043 12.5038 10.8731 12.6725 10.8731 12.8787V16.3093C10.8731 16.5155 10.7043 16.6842 10.4981 16.6842ZM24.9328 16.6842H21.5022C21.296 16.6842 21.1273 16.5155 21.1273 16.3093V12.8787C21.1273 12.6725 21.296 12.5038 21.5022 12.5038H24.9328C25.139 12.5038 25.3077 12.6725 25.3077 12.8787V16.3093C25.3077 16.5155 25.139 16.6842 24.9328 16.6842ZM17.9779 23.5641H14.0037C13.4601 23.5641 13.0101 23.1142 13.0101 22.5706V18.5963C13.0101 18.034 13.4601 17.584 14.0037 17.584H17.9779C18.5403 17.584 18.9902 18.034 18.9902 18.5963V22.5706C18.9902 23.1142 18.5403 23.5641 17.9779 23.5641Z" fill="#FEAC02"/>
<path fill-rule="evenodd" clip-rule="evenodd" d="M16.8904 21.8582H15.1095C14.8846 21.8582 14.7346 21.6895 14.7346 21.4833V19.6837C14.7346 19.4775 14.8846 19.3087 15.1095 19.3087H16.8904C17.0967 19.3087 17.2654 19.4775 17.2654 19.6837V21.4833C17.2654 21.6895 17.0967 21.8582 16.8904 21.8582Z" fill="white"/>
</g>
<defs>
<clipPath id="clip0_48_3472">
<rect width="32" height="32" fill="white"/>
</clipPath>
</defs>
</svg>
