<svg width="32" height="32" viewBox="0 0 32 32" fill="none" xmlns="http://www.w3.org/2000/svg">
<path d="M12.9439 7.02539C6.44323 7.02539 1.17358 12.2997 1.17358 18.8004C1.17358 25.3012 6.44323 30.5708 12.9439 30.5708C19.4446 30.5708 24.7152 25.3012 24.7152 18.8004C24.7152 12.2997 19.4446 7.02586 12.9444 7.02586L12.9439 7.02539ZM12.9439 27.8221C7.96041 27.8221 3.92276 23.7844 3.92276 18.8009C3.92276 13.8174 7.96041 9.7741 12.9439 9.7741C17.9275 9.7741 21.9661 13.8164 21.9661 18.8C21.9661 23.7835 17.9279 27.8216 12.9444 27.8216L12.9439 27.8221Z" fill="#D9DEFB"/>
<path d="M3.0037 18.8004C3.0037 12.6103 7.78394 7.52982 13.8592 7.06488C13.555 7.0365 13.2495 7.02331 12.9439 7.02535C6.4437 7.02535 1.17358 12.3006 1.17358 18.8004C1.17358 25.3002 6.44417 30.5708 12.9439 30.5708C13.2545 30.5708 13.559 30.5614 13.8592 30.5308C7.78394 30.071 3.0037 24.9905 3.0037 18.8004Z" fill="#C5CCED"/>
<path d="M18.9543 3.92236L13.4447 11.4057C13.4094 11.4537 13.367 11.496 13.319 11.5313C13.2115 11.6129 13.0802 11.6571 12.9451 11.6571C12.8101 11.6571 12.6788 11.6129 12.5712 11.5313C12.5247 11.4969 12.4818 11.4546 12.4461 11.4057L6.93407 3.92236C6.84193 3.79816 6.79974 3.64391 6.81587 3.49011C6.83199 3.33631 6.90524 3.19416 7.02113 3.09177L8.71195 1.58589C8.82443 1.48377 8.97313 1.42871 9.12372 1.42871H16.767C16.9176 1.42871 17.0668 1.48377 17.1792 1.58589L18.8677 3.09177C19.1077 3.30401 19.1458 3.66542 18.9543 3.92236Z" fill="#2297F3"/>
<path d="M14.7202 9.67532L13.4439 11.4038C13.4096 11.4551 13.3668 11.4979 13.3202 11.5318C13.2545 11.5814 13.1796 11.6175 13.0999 11.6379C13.0202 11.6584 12.9372 11.6628 12.8558 11.6509C12.7743 11.639 12.6961 11.611 12.6255 11.5686C12.555 11.5261 12.4936 11.4701 12.4449 11.4038L6.93477 3.92143C6.84253 3.7979 6.80014 3.64419 6.81601 3.49083C6.83187 3.33748 6.90484 3.19571 7.02041 3.09367L8.7103 1.58732C8.82559 1.48473 8.97477 1.4292 9.12441 1.4292H12.6712C12.5216 1.4292 12.3724 1.48473 12.2571 1.58732L10.5672 3.09367C10.4515 3.19573 10.3785 3.33759 10.3626 3.49106C10.3467 3.64452 10.3892 3.79833 10.4816 3.92191L14.7202 9.67532Z" fill="#0E88DB"/>
<path d="M30.8264 18.5487V28.2518C30.8263 28.8669 30.5819 29.4567 30.1469 29.8916C29.7119 30.3265 29.122 30.5708 28.5069 30.5708H21.393C20.778 30.5707 20.1882 30.3263 19.7533 29.8914C19.3185 29.4566 19.0741 28.8668 19.074 28.2518V18.5492C19.074 17.992 19.2744 17.4527 19.6392 17.0315L23.7992 12.2245C23.9422 12.0591 24.1192 11.9264 24.3181 11.8355C24.517 11.7446 24.7332 11.6975 24.9519 11.6975C25.1705 11.6975 25.3867 11.7446 25.5856 11.8355C25.7845 11.9264 25.9615 12.0591 26.1046 12.2245L30.2613 17.0315C30.6256 17.453 30.8265 17.9916 30.8264 18.5487Z" fill="#FD4F5A"/>
<path d="M25.4688 30.5708H21.395C21.0903 30.5709 20.7885 30.511 20.507 30.3945C20.2254 30.2779 19.9696 30.107 19.7542 29.8916C19.5387 29.6761 19.3678 29.4203 19.2513 29.1388C19.1348 28.8573 19.0748 28.5555 19.075 28.2508V18.5487C19.075 17.9929 19.274 17.4513 19.6406 17.032L23.7987 12.224C23.9419 12.0587 24.119 11.9262 24.3179 11.8354C24.5168 11.7445 24.733 11.6975 24.9517 11.6975C25.1703 11.6975 25.3865 11.7445 25.5854 11.8354C25.7843 11.9262 25.9614 12.0587 26.1046 12.224L26.9893 13.248L23.715 17.032C23.3505 17.4533 23.1496 17.9916 23.1488 18.5487V28.2508C23.1487 28.5555 23.2086 28.8573 23.3252 29.1388C23.4417 29.4203 23.6126 29.6761 23.8281 29.8916C24.0435 30.107 24.2993 30.2779 24.5809 30.3945C24.8624 30.511 25.1641 30.5709 25.4688 30.5708Z" fill="#EF3C4E"/>
<path d="M28.56 27.1454C28.5602 27.2973 28.5303 27.4479 28.4723 27.5883C28.4142 27.7287 28.329 27.8564 28.2216 27.9639C28.1142 28.0714 27.9866 28.1567 27.8462 28.2149C27.7058 28.2731 27.5553 28.303 27.4033 28.303H22.4951C22.1884 28.3029 21.8943 28.181 21.6775 27.964C21.4607 27.7471 21.3389 27.453 21.3389 27.1463V20.9731C21.3389 20.6811 21.4549 20.401 21.6614 20.1945C21.8679 19.988 22.148 19.8719 22.44 19.8719H27.4509C27.7428 19.8719 28.0227 19.9878 28.2292 20.1941C28.4357 20.4004 28.5518 20.6803 28.552 20.9722L28.56 27.1454Z" fill="#FBDC43"/>
<path d="M25.392 28.3035H22.4956C22.3436 28.3036 22.1932 28.2738 22.0528 28.2157C21.9124 28.1576 21.7848 28.0724 21.6774 27.965C21.5699 27.8575 21.4847 27.73 21.4267 27.5896C21.3686 27.4492 21.3387 27.2987 21.3389 27.1468V20.9727C21.339 20.6808 21.455 20.401 21.6614 20.1947C21.8678 19.9883 22.1477 19.8724 22.4396 19.8724H25.336C25.0441 19.8724 24.7641 19.9884 24.5577 20.1948C24.3513 20.4012 24.2353 20.6812 24.2353 20.9731V27.1468C24.2356 27.4535 24.3575 27.7476 24.5744 27.9644C24.7913 28.1813 25.0853 28.3032 25.392 28.3035Z" fill="#EAC839"/>
<path d="M26.239 15.4258C26.2391 15.5949 26.2058 15.7624 26.1411 15.9186C26.0765 16.0749 25.9816 16.2168 25.862 16.3364C25.7425 16.456 25.6005 16.5508 25.4443 16.6155C25.288 16.6802 25.1206 16.7134 24.9515 16.7134C24.7788 16.7191 24.6068 16.69 24.4457 16.6279C24.2845 16.5658 24.1374 16.4719 24.0133 16.3518C23.8892 16.2317 23.7904 16.0878 23.723 15.9288C23.6556 15.7698 23.6208 15.5988 23.6208 15.4261C23.6208 15.2533 23.6556 15.0824 23.723 14.9233C23.7904 14.7643 23.8892 14.6205 24.0133 14.5004C24.1374 14.3803 24.2845 14.2864 24.4457 14.2242C24.6068 14.1621 24.7788 14.133 24.9515 14.1388C25.1206 14.1387 25.288 14.172 25.4443 14.2366C25.6005 14.3013 25.7425 14.3962 25.862 14.5157C25.9816 14.6353 26.0765 14.7773 26.1411 14.9335C26.2058 15.0897 26.2391 15.2567 26.239 15.4258Z" fill="#D9DEFB"/>
</svg>
