<svg width="32" height="32" viewBox="0 0 32 32" fill="none" xmlns="http://www.w3.org/2000/svg">
<path d="M23.3346 5.99999C23.7028 5.99999 24.0013 5.70151 24.0013 5.33332C24.0013 4.96513 23.7028 4.66666 23.3346 4.66666C22.9664 4.66666 22.668 4.96513 22.668 5.33332C22.668 5.70151 22.9664 5.99999 23.3346 5.99999Z" fill="#333333"/>
<path d="M24.6679 4.66668C25.0361 4.66668 25.3346 4.3682 25.3346 4.00001C25.3346 3.63182 25.0361 3.33334 24.6679 3.33334C24.2997 3.33334 24.0012 3.63182 24.0012 4.00001C24.0012 4.3682 24.2997 4.66668 24.6679 4.66668Z" fill="#333333"/>
<path d="M26.0014 3.33333C26.3696 3.33333 26.6681 3.03486 26.6681 2.66667C26.6681 2.29848 26.3696 2 26.0014 2C25.6332 2 25.3347 2.29848 25.3347 2.66667C25.3347 3.03486 25.6332 3.33333 26.0014 3.33333Z" fill="#333333"/>
<path d="M18.6666 10.6666C17.9826 9.79331 16.2333 9.33465 15.3333 9.33331C12.1946 9.33331 11.4186 11.2626 10.8533 12.672C10.3239 13.9826 9.98792 14.6666 8.66659 14.6666C4.01326 14.6666 1.33992 17.092 1.33326 21.32C1.33197 22.5469 1.5746 23.7619 2.04704 24.8943C2.51949 26.0266 3.21232 27.0538 4.08526 27.916C4.94591 28.7872 5.97092 29.4789 7.10088 29.9511C8.23084 30.4233 9.44328 30.6665 10.6679 30.6666H10.6799C14.9093 30.6613 17.3333 27.988 17.3333 23.3333C17.3333 21.8573 18.3813 21.3333 21.3333 21.3333C22.8053 21.3333 23.9999 20.1373 23.9999 18.6666C23.9999 17.196 22.8053 16 21.3333 16C20.3466 16 19.7146 15.5146 19.5773 15.0906C19.2293 14.016 19.3639 11.5546 18.6679 10.6666H18.6666Z" fill="#AB6327"/>
<path opacity="0.2" d="M8.66668 15C9.98935 15 10.3253 14.316 10.8533 13.0053C11.4187 11.596 12.1947 9.66665 15.3333 9.66665C16.2333 9.66798 17.9827 10.1266 18.6667 11C19.364 11.888 19.2293 14.3493 19.5773 15.424C19.7147 15.848 20.3453 16.3333 21.3347 16.3333C22.748 16.3333 23.908 17.4413 23.996 18.8333C23.9987 18.7773 24.0013 18.724 24.0013 18.6666C24.0013 17.196 22.8053 16 21.3347 16C20.3453 16 19.7147 15.5146 19.5773 15.0906C19.2293 14.016 19.364 11.5546 18.668 10.6666C17.9827 9.79331 16.2333 9.33465 15.3347 9.33331C12.1947 9.33331 11.4187 11.2626 10.852 12.672C10.3253 13.9826 9.98935 14.6666 8.66801 14.6666C4.01201 14.6666 1.34001 17.092 1.33468 21.32C1.33468 21.392 1.33201 21.2626 1.33468 21.3333C1.39335 17.184 4.05868 15 8.66668 15Z" fill="white"/>
<path opacity="0.1" d="M21.4054 21C18.412 21 17.352 21.524 17.352 23C17.352 27.6547 14.8947 30.328 10.6094 30.3333H10.5987C8.09872 30.3355 5.69987 29.3463 3.92803 27.5827C3.31021 26.9718 2.77904 26.2792 2.34937 25.524C2.79915 26.4074 3.38497 27.2145 4.08537 27.916C4.94627 28.7873 5.97151 29.479 7.10169 29.9512C8.23187 30.4234 9.44452 30.6666 10.6694 30.6667H10.6667C14.8947 30.6613 17.3334 27.988 17.3334 23.3333C17.3334 21.8573 18.38 21.3333 21.3334 21.3333C22.596 21.3333 23.6534 20.4493 23.9294 19.2693C23.7326 19.7792 23.386 20.2175 22.9352 20.5265C22.4844 20.8354 21.9506 21.0005 21.404 21H21.4054Z" fill="#010101"/>
<path d="M6.19556 21.8051L7.13837 20.8622L11.1378 24.8616L10.195 25.8045L6.19556 21.8051Z" fill="#FFDEB9"/>
<path opacity="0.1" d="M6.19556 21.8051L7.13837 20.8622L11.1378 24.8616L10.195 25.8045L6.19556 21.8051Z" fill="#010101"/>
<path d="M12.6667 16.6667L15.3334 19.3333L26.6667 7.33334L24.6667 5.33334L12.6667 16.6667Z" fill="#D79349"/>
<path d="M14.0013 21.3334C15.8423 21.3334 17.3346 19.841 17.3346 18C17.3346 16.1591 15.8423 14.6667 14.0013 14.6667C12.1604 14.6667 10.668 16.1591 10.668 18C10.668 19.841 12.1604 21.3334 14.0013 21.3334Z" fill="#333333"/>
<path d="M14.0013 21.3334C15.8423 21.3334 17.3346 19.841 17.3346 18C17.3346 16.1591 15.8423 14.6667 14.0013 14.6667C12.1604 14.6667 10.668 16.1591 10.668 18C10.668 19.841 12.1604 21.3334 14.0013 21.3334Z" fill="url(#paint0_linear_48_3364)"/>
<path opacity="0.1" d="M14 21.3334C13.1449 21.3318 12.3228 21.0027 11.7028 20.4138C11.0828 19.8248 10.7121 19.0206 10.6667 18.1667C10.664 18.2227 10.6667 18.276 10.6667 18.3334C10.6667 20.1707 12.1627 21.6667 14 21.6667C15.8374 21.6667 17.3334 20.1707 17.3334 18.3334C17.3334 18.276 17.3374 18.2227 17.3334 18.1667C17.288 19.0206 16.9173 19.8248 16.2973 20.4138C15.6773 21.0027 14.8552 21.3318 14 21.3334Z" fill="white"/>
<path opacity="0.1" d="M11.8759 15.8734C12.8733 14.8747 14.3199 14.5894 15.5279 15.0374C14.8997 14.7134 14.1849 14.597 13.4863 14.7048C12.7877 14.8126 12.1413 15.1391 11.6399 15.6374C11.1412 16.139 10.8142 16.7857 10.7059 17.4847C10.5977 18.1837 10.7137 18.899 11.0373 19.528C10.5893 18.32 10.8773 16.8707 11.8759 15.8734Z" fill="#010101"/>
<path d="M30.0813 1.92001C29.896 1.73392 29.6757 1.58626 29.4332 1.4855C29.1906 1.38475 28.9306 1.33289 28.668 1.33289C28.4053 1.33289 28.1453 1.38475 27.9027 1.4855C27.6602 1.58626 27.44 1.73392 27.2546 1.92001L23.0653 6.10667C23.0026 6.16916 22.9531 6.24349 22.9194 6.32534C22.8858 6.40719 22.8688 6.49492 22.8694 6.5834C22.87 6.67189 22.8883 6.75937 22.923 6.84074C22.9578 6.92211 23.0084 6.99574 23.072 7.05734L25.12 9.04801C25.2456 9.17008 25.4142 9.23781 25.5893 9.23656C25.7645 9.23532 25.9321 9.16519 26.056 9.04134L27.768 7.32934L27.5546 6.89867C27.2586 6.30934 27.4173 5.66001 27.704 5.04534C28.0066 5.21601 28.3306 5.33201 28.668 5.33201C29.18 5.33201 29.692 5.13734 30.0813 4.74801C30.4563 4.37272 30.667 3.86389 30.667 3.33334C30.667 2.80279 30.4563 2.29396 30.0813 1.91867V1.92001Z" fill="#AB6327"/>
<path opacity="0.2" d="M23.0652 6.44L27.2532 2.25333C27.6285 1.87872 28.137 1.66831 28.6672 1.66831C29.1975 1.66831 29.706 1.87872 30.0812 2.25333C30.4279 2.6 30.5959 3.04533 30.6346 3.5C30.6826 2.93333 30.5146 2.35333 30.0812 1.91866C29.8959 1.73257 29.6757 1.58492 29.4331 1.48416C29.1906 1.38341 28.9305 1.33154 28.6679 1.33154C28.4053 1.33154 28.1452 1.38341 27.9027 1.48416C27.6602 1.58492 27.4399 1.73257 27.2546 1.91866L23.0652 6.108C22.9847 6.19038 22.9272 6.29254 22.8986 6.40419C22.8701 6.51584 22.8714 6.63304 22.9026 6.744C22.9286 6.63031 22.9848 6.52441 23.0652 6.44Z" fill="white"/>
<path d="M24.3346 6.66667C24.5186 6.66667 24.6679 6.51743 24.6679 6.33333C24.6679 6.14924 24.5186 6 24.3346 6C24.1505 6 24.0012 6.14924 24.0012 6.33333C24.0012 6.51743 24.1505 6.66667 24.3346 6.66667Z" fill="#E6E6E5"/>
<path d="M25.6681 5.33332C25.8521 5.33332 26.0014 5.18408 26.0014 4.99999C26.0014 4.81589 25.8521 4.66666 25.6681 4.66666C25.484 4.66666 25.3347 4.81589 25.3347 4.99999C25.3347 5.18408 25.484 5.33332 25.6681 5.33332Z" fill="#E6E6E5"/>
<path d="M27.0013 4.00001C27.1854 4.00001 27.3346 3.85077 27.3346 3.66668C27.3346 3.48258 27.1854 3.33334 27.0013 3.33334C26.8172 3.33334 26.668 3.48258 26.668 3.66668C26.668 3.85077 26.8172 4.00001 27.0013 4.00001Z" fill="#E6E6E5"/>
<path d="M30.0814 1.92001C29.8961 1.73392 29.6758 1.58626 29.4333 1.4855C29.1907 1.38475 28.9307 1.33289 28.6681 1.33289C28.4054 1.33289 28.1454 1.38475 27.9028 1.4855C27.6603 1.58626 27.4401 1.73392 27.2547 1.92001L26.6414 2.53334C26.6127 2.38419 26.5333 2.24957 26.4167 2.15234C26.3 2.05511 26.1533 2.00129 26.0014 2.00001C25.8246 2.00001 25.655 2.07024 25.53 2.19527C25.405 2.32029 25.3347 2.48986 25.3347 2.66667C25.3347 2.98667 25.5654 3.24267 25.8667 3.30667L25.3067 3.86667C25.2781 3.71753 25.1987 3.5829 25.082 3.48567C24.9653 3.38845 24.8186 3.33462 24.6667 3.33334C24.4899 3.33334 24.3203 3.40358 24.1953 3.5286C24.0703 3.65363 24.0001 3.8232 24.0001 4.00001C24.0001 4.32001 24.2321 4.57601 24.5334 4.64001L23.9734 5.20001C23.9447 5.05086 23.8653 4.91623 23.7487 4.81901C23.632 4.72178 23.4853 4.66795 23.3334 4.66667C23.1566 4.66667 22.987 4.73691 22.862 4.86194C22.737 4.98696 22.6667 5.15653 22.6667 5.33334C22.6667 5.65334 22.8987 5.90934 23.2001 5.97334L23.0654 6.10667C22.9603 6.21319 22.8947 6.35238 22.8794 6.50124C22.8641 6.65009 22.9001 6.7997 22.9814 6.92534L18.7894 10.8853C18.7494 10.8107 18.7147 10.7267 18.6681 10.6667C17.9827 9.79334 16.2334 9.33467 15.3347 9.33334C12.1947 9.33334 11.4187 11.2627 10.8521 12.672C10.3254 13.9827 9.98939 14.6667 8.66806 14.6667C4.01206 14.6667 1.34006 17.092 1.33472 21.32C1.33326 22.5469 1.57568 23.7618 2.04789 24.8941C2.52011 26.0265 3.21269 27.0537 4.08539 27.916C4.94605 28.7872 5.97106 29.479 7.10102 29.9511C8.23098 30.4233 9.44341 30.6665 10.6681 30.6667H10.6801C14.9094 30.6613 17.3334 27.988 17.3334 23.3333C17.3334 21.8573 18.3814 21.3333 21.3334 21.3333C22.8054 21.3333 24.0001 20.1373 24.0001 18.6667C24.0001 17.196 22.8054 16 21.3334 16C20.3467 16 19.7147 15.5147 19.5774 15.0907C19.5587 15.032 19.5454 14.9573 19.5294 14.8907L25.0827 9.01067L25.1201 9.04801C25.2457 9.17008 25.4143 9.23781 25.5894 9.23656C25.7646 9.23531 25.9322 9.16519 26.0561 9.04134L27.7681 7.32934L27.5547 6.89867C27.2587 6.30934 27.4174 5.66001 27.7041 5.04534C28.0067 5.21601 28.3307 5.33201 28.6681 5.33201C29.1801 5.33201 29.6921 5.13734 30.0814 4.74801C30.4564 4.37272 30.6671 3.86389 30.6671 3.33334C30.6671 2.80279 30.4564 2.29396 30.0814 1.91867V1.92001Z" fill="url(#paint1_linear_48_3364)"/>
<defs>
<linearGradient id="paint0_linear_48_3364" x1="11.8933" y1="15.8934" x2="15.624" y2="19.6227" gradientUnits="userSpaceOnUse">
<stop stop-color="#010101" stop-opacity="0.1"/>
<stop offset="1" stop-color="#010101" stop-opacity="0"/>
</linearGradient>
<linearGradient id="paint1_linear_48_3364" x1="5.81739" y1="9.91467" x2="24.3321" y2="18.5493" gradientUnits="userSpaceOnUse">
<stop stop-color="white" stop-opacity="0.2"/>
<stop offset="1" stop-color="white" stop-opacity="0"/>
</linearGradient>
</defs>
</svg>
