<svg width="32" height="32" viewBox="0 0 32 32" fill="none" xmlns="http://www.w3.org/2000/svg">
<path d="M14.9243 4.75248C14.8029 3.3012 13.7033 2.1556 12.3111 2.05881C11.4734 2.00139 10.3234 1.97405 8.74802 2.04077C7.17264 2.10748 6.01886 2.2327 5.17293 2.36066C3.77253 2.57666 2.57665 3.77311 2.36065 5.17299C2.2327 6.01893 2.11076 7.17328 2.04076 8.74814C1.97077 10.323 2.0003 11.473 2.05881 12.3113C2.15614 13.7035 3.30118 14.8032 4.75243 14.9245C5.62734 14.9956 6.82158 15.0459 8.4593 15.041C10.097 15.0361 11.2945 14.9792 12.1673 14.9005C12.8713 14.8378 13.5309 14.5297 14.0307 14.0299C14.5305 13.53 14.8387 12.8704 14.9013 12.1664C14.9801 11.2942 15.0375 10.0966 15.0419 8.45832C15.0463 6.82003 14.9954 5.62467 14.9243 4.75248ZM29.6391 5.17299C29.4232 3.77311 28.2267 2.57666 26.8269 2.36066C25.9809 2.2327 24.8266 2.11076 23.2518 2.04077C21.677 1.97077 20.527 2.0003 19.6887 2.05881C18.2965 2.1556 17.1969 3.3012 17.0755 4.75248C17.0044 5.6274 16.9541 6.82167 16.959 8.45942C16.9639 10.0972 17.0208 11.2947 17.0995 12.1674C17.1621 12.8715 17.4702 13.5312 17.97 14.0311C18.4699 14.5309 19.1295 14.839 19.8336 14.9016C20.7085 14.9803 21.9033 15.0377 23.5416 15.0421C25.1799 15.0465 26.3763 14.9967 27.2485 14.9256C28.6992 14.8042 29.8448 13.704 29.9421 12.3124C30.0006 11.4741 30.0268 10.3246 29.9601 8.74923C29.8934 7.17383 29.7671 6.01893 29.6391 5.17299ZM14.9003 19.8329C14.8377 19.1288 14.5296 18.4691 14.0298 17.9692C13.5299 17.4694 12.8703 17.1613 12.1662 17.0987C11.2913 17.02 10.0965 16.9626 8.45821 16.9582C6.81994 16.9538 5.62351 17.0036 4.75134 17.0747C3.30172 17.1972 2.1556 18.2968 2.05881 19.689C2.00139 20.5273 1.97405 21.6768 2.04076 23.2522C2.10748 24.8276 2.2327 25.9814 2.36065 26.8273C2.57665 28.2272 3.77308 29.4237 5.17293 29.6396C6.01722 29.7676 7.17155 29.8912 8.74638 29.9595C10.3212 30.0279 11.4712 30 12.3094 29.9415C13.7005 29.8447 14.8013 28.6986 14.9227 27.2478C14.9938 26.3756 15.0441 25.1786 15.0391 23.5409C15.0342 21.9031 14.979 20.7029 14.9003 19.8329ZM29.9437 19.689C29.8469 18.2979 28.7008 17.1972 27.2501 17.0758C26.3779 17.0047 25.181 16.9544 23.5432 16.9593C21.9055 16.9642 20.7074 17.0211 19.8353 17.0998C19.1312 17.1624 18.4715 17.4705 17.9717 17.9703C17.4719 18.4702 17.1637 19.1299 17.1012 19.834C17.0224 20.7089 16.965 21.9037 16.9607 23.542C16.9563 25.1803 17.006 26.3767 17.0771 27.2489C17.1985 28.6997 18.2993 29.8458 19.6904 29.9426C20.5286 30.0011 21.678 30.0273 23.2534 29.9606C24.8288 29.8939 25.9826 29.7687 26.8269 29.6407C28.2289 29.4247 29.4248 28.2283 29.6408 26.8268C29.7687 25.9825 29.8923 24.8281 29.9607 23.2533C30.029 21.6784 29.9984 20.5273 29.9437 19.689Z" fill="#AEAEB2"/>
</svg>
