<svg width="32" height="32" viewBox="0 0 32 32" fill="none" xmlns="http://www.w3.org/2000/svg">
<g clip-path="url(#clip0_44_2610)">
<path d="M1.94995 26.4C1.69995 26.35 1.49995 26.1 1.54995 25.85L5.49995 1.10001C5.54995 0.850012 5.79995 0.700012 6.04995 0.700012L30.7999 4.65001C31.0499 4.70001 31.2499 4.95001 31.1999 5.20001L27.2499 29.95C27.1999 30.2 26.9499 30.4 26.6999 30.35L1.94995 26.4Z" fill="#516266"/>
<path d="M7.29991 30.65C7.04991 30.7 6.84991 30.55 6.74991 30.3L1.34991 7.3C1.29991 7.05 1.44991 6.85 1.69991 6.75L24.6999 1.35C24.9499 1.3 25.1499 1.45 25.2499 1.7L30.6999 24.75C30.7499 25 30.5999 25.2 30.3499 25.3L7.29991 30.65Z" fill="#FFD629"/>
<path d="M24.5 0.549993C25.2 0.399993 25.85 0.799993 26 1.49999L31.45 24.5C31.6 25.2 31.2 25.85 30.5 26L7.5 31.45C6.8 31.6 6.15 31.2 6 30.5" fill="#FFC200"/>
<path d="M13.0001 15C12.5501 15.1 12.2001 15.35 11.9501 15.7C11.7001 15.55 11.4001 15.45 11.1001 15.55C10.8501 15.6 10.6001 15.75 10.5001 16C10.3001 15.9 10.1001 15.85 9.90014 15.85C9.65014 15.35 9.05014 15.05 8.50014 15.15C8.30014 15.2 8.10014 15.3 8.00014 15.4C7.85014 15.1 7.55014 14.9 7.20014 14.9C7.20014 14.8 7.20014 14.75 7.15014 14.65C7.05014 14.25 6.85014 13.9 6.55014 13.65C6.80014 13.5 6.90014 13.2 6.85014 12.9C6.75014 12.5 6.35014 12.25 5.95014 12.35H5.90014V12.25C5.65014 11.25 4.65014 10.6 3.60014 10.85C2.60014 11.1 1.95014 12.1 2.20014 13.15C2.35014 13.7 2.70014 14.15 3.20014 14.4C3.05014 14.8 3.00014 15.2 3.10014 15.65C3.25014 16.4 3.80014 16.9 4.50014 17.15C4.30014 17.65 4.25014 18.2 4.35014 18.75C4.70014 20.15 6.10014 21.05 7.50014 20.7C8.40014 20.5 9.05014 19.85 9.35014 19.05C9.60014 19.1 9.90014 19.15 10.2001 19.05C10.9501 18.85 11.4501 18.2 11.4501 17.5H11.5501C11.6001 17.5 11.7001 17.45 11.7501 17.4C12.1001 18.15 12.9001 18.6 13.7501 18.4C14.7001 18.2 15.3001 17.25 15.0501 16.3C14.9001 15.35 13.9501 14.75 13.0001 15ZM28.7501 13.15L28.0501 10.15C27.7001 9.90001 27.3001 9.70001 26.8501 9.65001C27.2501 9.10001 27.4001 8.35002 27.2501 7.65002C26.9501 6.30002 25.5501 5.45002 24.2001 5.80002C22.8501 6.10002 22.0001 7.50002 22.3501 8.85002V8.90001C21.3501 9.25001 20.7001 10.25 20.8501 11.3C20.7501 11.3 20.6001 11.25 20.4501 11.3C20.0501 11.4 19.7501 11.75 19.7501 12.15C18.7501 12.55 18.2001 13.6 18.4501 14.65C18.7001 15.65 19.6001 16.35 20.6501 16.3C20.9001 17.25 21.9001 17.85 22.8501 17.6C23.5001 17.45 23.9501 17 24.1501 16.45C24.5501 16.55 24.9501 16.55 25.3501 16.45C25.9001 16.3 26.3501 16.05 26.7001 15.65C27.0501 16.1 27.6001 16.3 28.1501 16.2C28.7001 16.05 29.1001 15.6 29.2001 15.1L28.9501 14C28.8501 13.85 28.7001 13.7 28.5001 13.6C28.6001 13.4 28.7001 13.25 28.7501 13.15Z" fill="white"/>
<path d="M13.15 15.55C12.7 15.65 12.35 15.9 12.1 16.25C11.85 16.1 11.55 16 11.25 16.1C11 16.15 10.75 16.3 10.65 16.55C10.45 16.45 10.25 16.4 10.05 16.4C9.80005 15.9 9.20005 15.6 8.65005 15.7C8.45005 15.75 8.25005 15.85 8.15005 15.95C8.00005 15.65 7.70005 15.45 7.35005 15.45C7.35005 15.35 7.35005 15.3 7.30005 15.2C7.20005 14.8 7.00005 14.45 6.70005 14.15C6.95005 14 7.05005 13.7 7.00005 13.4C6.90005 13 6.50005 12.75 6.10005 12.85H6.05005V12.75C5.80005 11.75 4.80005 11.1 3.75005 11.35C2.75005 11.6 2.10005 12.6 2.35005 13.65C2.50005 14.2 2.85005 14.65 3.35005 14.9C3.20005 15.3 3.15005 15.7 3.25005 16.15C3.40005 16.9 3.95005 17.4 4.65005 17.65C4.45005 18.15 4.40005 18.7 4.50005 19.25C4.85005 20.65 6.25005 21.55 7.65005 21.2C8.55005 21 9.20005 20.35 9.50005 19.55C9.75005 19.6 10.05 19.65 10.35 19.55C11.1 19.35 11.6 18.7 11.6 18H11.7C11.75 18 11.85 17.95 11.9 17.9C12.25 18.65 13.05 19.1 13.9 18.9C14.85 18.7 15.45 17.75 15.2 16.8C15 15.9 14.05 15.35 13.15 15.55ZM28.9 13.7L28.2 10.7C27.85 10.45 27.45 10.25 27 10.2C27.4 9.65 27.55 8.9 27.4 8.2C27.1 6.85 25.7 6 24.35 6.35C23 6.65 22.15 8.05 22.5 9.4V9.45C21.5 9.8 20.85 10.8 21 11.85H20.6C20.2 11.95 19.9 12.3 19.9 12.7C18.95 13.1 18.35 14.15 18.6 15.2C18.85 16.2 19.75 16.9 20.8 16.85C21.05 17.8 22.05 18.4 23 18.15C23.65 18 24.1 17.55 24.3 17C24.7 17.1 25.1 17.1 25.5 17C26.05 16.85 26.5 16.6 26.85 16.2C27.2 16.65 27.75 16.85 28.3 16.75C28.85 16.6 29.25 16.15 29.35 15.65L29.1 14.55C29 14.4 28.85 14.25 28.65 14.15C28.75 13.95 28.85 13.85 28.9 13.7Z" fill="#FFF5CC"/>
<path d="M4.62354 19.6975L28.0265 14.154L29.225 19.214L5.82204 24.7575L4.62354 19.6975Z" fill="#00ADDB"/>
<path d="M24.5002 0.550014L1.45015 6.00001C0.800151 6.15001 0.350151 6.85001 0.500151 7.50001L6.00015 30.55C6.15015 31.25 6.85015 31.65 7.50015 31.5L30.5501 26C31.2502 25.85 31.6502 25.15 31.5002 24.5L26.0002 1.45001C25.8502 0.800015 25.1502 0.350014 24.5002 0.550014ZM24.5002 2.20001L28.0501 17.15L5.75015 22.45L2.20015 7.50001L24.5002 2.20001Z" fill="#E8E8E8"/>
<path d="M7.50015 31.45L8.90015 31.1L15.7002 20.05L5.75015 22.4L2.20015 7.50001L24.5002 2.20001L25.1002 4.80001L26.3001 2.85001L26.0002 1.45001C25.8502 0.750006 25.1502 0.350006 24.5002 0.500006L1.45015 6.00001C0.800151 6.15001 0.350151 6.85001 0.500151 7.50001L6.00015 30.55C6.15015 31.2 6.85015 31.65 7.50015 31.45Z" fill="#F2F2F2"/>
<path d="M23.1502 15.3L22.5002 15.45L16.1502 10.15C15.8502 9.9 15.3502 10 15.2002 10.4L12.8002 16L11.6002 15C11.3002 14.75 10.8002 14.85 10.6502 15.25L9.15016 18.7L8.50016 18.8C8.15016 18.9 7.95016 19.2 8.05016 19.55C8.15016 19.9 8.45016 20.1 8.80016 20L9.55016 19.8C9.65016 19.8 9.75016 19.8 9.85016 19.75L12.3502 19.15H12.5002C12.5502 19.15 12.6002 19.1 12.6502 19.1L14.3502 18.7H14.5002C14.5502 18.7 14.6002 18.65 14.6502 18.65L22.4002 16.8C22.5002 16.8 22.6002 16.8 22.7002 16.75L23.4502 16.55C23.8002 16.45 24.0002 16.15 23.9002 15.8C23.8002 15.45 23.4502 15.25 23.1502 15.3Z" fill="#19CBF4"/>
<path d="M23.1502 15.3L22.5002 15.45L16.1502 10.15C15.8502 9.9 15.3502 10 15.2002 10.4L13.9502 16.9L11.6002 14.95C11.3002 14.7 10.8002 14.8 10.6502 15.2L10.1002 18.4L8.50016 18.8C8.15016 18.9 7.95016 19.2 8.05016 19.55C8.15016 19.9 8.45016 20.1 8.80016 20L9.55016 19.8C9.65016 19.8 9.75016 19.8 9.85016 19.75L12.3502 19.15H12.5002C12.5502 19.15 12.6002 19.1 12.6502 19.1L14.3502 18.7H14.5002C14.5502 18.7 14.6002 18.65 14.6502 18.65L22.4002 16.8C22.5002 16.8 22.6002 16.8 22.7002 16.75L23.4502 16.55C23.8002 16.45 24.0002 16.15 23.9002 15.8C23.8002 15.45 23.4502 15.25 23.1502 15.3Z" fill="#00ADDB"/>
<path d="M11.1 6.55001C11.1552 6.55001 11.2 6.50523 11.2 6.45001C11.2 6.39478 11.1552 6.35001 11.1 6.35001C11.0448 6.35001 11 6.39478 11 6.45001C11 6.50523 11.0448 6.55001 11.1 6.55001Z" fill="#EAE4BE"/>
<path d="M13.0498 6.7C13.0998 6.85 12.9998 7 12.8498 7.05C12.6998 7.1 12.5498 7 12.4998 6.85C12.4498 6.7 12.5498 6.55 12.6998 6.5C12.8498 6.5 12.9998 6.55 13.0498 6.7Z" fill="#EAE4BE"/>
<path d="M14.1999 5.35C14.2275 5.35 14.2499 5.32761 14.2499 5.3C14.2499 5.27239 14.2275 5.25 14.1999 5.25C14.1723 5.25 14.1499 5.27239 14.1499 5.3C14.1499 5.32761 14.1723 5.35 14.1999 5.35Z" fill="#EAE4BE"/>
<path d="M15.75 8.05001C15.9156 8.05001 16.05 7.9157 16.05 7.75001C16.05 7.58433 15.9156 7.45001 15.75 7.45001C15.5843 7.45001 15.45 7.58433 15.45 7.75001C15.45 7.9157 15.5843 8.05001 15.75 8.05001Z" fill="#EAE4BE"/>
<path d="M11.2499 8.2C11.3051 8.2 11.3499 8.15523 11.3499 8.1C11.3499 8.04477 11.3051 8 11.2499 8C11.1947 8 11.1499 8.04477 11.1499 8.1C11.1499 8.15523 11.1947 8.2 11.2499 8.2Z" fill="#EAE4BE"/>
<path d="M13.15 8.50001C13.2604 8.50001 13.35 8.41046 13.35 8.30001C13.35 8.18955 13.2604 8.10001 13.15 8.10001C13.0395 8.10001 12.95 8.18955 12.95 8.30001C12.95 8.41046 13.0395 8.50001 13.15 8.50001Z" fill="#EAE4BE"/>
<path d="M8.7501 7.34999C8.83294 7.34999 8.9001 7.28283 8.9001 7.19999C8.9001 7.11714 8.83294 7.04999 8.7501 7.04999C8.66725 7.04999 8.6001 7.11714 8.6001 7.19999C8.6001 7.28283 8.66725 7.34999 8.7501 7.34999Z" fill="#EAE4BE"/>
<path d="M5.73853 22.462L28.8985 16.9765L29.1745 18.144L6.01503 23.63L5.73853 22.462Z" fill="#E8E8E8"/>
<path d="M10.0999 12.55C11.0388 12.55 11.7999 11.7889 11.7999 10.85C11.7999 9.91111 11.0388 9.14999 10.0999 9.14999C9.16102 9.14999 8.3999 9.91111 8.3999 10.85C8.3999 11.7889 9.16102 12.55 10.0999 12.55Z" fill="#FFFB5F"/>
<path d="M9.6181 8.35251L10.1131 7.85751L10.6081 8.35251L10.1131 8.84751L9.6181 8.35251ZM9.6001 13.36L10.0951 12.865L10.5901 13.36L10.0951 13.855L9.6001 13.36Z" fill="#FFFB5F"/>
<path d="M11.55 8.70001H12.25V9.40001H11.55V8.70001ZM8 12.3H8.7V13H8V12.3Z" fill="#FFFB5F"/>
<path d="M12.606 10.34L13.101 10.835L12.6055 11.33L12.1105 10.835L12.606 10.34ZM7.59853 10.3565L8.09353 10.852L7.59753 11.347L7.10303 10.851L7.59853 10.3565Z" fill="#FFFB5F"/>
<path d="M11.55 12.3H12.25V13H11.55V12.3ZM8 8.70001H8.7V9.40001H8V8.70001Z" fill="#FFFB5F"/>
</g>
<defs>
<clipPath id="clip0_44_2610">
<rect width="32" height="32" fill="white"/>
</clipPath>
</defs>
</svg>
