<svg width="32" height="32" viewBox="0 0 32 32" fill="none" xmlns="http://www.w3.org/2000/svg">
<path d="M6.5 28.5V11.3285L10.8285 7.00005H21.1715L25.5 11.3285V29C25.5 29.3979 25.342 29.7794 25.0607 30.0607C24.7794 30.342 24.3978 30.5 24 30.5" fill="#F7AA4D"/>
<path d="M11.3065 27.5H6.5V7.00005H22V16.8065C22 19.6426 20.8734 22.3626 18.8679 24.368C16.8625 26.3734 14.1426 27.5 11.3065 27.5Z" fill="#F9B570"/>
<path d="M22.5 11H9.5V22H22.5V11Z" fill="#F2F2F2"/>
<path d="M24.8335 5.0051L30.157 10.3286H28.7425V11.7426H27.3285V13.1571L18.843 4.6716H20.2575V3.2576H21.6715V1.8431L23.8285 4.0001L24.8335 5.0051Z" fill="#68BED8"/>
<path d="M25.5 15.5L26.5 16.5L27.5 15.5V24.5L26.5 23.5L25.5 24.5V15.5Z" fill="#68BED8"/>
<path d="M24 30.5C23.6022 30.5 23.2206 30.342 22.9393 30.0607C22.658 29.7794 22.5 29.3979 22.5 29V28.5H4.5V29C4.5 29.3979 4.65804 29.7794 4.93934 30.0607C5.22064 30.342 5.60218 30.5 6 30.5H24Z" fill="#E08F36"/>
<path d="M1.84302 10.3286H3.25752V11.7426H4.67152V13.1571L13.157 4.6716H11.7425V3.2576H10.3285V1.8431L1.84302 10.3286Z" fill="#68BED8"/>
<path d="M4.5 15.5L5.5 16.5L6.5 15.5V24.5L5.5 23.5L4.5 24.5V15.5Z" fill="#68BED8"/>
<path d="M14 23.5H9V24.5H14V23.5Z" fill="#C48737"/>
<path d="M23 23.5H15V24.5H23V23.5Z" fill="#C48737"/>
<path d="M23 25.5H9V26.5H23V25.5Z" fill="#C48737"/>
</svg>
