<svg width="25" height="24" viewBox="0 0 25 24" fill="none" xmlns="http://www.w3.org/2000/svg">
<path opacity="0.2" d="M22 8.4L13.6875 0H6.5625C5.61767 0 4.71153 0.379285 4.04343 1.05442C3.37533 1.72955 3 2.64522 3 3.6V20.4C3 21.3548 3.37533 22.2705 4.04343 22.9456C4.71153 23.6207 5.61767 24 6.5625 24H18.4375C19.3823 24 20.2885 23.6207 20.9566 22.9456C21.6247 22.2705 22 21.3548 22 20.4V8.4Z" fill="#03C373"/>
<path d="M22 8.3125H16.1667C15.5478 8.3125 14.9543 8.06228 14.5168 7.61688C14.0792 7.17148 13.8333 6.56739 13.8333 5.9375V0L22 8.3125ZM16.1667 19H9.16667C8.85725 19 8.5605 18.8749 8.34171 18.6522C8.12292 18.4295 8 18.1274 8 17.8125C8 17.4976 8.12292 17.1955 8.34171 16.9728C8.5605 16.7501 8.85725 16.625 9.16667 16.625H16.1667C16.4761 16.625 16.7728 16.7501 16.9916 16.9728C17.2104 17.1955 17.3333 17.4976 17.3333 17.8125C17.3333 18.1274 17.2104 18.4295 16.9916 18.6522C16.7728 18.8749 16.4761 19 16.1667 19ZM16.1667 14.25H9.16667C8.85725 14.25 8.5605 14.1249 8.34171 13.9022C8.12292 13.6795 8 13.3774 8 13.0625C8 12.7476 8.12292 12.4455 8.34171 12.2228C8.5605 12.0001 8.85725 11.875 9.16667 11.875H16.1667C16.4761 11.875 16.7728 12.0001 16.9916 12.2228C17.2104 12.4455 17.3333 12.7476 17.3333 13.0625C17.3333 13.3774 17.2104 13.6795 16.9916 13.9022C16.7728 14.1249 16.4761 14.25 16.1667 14.25ZM10.3333 9.5H9.16667C8.85725 9.5 8.5605 9.37489 8.34171 9.15219C8.12292 8.92949 8 8.62744 8 8.3125C8 7.99756 8.12292 7.69551 8.34171 7.47281C8.5605 7.25011 8.85725 7.125 9.16667 7.125H10.3333C10.6428 7.125 10.9395 7.25011 11.1583 7.47281C11.3771 7.69551 11.5 7.99756 11.5 8.3125C11.5 8.62744 11.3771 8.92949 11.1583 9.15219C10.9395 9.37489 10.6428 9.5 10.3333 9.5Z" fill="#03C373"/>
</svg>
