<svg width="32" height="32" viewBox="0 0 32 32" fill="none" xmlns="http://www.w3.org/2000/svg">
<path d="M13.5623 22.8145C13.5623 22.8145 14.1057 23.3764 14.1057 25.5352H18.5686C18.5686 23.3764 19.1121 22.8145 19.1121 22.8145H13.5623Z" fill="url(#paint0_linear_34_2573)"/>
<path d="M14.635 9.61835C14.635 9.61835 14.7603 12.1885 13.7783 12.4809L9.45679 16.3166C9.50088 16.8215 9.57868 17.323 9.68968 17.8176C9.87848 18.2157 10.0022 18.5693 9.96616 18.8138C10.3511 19.9712 10.9973 21.2024 12.075 22.2433C12.2081 22.2808 12.3438 22.4061 12.4823 22.6096C13.3698 23.3502 14.6807 24.0816 16.1041 24.3627C16.2738 24.3026 16.4596 24.3057 16.6272 24.3714C17.6768 24.2283 18.6513 23.5468 19.6729 22.4666C19.745 22.2899 19.8702 22.1399 20.0313 22.0374C20.6156 21.2746 21.0872 20.4317 21.4314 19.5346C21.3957 19.3068 21.5165 19.0845 21.7313 18.8653C22.4237 17.5728 22.9975 16.7271 23.1508 13.9197C23.1578 13.7207 23.0897 13.5264 22.9601 13.3753C21.3879 13.1822 20.1472 12.3221 19.1061 11.0603C19.1061 11.0603 16.8704 11.1021 17.351 7.57546C17.3513 7.57527 15.1175 7.02891 14.635 9.61835Z" fill="url(#paint1_linear_34_2573)"/>
<path d="M22.9602 13.3754C22.8898 13.2929 22.8033 13.2256 22.7059 13.1778L21.0706 12.3765L20.705 12.1315L19.9297 13.4144L18.0763 15.2256L14.7783 15.1246L12.1077 13.3806L9.43246 14.8212C9.40039 15.3195 9.40865 15.8196 9.45717 16.3166C10.7476 17.6977 17.716 20.4404 19.6997 16.291C19.6997 16.291 21.0447 16.2149 21.1973 14.642C21.1969 14.6422 22.3398 14.3119 22.9602 13.3754Z" fill="url(#paint2_linear_34_2573)"/>
<path d="M17.3955 9.50641C17.2749 9.02641 17.2391 8.39793 17.3512 7.57528C17.3512 7.57528 15.1176 7.02891 14.6349 9.61835C14.6487 10.0133 14.6343 10.4088 14.5918 10.8017L17.3955 9.50641Z" fill="url(#paint3_linear_34_2573)"/>
<path d="M11.7126 5.27469L11.8619 6.27309C11.8777 6.37918 11.8722 6.48737 11.8457 6.5913C11.8191 6.69523 11.7721 6.79282 11.7074 6.87834C11.5173 7.12675 11.3463 7.38919 11.1959 7.66343C11.1694 7.71294 11.1531 7.7673 11.1481 7.82324C11.1431 7.87918 11.1495 7.93556 11.1668 7.98898C11.1842 8.0424 11.2121 8.09177 11.249 8.13413C11.2859 8.17648 11.331 8.21095 11.3815 8.23546L11.9293 8.50471L12.3312 10.5143C13.3161 10.4274 14.2832 10.1975 15.2019 9.83207C15.3139 9.78591 15.4152 9.7172 15.4995 9.63022C15.5838 9.54324 15.6494 9.43985 15.692 9.32647C15.9063 8.75584 16.2726 7.55476 16.1951 6.17127C16.1948 6.17114 15.0047 3.49728 11.7126 5.27469Z" fill="url(#paint4_linear_34_2573)"/>
<path d="M17.2387 14.0902C15.8707 14.3739 14.569 13.1833 13.6405 11.6641C13.5834 11.5661 13.5064 11.4812 13.4145 11.4148C13.3226 11.3483 13.2178 11.3018 13.1069 11.2783C12.9959 11.2547 12.8813 11.2547 12.7703 11.278C12.6594 11.3014 12.5545 11.3478 12.4625 11.4141C12.074 11.699 11.7253 12.0346 11.4257 12.4119C10.8157 13.1499 10.1363 12.3618 9.54579 13.1735C9.28548 13.5659 9.07143 13.9872 8.9079 14.4288C8.7543 14.8171 8.90886 15.2384 9.2336 15.4857L13.2346 16.6905C17.5203 16.8256 18.9358 15.986 17.2387 14.0902Z" fill="url(#paint5_linear_34_2573)"/>
<path d="M18.7492 11.1624C18.8537 11.7625 18.8329 12.3778 18.688 12.9695L19.6992 14.3343C19.6992 14.3343 21.2043 14.1824 22.0275 12.8031C22.3848 12.1574 21.8947 11.5507 21.2058 11.5231C21.083 11.51 20.9657 11.4649 20.8658 11.3922C20.7659 11.3195 20.6868 11.2218 20.6366 11.1089C20.475 10.7464 20.089 10.311 19.1765 10.5258C19.0377 10.5576 18.9162 10.6412 18.8368 10.7595C18.7574 10.8778 18.7261 11.0219 18.7492 11.1624Z" fill="url(#paint6_linear_34_2573)"/>
<path d="M19.1283 26.6085H13.5462C13.5462 26.6085 14.1875 27.95 12.7148 29.4433H19.9596C18.4869 27.95 19.1283 26.6085 19.1283 26.6085Z" fill="url(#paint7_linear_34_2573)"/>
<path d="M16.7874 26.783H13.5464C13.3511 26.783 13.1638 26.7054 13.0257 26.5673C12.8876 26.4292 12.8101 26.2419 12.8101 26.0466C12.8101 25.8513 12.8876 25.664 13.0257 25.5259C13.1638 25.3878 13.3511 25.3102 13.5464 25.3102H17.8002C18.4549 25.92 17.9192 26.783 16.7874 26.783Z" fill="url(#paint8_linear_34_2573)"/>
<path d="M15.3821 31.0406H11.147L11.2245 30.3185C11.256 30.026 11.3945 29.7553 11.6133 29.5587C11.8322 29.3621 12.1161 29.2533 12.4103 29.2533H16.3042C17.142 29.6022 16.4685 30.9857 15.3821 31.0406Z" fill="url(#paint9_linear_34_2573)"/>
<path d="M16.1783 7.52717C16.2452 7.07629 16.2245 6.70049 16.1948 6.17114C16.1948 6.17114 15.0047 3.49729 11.7126 5.27469L11.8618 6.27309C12.1414 6.28711 12.7585 6.24353 13.1959 5.81761C13.4031 6.07085 13.7828 6.06337 13.7828 6.06337C14.1743 8.07399 16.1783 7.52717 16.1783 7.52717Z" fill="url(#paint10_linear_34_2573)"/>
<path d="M19.0201 4.4936C19.0201 4.4936 19.4553 2.90352 17.9656 2.5352C17.9656 2.5352 17.5137 0.87811 15.7729 1.41373C15.7729 1.41373 14.5845 0.258782 13.3961 1.63133C13.3961 1.63133 11.8896 1.38025 11.7725 3.27165C11.7725 3.27165 11.155 3.58038 10.9768 4.15773C11.0193 4.70621 11.1668 5.1439 11.6619 5.2152C12.269 5.29085 13.3003 4.88451 13.3003 4.88451C13.3003 4.88451 14.1744 5.05168 14.5483 4.98973C14.8779 6.95894 16.84 7.00227 18.3966 6.61321C18.8545 6.17763 19.0303 5.43613 19.0201 4.4936Z" fill="url(#paint11_linear_34_2573)"/>
<path d="M17.1079 5.93562C15.7665 6.0992 15.1679 5.27239 14.9713 4.90573C14.9469 4.8603 14.9083 4.82405 14.8614 4.80245C14.8146 4.78085 14.7619 4.77507 14.7115 4.78599C14.1218 4.91028 13.8188 4.6425 13.6707 4.40839C13.6513 4.37857 13.6254 4.35353 13.595 4.33514C13.5645 4.31674 13.5303 4.30548 13.4949 4.30219C13.4595 4.29889 13.4238 4.30365 13.3905 4.31612C13.3572 4.32858 13.3271 4.34842 13.3025 4.37415C13.081 4.60263 12.8066 4.84212 12.5253 4.96071C11.4551 5.41184 11.0917 4.59079 10.9772 4.15802C10.5975 5.67104 12.6337 6.05613 13.2954 5.02932C13.3952 5.19338 13.5392 5.32597 13.7109 5.41183C13.8827 5.49769 14.0752 5.53335 14.2663 5.51469C14.2663 5.51469 14.0487 7.17178 16.0907 7.07136C17.6529 9.20013 21.2213 6.93972 19.0199 4.49364C19.0199 4.49364 18.8211 5.72672 17.1079 5.93562Z" fill="url(#paint12_linear_34_2573)"/>
<path d="M15.8377 8.3173C15.8377 8.3173 16.0648 8.79052 16.7308 8.6693C17.1398 8.59493 17.4616 7.95404 17.4714 7.1589C17.4778 6.4574 16.5398 6.21625 16.1185 6.7557C15.7179 7.18719 15.8142 7.78322 15.8377 8.3173Z" fill="url(#paint13_linear_34_2573)"/>
<path d="M19.8646 26.0466C19.8646 25.9499 19.8456 25.8542 19.8086 25.7648C19.7716 25.6755 19.7173 25.5943 19.6489 25.5259C19.5806 25.4575 19.4994 25.4033 19.41 25.3663C19.3207 25.3293 19.2249 25.3102 19.1282 25.3102H17.7999C17.7999 26.6926 16.7871 26.783 16.7871 26.783H19.1282C19.2249 26.783 19.3207 26.764 19.41 26.727C19.4994 26.69 19.5806 26.6357 19.649 26.5673C19.7173 26.499 19.7716 26.4178 19.8086 26.3284C19.8456 26.2391 19.8646 26.1433 19.8646 26.0466Z" fill="url(#paint14_linear_34_2573)"/>
<path d="M21.45 30.3185C21.4185 30.026 21.2801 29.7553 21.0612 29.5587C20.8423 29.3621 20.5584 29.2533 20.2642 29.2533H16.3044C16.2626 30.7965 15.3823 31.0406 15.3823 31.0406H21.5275L21.45 30.3185Z" fill="url(#paint15_linear_34_2573)"/>
<path d="M14.7117 4.78601C14.7117 4.78601 15.236 4.72009 15.6454 4.17801C15.6677 4.14773 15.6961 4.12245 15.7288 4.10378C15.7615 4.08511 15.7977 4.07348 15.8352 4.06961C15.8726 4.06574 15.9104 4.06973 15.9463 4.08132C15.9821 4.09291 16.0151 4.11185 16.0431 4.13692C16.3768 4.41852 15.6471 5.14172 15.1033 5.27861L14.7117 4.78601Z" fill="url(#paint16_linear_34_2573)"/>
<path d="M16.2795 8.04318C16.2394 7.67889 16.2335 7.00234 16.6914 6.7667C16.6914 6.7667 16.9262 6.70378 17.0611 6.98698C17.0665 6.99782 17.0684 7.01004 17.0665 7.02199C17.0647 7.03394 17.0592 7.04503 17.0509 7.05377C17.0425 7.06251 17.0317 7.06846 17.0198 7.07083C17.008 7.07319 16.9957 7.07185 16.9846 7.06698C16.8583 7.01054 16.6736 6.98954 16.583 7.27524C16.636 7.28139 16.687 7.29894 16.7325 7.3267C16.778 7.35445 16.8169 7.39175 16.8466 7.43601C16.9485 7.58756 16.9383 8.04343 16.5447 8.19402C16.5176 8.20568 16.4881 8.21089 16.4586 8.20925C16.4291 8.2076 16.4003 8.19913 16.3746 8.18452C16.3489 8.16991 16.327 8.14954 16.3105 8.12502C16.2939 8.1005 16.2833 8.07248 16.2795 8.04318Z" fill="url(#paint17_linear_34_2573)"/>
<path d="M19.3621 15.1549L18.1037 13.7316C18.0973 13.7505 17.4535 14.0708 17.2387 14.09C17.2387 14.09 17.5636 15.0276 16.4327 15.7909C15.6489 16.3199 13.7294 16.1996 11.752 14.1949C11.5527 13.9916 11.2839 13.8713 10.9995 13.8581C10.7151 13.8449 10.4362 13.9398 10.219 14.1238C9.84136 14.4468 9.44456 14.8999 9.23413 15.4857C10.1281 16.2921 12.2341 17.7369 15.8083 17.6775C17.4369 17.656 18.6803 16.6303 19.3621 15.1549Z" fill="url(#paint18_linear_34_2573)"/>
<path d="M19.9296 13.4144C21.1968 15.1822 19.553 16.416 18.2084 14.7072C16.9414 12.9398 18.5849 11.7056 19.9296 13.4144Z" fill="url(#paint19_linear_34_2573)"/>
<path d="M19.5424 13.7054C20.2393 14.6779 19.3352 15.3566 18.5956 14.4167C17.8987 13.4443 18.8027 12.7653 19.5424 13.7054Z" fill="url(#paint20_linear_34_2573)"/>
<defs>
<linearGradient id="paint0_linear_34_2573" x1="16.3372" y1="2.86163" x2="16.3372" y2="28.2358" gradientUnits="userSpaceOnUse">
<stop stop-color="#737B9D"/>
<stop offset="1" stop-color="#576081"/>
</linearGradient>
<linearGradient id="paint1_linear_34_2573" x1="16.3042" y1="5.33278" x2="16.3042" y2="26.3602" gradientUnits="userSpaceOnUse">
<stop stop-color="#CED5F7"/>
<stop offset="1" stop-color="#ADB5DA"/>
</linearGradient>
<linearGradient id="paint2_linear_34_2573" x1="16.1871" y1="2.83285" x2="16.1871" y2="28.2858" gradientUnits="userSpaceOnUse">
<stop stop-color="#737B9D"/>
<stop offset="1" stop-color="#576081"/>
</linearGradient>
<linearGradient id="paint3_linear_34_2573" x1="15.9937" y1="2.86161" x2="15.9937" y2="28.2358" gradientUnits="userSpaceOnUse">
<stop stop-color="#737B9D"/>
<stop offset="1" stop-color="#576081"/>
</linearGradient>
<linearGradient id="paint4_linear_34_2573" x1="13.6758" y1="5.3328" x2="13.6758" y2="26.3603" gradientUnits="userSpaceOnUse">
<stop stop-color="#CED5F7"/>
<stop offset="1" stop-color="#ADB5DA"/>
</linearGradient>
<linearGradient id="paint5_linear_34_2573" x1="10.6978" y1="13.0189" x2="15.9424" y2="16.628" gradientUnits="userSpaceOnUse">
<stop stop-color="#EA5A86"/>
<stop offset="1" stop-color="#E2436E"/>
</linearGradient>
<linearGradient id="paint6_linear_34_2573" x1="32.6745" y1="12.4016" x2="32.7066" y2="12.4016" gradientUnits="userSpaceOnUse">
<stop stop-color="#A71A50"/>
<stop offset="1" stop-color="#9F0338"/>
</linearGradient>
<linearGradient id="paint7_linear_34_2573" x1="16.3372" y1="2.86164" x2="16.3372" y2="28.2358" gradientUnits="userSpaceOnUse">
<stop stop-color="#737B9D"/>
<stop offset="1" stop-color="#576081"/>
</linearGradient>
<linearGradient id="paint8_linear_34_2573" x1="15.447" y1="5.33281" x2="15.447" y2="26.3603" gradientUnits="userSpaceOnUse">
<stop stop-color="#CED5F7"/>
<stop offset="1" stop-color="#ADB5DA"/>
</linearGradient>
<linearGradient id="paint9_linear_34_2573" x1="13.9137" y1="5.33278" x2="13.9137" y2="26.3602" gradientUnits="userSpaceOnUse">
<stop stop-color="#CED5F7"/>
<stop offset="1" stop-color="#ADB5DA"/>
</linearGradient>
<linearGradient id="paint10_linear_34_2573" x1="13.9678" y1="2.86164" x2="13.9678" y2="28.2358" gradientUnits="userSpaceOnUse">
<stop stop-color="#737B9D"/>
<stop offset="1" stop-color="#576081"/>
</linearGradient>
<linearGradient id="paint11_linear_34_2573" x1="15.0281" y1="5.33283" x2="15.0281" y2="26.3603" gradientUnits="userSpaceOnUse">
<stop stop-color="#CED5F7"/>
<stop offset="1" stop-color="#ADB5DA"/>
</linearGradient>
<linearGradient id="paint12_linear_34_2573" x1="15.3243" y1="2.86247" x2="15.3243" y2="28.2202" gradientUnits="userSpaceOnUse">
<stop stop-color="#737B9D"/>
<stop offset="1" stop-color="#576081"/>
</linearGradient>
<linearGradient id="paint13_linear_34_2573" x1="16.641" y1="5.33324" x2="16.641" y2="26.3577" gradientUnits="userSpaceOnUse">
<stop stop-color="#CED5F7"/>
<stop offset="1" stop-color="#ADB5DA"/>
</linearGradient>
<linearGradient id="paint14_linear_34_2573" x1="18.3259" y1="2.86164" x2="18.3259" y2="28.2359" gradientUnits="userSpaceOnUse">
<stop stop-color="#737B9D"/>
<stop offset="1" stop-color="#576081"/>
</linearGradient>
<linearGradient id="paint15_linear_34_2573" x1="18.4549" y1="2.86162" x2="18.4549" y2="28.2358" gradientUnits="userSpaceOnUse">
<stop stop-color="#737B9D"/>
<stop offset="1" stop-color="#576081"/>
</linearGradient>
<linearGradient id="paint16_linear_34_2573" x1="15.4195" y1="2.86166" x2="15.4195" y2="28.2359" gradientUnits="userSpaceOnUse">
<stop stop-color="#737B9D"/>
<stop offset="1" stop-color="#576081"/>
</linearGradient>
<linearGradient id="paint17_linear_34_2573" x1="16.6648" y1="2.86161" x2="16.6648" y2="28.2358" gradientUnits="userSpaceOnUse">
<stop stop-color="#737B9D"/>
<stop offset="1" stop-color="#576081"/>
</linearGradient>
<linearGradient id="paint18_linear_34_2573" x1="32.6638" y1="15.7055" x2="32.6958" y2="15.7055" gradientUnits="userSpaceOnUse">
<stop stop-color="#A71A50"/>
<stop offset="1" stop-color="#9F0338"/>
</linearGradient>
<linearGradient id="paint19_linear_34_2573" x1="18.5388" y1="11.5877" x2="19.3816" y2="15.5203" gradientUnits="userSpaceOnUse">
<stop stop-color="#FFE0A6"/>
<stop offset="1" stop-color="#FFAE85"/>
</linearGradient>
<linearGradient id="paint20_linear_34_2573" x1="18.8582" y1="13.2574" x2="19.2015" y2="14.566" gradientUnits="userSpaceOnUse">
<stop stop-color="#EF7554"/>
<stop offset="1" stop-color="#DD6049"/>
</linearGradient>
</defs>
</svg>
