<svg width="32" height="32" viewBox="0 0 32 32" fill="none" xmlns="http://www.w3.org/2000/svg">
<path d="M4 9.33329C4.00383 10.5127 4.39849 11.6576 5.12225 12.5888C5.84601 13.52 6.85803 14.1851 8 14.48V29.3333H10.6667V14.48C11.8086 14.1851 12.8207 13.52 13.5444 12.5888C14.2682 11.6576 14.6628 10.5127 14.6667 9.33329V2.66663H12V9.33329C11.9972 9.79866 11.8726 10.2552 11.6387 10.6575C11.4048 11.0598 11.0697 11.3939 10.6667 11.6266V2.66663H8V11.6266C7.59697 11.3939 7.26184 11.0598 7.02793 10.6575C6.79402 10.2552 6.66948 9.79866 6.66667 9.33329V2.66663H4V9.33329ZM28 7.99996C28 6.58547 27.4381 5.22892 26.4379 4.22872C25.4377 3.22853 24.0812 2.66663 22.6667 2.66663C21.2522 2.66663 19.8956 3.22853 18.8954 4.22872C17.8952 5.22892 17.3333 6.58547 17.3333 7.99996V10.6666C17.3372 11.846 17.7318 12.9909 18.4556 13.9221C19.1793 14.8534 20.1914 15.5184 21.3333 15.8133V29.3333H24V15.8133C25.142 15.5184 26.154 14.8534 26.8778 13.9221C27.6015 12.9909 27.9962 11.846 28 10.6666V7.99996Z" fill="#AEAEB2"/>
</svg>
