<svg width="32" height="32" viewBox="0 0 32 32" fill="none" xmlns="http://www.w3.org/2000/svg">
<path d="M29.3332 26.6666V27.3333C29.3332 27.6869 29.1927 28.0261 28.9426 28.2761C28.6926 28.5262 28.3535 28.6666 27.9998 28.6666H3.99984C3.64622 28.6666 3.30708 28.5262 3.05703 28.2761C2.80698 28.0261 2.6665 27.6869 2.6665 27.3333V26.6666C2.66672 26.0675 2.82844 25.4794 3.13464 24.9644C3.44084 24.4494 3.88021 24.0264 4.4065 23.74C5.45317 23.1666 4.37984 23.3333 25.9998 23.3333C26.8839 23.3333 27.7317 23.6845 28.3569 24.3096C28.982 24.9347 29.3332 25.7826 29.3332 26.6666Z" fill="#A87E6B"/>
<path d="M29.3334 26.6667V27.3334H6.00004C4.36004 27.3334 3.41338 25.5534 4.40671 23.7401C4.89478 23.4717 5.44305 23.3317 6.00004 23.3334H26C26.8841 23.3334 27.7319 23.6846 28.3571 24.3097C28.9822 24.9348 29.3334 25.7827 29.3334 26.6667Z" fill="#BE927C"/>
<path d="M28 28.6667V30C28 30.3536 27.8595 30.6928 27.6095 30.9428C27.3594 31.1928 27.0203 31.3333 26.6667 31.3333H5.33333C4.97971 31.3333 4.64057 31.1928 4.39052 30.9428C4.14048 30.6928 4 30.3536 4 30V28.6667H28Z" fill="#374F68"/>
<path d="M27.9999 28.6667V30H6.66659C6.31296 30 5.97383 29.8595 5.72378 29.6095C5.47373 29.3594 5.33325 29.0203 5.33325 28.6667H27.9999Z" fill="#425B72"/>
<path d="M21.3332 21.3333V23.3333H10.6665V21.3333C10.6665 20.9797 10.807 20.6405 11.057 20.3905C11.3071 20.1404 11.6462 19.9999 11.9998 19.9999H19.9998C20.3535 19.9999 20.6926 20.1404 20.9426 20.3905C21.1927 20.6405 21.3332 20.9797 21.3332 21.3333Z" fill="#FFCC66"/>
<path d="M21.3333 21.3333V21.9999H14C13.4696 21.9999 12.9609 21.7892 12.5858 21.4142C12.2107 21.0391 12 20.5304 12 19.9999H20C20.3536 19.9999 20.6928 20.1404 20.9428 20.3905C21.1929 20.6405 21.3333 20.9797 21.3333 21.3333Z" fill="#FFDE76"/>
<path d="M22.6664 7.11999C22.7797 10.9333 20.413 11.0733 19.333 16H12.6664C12.3418 14.2555 11.621 12.6087 10.5597 11.1867C9.84156 10.1741 9.42038 8.98123 9.34358 7.74226C9.26679 6.5033 9.53744 5.26751 10.125 4.17406C10.7127 3.0806 11.5939 2.17293 12.6695 1.55325C13.7451 0.933579 14.9723 0.626519 16.213 0.666657C17.902 0.737086 19.5028 1.4396 20.6981 2.6349C21.8934 3.83021 22.5959 5.43104 22.6664 7.11999Z" fill="#A87E6B"/>
<path d="M19.3332 15.9999H12.6665V19.9999H19.3332V15.9999Z" fill="#A87E6B"/>
<path d="M22.6665 6.61333C23.0665 10.4867 20.7865 11.0333 19.6998 14.6667H15.7665C15.2435 14.6601 14.7339 14.4999 14.3012 14.2059C13.8686 13.9119 13.5319 13.4972 13.3332 13.0133C12.2065 10.3467 10.6665 9.67999 10.6665 6.66666C10.6659 5.5554 10.943 4.46161 11.4728 3.48475C12.0026 2.5079 12.7681 1.67896 13.6998 1.07333C14.6526 0.716666 15.6744 0.582787 16.6868 0.681942C17.6993 0.781097 18.6757 1.11066 19.5412 1.64538C20.4066 2.1801 21.1382 2.90581 21.68 3.76691C22.2217 4.62801 22.5591 5.60168 22.6665 6.61333ZM19.3332 16V18.6667H16.6665C15.9593 18.6667 15.281 18.3857 14.7809 17.8856C14.2808 17.3855 13.9998 16.7072 13.9998 16H19.3332Z" fill="#BE927C"/>
</svg>
