<svg width="24" height="24" viewBox="0 0 24 24" fill="none" xmlns="http://www.w3.org/2000/svg">
<path d="M19.1005 14.6854C18.7885 14.9749 18.6446 15.4021 18.7178 15.8085L19.7844 21.5049C19.8696 21.9912 19.6656 22.4764 19.2445 22.7554C18.8365 23.0448 18.2966 23.0796 17.8407 22.848L12.5268 20.1735C12.3337 20.0808 12.1297 20.0218 11.9269 20.0218H11.6018C11.4818 20.0334 11.375 20.0808 11.2778 20.126L5.96276 22.8133C5.69881 22.9406 5.39886 22.987 5.11091 22.9406C4.39104 22.8017 3.92432 22.1522 4.0431 21.4691L5.11091 15.7726C5.1829 15.3569 5.03892 14.9401 4.72818 14.6391L0.395729 10.5867C0.0357915 10.2394 -0.0961857 9.74036 0.072985 9.27839C0.228958 8.82569 0.635688 8.48992 1.1396 8.41003L7.10257 7.57525C7.55849 7.52893 7.95442 7.26379 8.15838 6.87013L10.7859 1.67153C10.8459 1.55575 10.9299 1.45039 11.0271 1.35892L11.1339 1.27788C11.1819 1.21883 11.2538 1.17367 11.327 1.12736L11.4578 1.08105L11.6618 1H12.1669C12.6228 1.04631 13.0187 1.31145 13.2227 1.69353L15.885 6.87013C16.077 7.25221 16.4489 7.50693 16.8809 7.57525L22.8438 8.41003C23.3478 8.4795 23.7689 8.81527 23.9356 9.27839C24.0916 9.74036 23.9596 10.251 23.5877 10.5867L19.1005 14.6854Z" fill="#65706C"/>
</svg>
