<svg width="25" height="24" viewBox="0 0 25 24" fill="none" xmlns="http://www.w3.org/2000/svg">
<g clip-path="url(#clip0_27_5203)">
<path d="M13.3063 1.31247C7.45632 1.34997 2.69382 6.14997 2.67507 12C2.67507 13.875 3.16257 15.6562 4.02507 17.175C3.78132 17.7187 3.46257 18.2437 3.05007 18.7312C2.78757 19.0125 2.48757 19.2937 2.13132 19.5375C1.79382 19.7812 1.41882 19.9687 1.02507 20.1375C0.893823 20.1937 0.968823 20.2687 1.04382 20.3062C1.17507 20.3625 1.30632 20.4375 1.45632 20.4937C1.73757 20.6062 2.01882 20.7 2.30007 20.775C2.78757 20.925 3.33132 20.9812 3.85632 21C4.40007 21.0187 4.96257 20.9625 5.50632 20.8875C5.99382 20.7937 6.46257 20.7 6.93132 20.55C8.71257 21.9 10.9626 22.7062 13.3813 22.7062C19.2876 22.7062 24.0688 17.925 24.0688 12.0187C24.0688 6.07497 19.2313 1.27497 13.3063 1.31247ZM13.3251 18.1875C12.7251 18.1875 12.2188 17.6812 12.2188 17.0812C12.2188 16.4625 12.7251 15.975 13.3251 15.975C13.9438 15.9562 14.4313 16.4437 14.4501 17.0625C14.4501 17.6812 13.9813 18.1875 13.3251 18.1875ZM15.2751 12.1687C14.9001 12.5062 14.4688 12.825 14.4313 13.3875C14.3938 13.8 14.3751 14.2125 14.3751 14.625C14.3938 14.85 14.3001 14.925 14.0751 14.9062C13.8126 14.8875 13.5501 14.9062 13.3063 14.9062C13.0251 14.9062 12.7251 14.9062 12.4438 14.9062C12.2938 14.9062 12.2188 14.85 12.2188 14.6812C12.2001 13.875 12.1813 12.8062 12.5376 12.075C12.9688 11.1187 14.0188 10.8187 14.6188 9.99372C16.1188 7.94997 12.3501 6.58122 11.5813 9.11247C11.4688 9.48747 11.4501 9.48747 11.0563 9.43122C10.5688 9.37497 10.0813 9.29997 9.59382 9.24372C9.40632 9.22497 9.33132 9.14997 9.35007 8.96247C9.65007 5.77497 14.1501 4.85622 16.3251 6.76872C16.9813 7.33122 17.4126 8.17497 17.4126 9.03747C17.3938 10.425 16.1751 11.3437 15.2751 12.1687Z" fill="#03C373"/>
</g>
<defs>
<clipPath id="clip0_27_5203">
<rect width="24" height="24" fill="white" transform="translate(0.5)"/>
</clipPath>
</defs>
</svg>
