<svg width="32" height="32" viewBox="0 0 32 32" fill="none" xmlns="http://www.w3.org/2000/svg">
<path d="M5.86291 29.4835C5.68509 29.7912 5.63678 30.157 5.72863 30.5003C5.82048 30.8437 6.04495 31.1364 6.35266 31.3143C6.66038 31.4921 7.02614 31.5404 7.36947 31.4486C7.7128 31.3567 8.00559 31.1322 8.18342 30.8245L9.91341 27.941C9.12505 27.5144 8.38337 27.0066 7.70041 26.426L5.86291 29.4835ZM24.2999 26.426C23.6168 27.0065 22.8752 27.5142 22.0869 27.941L23.8169 30.8245C23.905 30.9769 24.0222 31.1104 24.1618 31.2175C24.3015 31.3246 24.4609 31.4031 24.6309 31.4486C24.8009 31.494 24.9782 31.5056 25.1526 31.4825C25.3271 31.4595 25.4953 31.4023 25.6477 31.3143C25.8 31.2262 25.9336 31.109 26.0406 30.9694C26.1477 30.8297 26.2262 30.6703 26.2717 30.5003C26.3172 30.3303 26.3287 30.153 26.3057 29.9786C26.2826 29.8041 26.2255 29.6359 26.1374 29.4835L24.2999 26.426Z" fill="#F0534A"/>
<path d="M5.86291 29.4835C5.68509 29.7912 5.63678 30.157 5.72863 30.5003C5.82048 30.8437 6.04495 31.1364 6.35266 31.3143C6.66038 31.4921 7.02614 31.5404 7.36947 31.4486C7.7128 31.3567 8.00559 31.1322 8.18342 30.8245L9.32091 28.9285C8.53448 28.4995 7.79078 27.9964 7.09991 27.426L5.86291 29.4835ZM24.8999 27.426C24.209 27.9965 23.4651 28.4996 22.6784 28.9285L23.8159 30.8245C23.9937 31.1322 24.2865 31.3567 24.6299 31.4486C24.9732 31.5404 25.3389 31.4921 25.6467 31.3143C25.9544 31.1364 26.1789 30.8437 26.2707 30.5003C26.3625 30.157 26.3142 29.7912 26.1364 29.4835L24.8999 27.426Z" fill="#F0534A"/>
<path d="M7.7001 26.426L7.1001 27.426C7.79112 27.9964 8.53499 28.4995 9.3216 28.9285L9.9141 27.941C9.12539 27.5144 8.38336 27.0067 7.7001 26.426ZM24.3001 26.426C23.617 27.0065 22.8754 27.5142 22.0871 27.941L22.6796 28.9285C23.4659 28.4996 24.2095 27.9964 24.9001 27.426L24.3001 26.426Z" fill="#E44D44"/>
<path d="M16 29.627C23.1797 29.627 29 23.8067 29 16.627C29 9.44731 23.1797 3.62701 16 3.62701C8.8203 3.62701 3 9.44731 3 16.627C3 23.8067 8.8203 29.627 16 29.627Z" fill="#F9B534"/>
<path d="M16.0002 3.62701C15.6722 3.62701 15.3472 3.63901 15.0252 3.66301C12.5746 5.11592 10.6691 7.33344 9.60141 9.97471C8.53376 12.616 8.36313 15.5348 9.11574 18.2825C9.86835 21.0302 11.5025 23.4546 13.7671 25.1832C16.0317 26.9117 18.8013 27.8487 21.6502 27.85C21.9782 27.85 22.3002 27.8355 22.6242 27.8115C25.0753 26.3593 26.9816 24.1421 28.0497 21.5009C29.1179 18.8597 29.2888 15.9407 28.5362 13.1929C27.7835 10.445 26.1491 8.02053 23.8841 6.29222C21.6192 4.56391 18.8492 3.6275 16.0002 3.62701Z" fill="#F9CB4E"/>
<path d="M20.731 10.0955C20.6775 10.0569 20.617 10.0292 20.5528 10.0141C20.4887 9.99894 20.4221 9.99666 20.3571 10.0073C20.292 10.018 20.2297 10.0415 20.1737 10.0763C20.1178 10.1112 20.0693 10.1568 20.031 10.2105L16.2185 15.5225C16.388 15.5558 16.5482 15.6255 16.688 15.7269C16.8279 15.8283 16.9441 15.9588 17.0285 16.1095L20.8455 10.7935C20.8838 10.7401 20.9113 10.6798 20.9263 10.6158C20.9413 10.5519 20.9435 10.4856 20.9329 10.4208C20.9222 10.3559 20.8989 10.2938 20.8643 10.238C20.8296 10.1822 20.7844 10.1338 20.731 10.0955ZM16.0735 17.877C16.0828 17.8942 16.0932 17.9109 16.1045 17.927L19.4725 21.4075C19.5648 21.5023 19.6909 21.5566 19.8231 21.5586C19.9554 21.5606 20.0831 21.5101 20.1782 21.4181C20.2733 21.3262 20.3281 21.2003 20.3306 21.0681C20.3331 20.9358 20.2831 20.8079 20.1915 20.7125L16.9665 17.38C16.8639 17.524 16.7306 17.6433 16.5761 17.7293C16.4216 17.8152 16.2499 17.8657 16.0735 17.877Z" fill="white"/>
<path d="M16 3.62701C15.8325 3.62701 15.666 3.63051 15.5 3.63651V5.62501C15.5 5.75762 15.5527 5.8848 15.6464 5.97857C15.7402 6.07234 15.8674 6.12501 16 6.12501C16.1326 6.12501 16.2598 6.07234 16.3536 5.97857C16.4473 5.8848 16.5 5.75762 16.5 5.62501V3.63951C16.334 3.63351 16.1675 3.62701 16 3.62701ZM15.9945 26.9735C15.8619 26.9735 15.7347 27.0262 15.6409 27.12C15.5472 27.2137 15.4945 27.3409 15.4945 27.4735V29.6145C15.6625 29.6205 15.8305 29.627 16 29.627C16.1695 29.627 16.33 29.6205 16.4945 29.6145V27.4735C16.4945 27.3409 16.4418 27.2137 16.3481 27.12C16.2543 27.0262 16.1271 26.9735 15.9945 26.9735ZM3.0165 17.2745H5.012C5.14461 17.2745 5.27179 17.2218 5.36555 17.1281C5.45932 17.0343 5.512 16.9071 5.512 16.7745C5.512 16.6419 5.45932 16.5147 5.36555 16.421C5.27179 16.3272 5.14461 16.2745 5.012 16.2745H3.009C3.006 16.392 3 16.509 3 16.6245C3 16.844 3.006 17.06 3.0165 17.2745ZM26.3945 16.627C26.3945 16.7596 26.4472 16.8868 26.5409 16.9806C26.6347 17.0743 26.7619 17.127 26.8945 17.127H28.9875C28.9935 16.961 29 16.7945 29 16.627C29 16.4595 28.9935 16.293 28.9875 16.127H26.8945C26.7619 16.127 26.6347 16.1797 26.5409 16.2735C26.4472 16.3672 26.3945 16.4944 26.3945 16.627Z" fill="#F4991E"/>
<path d="M13.1592 2.40801C12.2877 1.39571 11.0772 0.735622 9.75419 0.551251C8.43121 0.366881 7.08638 0.670859 5.97131 1.40631C4.85624 2.14177 4.04733 3.2583 3.69594 4.54702C3.34455 5.83574 3.47474 7.20834 4.06216 8.40801C6.2013 5.3036 9.46328 3.15213 13.1592 2.40801ZM27.9382 8.41001C28.5245 7.21042 28.6539 5.83835 28.3022 4.55028C27.9505 3.26222 27.1417 2.14632 26.0271 1.41116C24.9125 0.676011 23.5683 0.371929 22.2458 0.555756C20.9233 0.739584 19.713 1.39874 18.8412 2.41001C22.537 3.15413 25.799 5.3056 27.9382 8.41001Z" fill="#F0534A"/>
<path d="M15.9943 18.0345C16.7355 18.0345 17.3363 17.4337 17.3363 16.6925C17.3363 15.9514 16.7355 15.3505 15.9943 15.3505C15.2532 15.3505 14.6523 15.9514 14.6523 16.6925C14.6523 17.4337 15.2532 18.0345 15.9943 18.0345Z" fill="#F0534A"/>
</svg>
