<svg width="32" height="32" viewBox="0 0 32 32" fill="none" xmlns="http://www.w3.org/2000/svg">
<path d="M17.5 3.5H25.5V8.5H17.5V3.5ZM15.5 8.5H27.5V19.5H15.5V8.5Z" fill="#AABECE"/>
<path d="M16.5 19.5H19.5V27.5H16.5V19.5ZM23.5 19.5H26.5V27.5H23.5V19.5Z" fill="#238892"/>
<path d="M15.5 27.5H19.5V30.5H13.5V29.5C13.5 28.9696 13.7107 28.4609 14.0858 28.0858C14.4609 27.7107 14.9696 27.5 15.5 27.5Z" fill="#5A6470"/>
<path d="M29.5 30.5H23.5V27.5H27.5C28.0304 27.5 28.5391 27.7107 28.9142 28.0858C29.2893 28.4609 29.5 28.9696 29.5 29.5V30.5Z" fill="#5A6470"/>
<path d="M12.5 8.5H15.5V17.5H12.5V8.5Z" fill="#238892"/>
<path d="M12.5 17.5H15.5V19.5H12.5V17.5ZM27.5 17.5H30.5V19.5H27.5V17.5Z" fill="#5A6470"/>
<path d="M27.5 8.5H30.5V17.5H27.5V8.5Z" fill="#238892"/>
<path d="M4 27.5C4.82843 27.5 5.5 26.8284 5.5 26C5.5 25.1716 4.82843 24.5 4 24.5C3.17157 24.5 2.5 25.1716 2.5 26C2.5 26.8284 3.17157 27.5 4 27.5Z" fill="#5A6470"/>
<path d="M1.5 7.5H10.5V16.5H1.5V7.5Z" fill="#AABECE"/>
<path d="M10 27.5C10.8284 27.5 11.5 26.8284 11.5 26C11.5 25.1716 10.8284 24.5 10 24.5C9.17157 24.5 8.5 25.1716 8.5 26C8.5 26.8284 9.17157 27.5 10 27.5Z" fill="#5A6470"/>
<path d="M1.5 22.5H12.5V25.5H1.5V22.5Z" fill="#195C85"/>
<path d="M3.5 18.5H5.5V22.5H1.5V20.5C1.5 19.9696 1.71071 19.4609 2.08579 19.0858C2.46086 18.7107 2.96957 18.5 3.5 18.5Z" fill="#AABECE"/>
<path d="M4 9H5V12H4V9Z" fill="#143441"/>
<path d="M3 10H6V11H3V10Z" fill="#143441"/>
<path d="M8 11C7.80222 11 7.60888 10.9414 7.44443 10.8315C7.27998 10.7216 7.15181 10.5654 7.07612 10.3827C7.00043 10.2 6.98063 9.99889 7.01922 9.80491C7.0578 9.61093 7.15304 9.43275 7.29289 9.29289C7.43275 9.15304 7.61093 9.0578 7.80491 9.01922C7.99889 8.98063 8.19996 9.00043 8.38268 9.07612C8.56541 9.15181 8.72159 9.27998 8.83147 9.44443C8.94135 9.60888 9 9.80222 9 10C9 10.2652 8.89464 10.5196 8.70711 10.7071C8.51957 10.8946 8.26522 11 8 11Z" fill="#E1462B"/>
<path d="M8 13H9V14H8V13ZM6 14H7V15H6V14ZM5.5 3H6.5V7.5H5.5V3Z" fill="#143441"/>
<path d="M4.5 5.5H7.5V7.5H4.5V5.5Z" fill="#195C85"/>
<path d="M5.5 1H6.5V2H5.5V1Z" fill="#143441"/>
<path d="M17.5 1.5H19.5V3.5H17.5V1.5ZM23.5 1.5H25.5V3.5H23.5V1.5Z" fill="#238892"/>
<path d="M19 5H21V6H19V5ZM22 5H24V6H22V5Z" fill="white"/>
<path d="M17 17H18V18H17V17ZM19 17H20V18H19V17ZM21 17H22V18H21V17ZM23 17H24V18H23V17ZM25 17H26V18H25V17Z" fill="#5A6470"/>
<path d="M18.5 8.5H24.5V15.5H18.5V8.5Z" fill="#FFD782"/>
</svg>
