<svg width="32" height="32" viewBox="0 0 32 32" fill="none" xmlns="http://www.w3.org/2000/svg">
<g clip-path="url(#clip0_34_2331)">
<path d="M16.0001 31.3985C24.5044 31.3985 31.3986 24.5043 31.3986 16C31.3986 7.4957 24.5044 0.601501 16.0001 0.601501C7.49576 0.601501 0.601562 7.4957 0.601562 16C0.601562 24.5043 7.49576 31.3985 16.0001 31.3985ZM16.0001 10.4294C19.0766 10.4294 21.5707 12.9234 21.5707 16C21.5707 19.0766 19.0766 21.5706 16.0001 21.5706C12.9235 21.5706 10.4294 19.0766 10.4294 16C10.4294 12.9234 12.9235 10.4294 16.0001 10.4294Z" fill="#545C6D"/>
<path d="M16.0001 21.5706C19.0767 21.5706 21.5707 19.0765 21.5707 16C21.5707 12.9234 19.0767 10.4293 16.0001 10.4293C12.9235 10.4293 10.4294 12.9234 10.4294 16C10.4294 19.0765 12.9235 21.5706 16.0001 21.5706ZM16.0001 15.0936C16.2405 15.0936 16.471 15.1891 16.641 15.3591C16.8109 15.5291 16.9064 15.7596 16.9064 16C16.9064 16.2403 16.8109 16.4709 16.641 16.6409C16.471 16.8108 16.2405 16.9063 16.0001 16.9063C15.7597 16.9063 15.5292 16.8108 15.3592 16.6409C15.1892 16.4709 15.0937 16.2403 15.0937 16C15.0937 15.7596 15.1892 15.5291 15.3592 15.3591C15.5292 15.1891 15.7597 15.0936 16.0001 15.0936Z" fill="#FB434C"/>
<path d="M21.134 13.8315C20.8537 13.1699 20.4483 12.5687 19.9401 12.0609C19.4323 11.5527 18.8311 11.1473 18.1695 10.867L21.9939 1.8103C23.8359 2.58961 25.4946 3.71707 26.888 5.11039C28.2813 6.50372 29.4087 8.1629 30.1878 10.0052L21.134 13.8315ZM10.8646 18.1688C11.1449 18.8303 11.5503 19.4315 12.0585 19.9394C12.5663 20.4476 13.1675 20.853 13.8291 21.1332L10.0047 30.19C8.17613 29.4152 6.51435 28.2947 5.11064 26.8899C3.70582 25.4859 2.58536 23.8239 1.81079 21.9951L10.8646 18.1688Z" fill="#6B7689"/>
</g>
<defs>
<clipPath id="clip0_34_2331">
<rect width="32" height="32" fill="white"/>
</clipPath>
</defs>
</svg>
